<svg xmlns="http://www.w3.org/2000/svg" xmlns:xlink="http://www.w3.org/1999/xlink" width="24" height="24"><defs><path id="A" d="M0 0h23.606v23.952H0z"/></defs><g fill-rule="evenodd"><mask id="B" fill="#fff"><use xlink:href="#A"/></mask><path fill="#009dd8" d="M21.606 10.913a.74.74 0 0 1-.74.74h-2.9a.74.74 0 0 1-.74-.74V2.795a.74.74 0 0 1 .74-.74h2.9a.74.74 0 0 1 .74.74v8.118zm-11.004 9.114c-.175 1.05-.33 1.57-.43 1.824l-.212-.1-.206-.098c-.436-.473-.207-3.253.464-5.775.184-.553.202-1.41-.35-2.008-.54-.584-1.413-.73-2.58-.437-1.702.424-4.225.352-4.8-.377-.206-.258-.033-.743.148-1.106a1 1 0 0 0-.196-1.162c-.162-.16-.925-1.008.048-2.1a1.01 1.01 0 0 0 .183-1.033c-.142-.363-.354-1.27-.104-1.753.068-.13.194-.292.576-.388a1.01 1.01 0 0 0 .681-1.355c-.003-.007-.3-.786.085-1.322.233-.317 1.1-1.025 4.128-.776l7.22.568c-.004.06-.018.115-.018.176v8.118c0 .336.07.654.18.952-1.215 1.376-4.296 5.11-4.805 8.162zM20.867.055h-2.9a2.71 2.71 0 0 0-1.722.626L8.192.06C5.212-.19 3.217.35 2.27 1.667c-.534.74-.624 1.592-.546 2.283-.49.31-.78.704-.95 1.033C.27 5.97.44 7.13.62 7.813c-.968 1.43-.657 2.9-.04 3.838-.437 1.268-.077 2.127.34 2.647 1.516 1.9 5.558 1.388 6.853 1.064.25-.062.424-.083.537-.087a.194.194 0 0 1-.005.02c-.69 2.587-1.544 7.08.52 8.1l.22.113c.386.2.837.434 1.33.434a1.51 1.51 0 0 0 .684-.164c.763-.382 1.16-1.28 1.52-3.433.374-2.243 2.77-5.376 4.18-6.997.37.183.776.295 1.212.295h2.9a2.743 2.743 0 0 0 2.739-2.74V2.795a2.743 2.743 0 0 0-2.74-2.74z" mask="url(#B)"/></g></svg>