<svg xmlns="http://www.w3.org/2000/svg" xmlns:xlink="http://www.w3.org/1999/xlink" viewBox="0 0 24 24"><defs><path id="A" d="M0 .05h16V23H0z"/></defs><g fill="none" fill-rule="evenodd"><path d="M22.713 13.154c.535-.4.885-1.034.885-1.74V3.295c0-.706-.35-1.33-.885-1.74h-4.947c-.115.16-.303.593-.303 1.267v9.066c0 .674.188 1.107.303 1.267h4.947z" fill="#009dd8"/><g transform="translate(0 .95)"><mask id="B" fill="#fff"><use xlink:href="#A"/></mask><path d="M.678 11.13c-.513 1.188-.2 1.958.174 2.405 1.305 1.56 5.022 1.274 6.618.893.69-.168 1.057-.1 1.164 0s.07.392.02.546c-.428 1.532-1.67 6.604.27 7.535l.236.115c.53.262 1.077.532 1.63.267.613-.293.965-1.125 1.303-3.068.383-2.195 2.5-4.96 3.898-6.57-.385-.578-.615-1.383-.615-2.315V1.87c0-.43.055-.83.145-1.197A600.079 600.079 0 0 1 7.992.108L6.624.05c-2.156 0-3.617.488-4.347 1.46-.602.802-.54 1.707-.415 2.26a2.2 2.2 0 0 0-1.103.992C.25 5.714.53 6.915.704 7.46-.485 8.935.06 10.368.678 11.13" fill="#009dd8" mask="url(#B)"/></g></g></svg>