<svg xmlns="http://www.w3.org/2000/svg" xmlns:xlink="http://www.w3.org/1999/xlink" viewBox="0 0 24 24"><defs><path id="A" d="M0 .882h6.134v12.105H0z"/></defs><g fill="none" fill-rule="evenodd"><g transform="translate(0 10.383)"><mask id="B" fill="#fff"><use xlink:href="#A"/></mask><path d="M.885.882A2.323 2.323 0 0 0 0 2.7v8.47c0 .737.35 1.387.885 1.817h4.947c.114-.168.302-.62.302-1.322v-9.46c0-.704-.188-1.156-.302-1.323H.885z" fill="#009dd8" mask="url(#B)"/></g><path d="M22.92 12.386c.512-1.24.2-2.043-.174-2.5-1.306-1.63-5.023-1.33-6.618-.932-.692.176-1.057.114-1.165 0s-.07-.41-.02-.57c.427-1.598 1.67-6.9-.27-7.862l-.237-.12c-.53-.272-1.076-.555-1.63-.278-.612.305-.965 1.173-1.303 3.2-.383 2.292-2.5 5.178-3.897 6.857.385.603.614 1.443.614 2.415v9.46a5.39 5.39 0 0 1-.145 1.25l7.53.6 1.368.06c2.157 0 3.618-.51 4.347-1.522.602-.837.54-1.78.415-2.358.495-.223.864-.57 1.103-1.035.51-.995.23-2.248.056-2.817 1.188-1.54.645-3.034.026-3.83" fill="#009dd8"/></g></svg>