<svg xmlns="http://www.w3.org/2000/svg" xmlns:xlink="http://www.w3.org/1999/xlink" viewBox="0 0 24 24"><defs><path id="A" d="M0 0h23.606v23.95H0z"/></defs><g fill-rule="evenodd"><mask id="B" fill="#fff"><use xlink:href="#A"/></mask><path d="M21.13 15.273a1.01 1.01 0 0 0-.183 1.033c.142.363.354 1.27.104 1.754-.067.13-.193.292-.576.388a.996.996 0 0 0-.677 1.364c.003.007.303.77-.082 1.304-.23.32-1.1 1.03-4.135.784a575.21 575.21 0 0 0-7.22-.567c.005-.06.02-.116.02-.176V13.04a2.7 2.7 0 0 0-.181-.953c1.217-1.375 4.297-5.1 4.806-8.162.175-1.048.33-1.57.43-1.823l.212.11.206.098c.436.474.207 3.254-.464 5.776-.184.552-.202 1.4.35 2.007.54.582 1.412.73 2.58.438 1.704-.423 4.226-.352 4.8.377.207.258.034.743-.146 1.105a.998.998 0 0 0 .195 1.162c.162.16.925 1.008-.048 2.1zm-18.4 6.623a.74.74 0 0 1-.74-.74V13.04a.74.74 0 0 1 .74-.741h2.9a.74.74 0 0 1 .74.74v8.12a.74.74 0 0 1-.74.739h-2.9zM23.027 12.3c.437-1.267.078-2.127-.338-2.646-1.517-1.89-5.56-1.4-6.854-1.065-.25.063-.424.083-.537.087 0-.006.003-.012.005-.02.7-2.586 1.544-7.08-.52-8.11l-.218-.112c-.56-.3-1.255-.647-2.015-.27-.763.382-1.16 1.28-1.52 3.433-.373 2.242-2.77 5.375-4.18 6.997a2.717 2.717 0 0 0-1.211-.295h-2.9a2.744 2.744 0 0 0-2.74 2.74v8.12a2.742 2.742 0 0 0 2.74 2.739h2.9c.655 0 1.25-.24 1.72-.626l8.055.622 1.337.06c2.247 0 3.788-.56 4.586-1.667.534-.74.624-1.592.546-2.283a2.65 2.65 0 0 0 .949-1.034c.505-.987.334-2.147.155-2.83.968-1.427.657-2.9.04-3.837z" fill="#009dd8" mask="url(#B)"/></g></svg>