<svg width="150" height="29" viewBox="0 0 150 29" fill="none" xmlns="http://www.w3.org/2000/svg">
<path d="M44.1721 12.58C45.197 13.3566 45.9332 14.4483 46.2653 15.6841H44.5354C44.226 14.8851 43.6765 14.1996 42.9612 13.7205C42.1763 13.2031 41.2478 12.9423 40.3058 12.9745C39.5224 12.9612 38.7514 13.1694 38.0829 13.5747C37.4118 13.9901 36.8723 14.5844 36.5261 15.2897C36.1295 16.1074 35.9338 17.0065 35.9552 17.9136C35.9378 18.8038 36.1334 19.6854 36.5261 20.4861C36.8711 21.1921 37.4109 21.7868 38.0829 22.2011C38.7514 22.6063 39.5224 22.8145 40.3058 22.8013C41.2464 22.8321 42.1736 22.5745 42.9612 22.0639C43.6771 21.5704 44.2258 20.874 44.5354 20.0659H46.2653C45.9315 21.2963 45.1953 22.382 44.1721 23.1529C43.0561 23.947 41.7044 24.3485 40.3318 24.2933C39.2308 24.3127 38.1452 24.034 37.1921 23.4873C36.2795 22.9429 35.5393 22.1556 35.0557 21.2149C34.531 20.1841 34.2668 19.0424 34.2859 17.8879C34.2632 16.7415 34.5183 15.6064 35.0297 14.578C35.5097 13.6153 36.2608 12.8111 37.1921 12.2627C38.1465 11.6909 39.2427 11.394 40.3577 11.4053C41.725 11.3697 43.0658 11.7827 44.1721 12.58Z" fill="white"/>
<path d="M54.9836 14.9541C55.6448 15.4267 56.1358 16.0968 56.3848 16.8663V14.3624H58.0282V24.1893H56.3848V21.6854C56.1386 22.4562 55.647 23.1272 54.9836 23.5976C54.2664 24.091 53.4085 24.3434 52.5358 24.3179C51.7045 24.3339 50.8848 24.1233 50.1659 23.7091C49.4768 23.2997 48.919 22.7051 48.5571 21.9941C48.1448 21.1629 47.9429 20.2446 47.969 19.3187C47.9439 18.3901 48.1457 17.4693 48.5571 16.6348C48.908 15.8962 49.4667 15.2738 50.1659 14.8426C50.8797 14.4314 51.6931 14.2209 52.5185 14.2338C53.397 14.2045 54.2616 14.4572 54.9836 14.9541ZM50.5724 16.6691C49.9496 17.4049 49.6395 18.3519 49.7075 19.3101C49.6386 20.2685 49.9488 21.2158 50.5724 21.9512C50.8858 22.2729 51.2645 22.5249 51.6835 22.6904C52.1026 22.856 52.5523 22.9314 53.0029 22.9116C53.609 22.9157 54.2055 22.762 54.7328 22.4657C55.2452 22.1649 55.6595 21.7244 55.9264 21.1966C56.231 20.6145 56.3827 19.9657 56.3675 19.3101C56.3805 18.652 56.229 18.001 55.9264 17.4151C55.6619 16.8879 55.2468 16.4496 54.7328 16.1546C54.2055 15.8583 53.609 15.7045 53.0029 15.7087C52.5544 15.6872 52.1063 15.7593 51.6876 15.9203C51.269 16.0813 50.889 16.3276 50.5724 16.6433V16.6691Z" fill="white"/>
<path d="M63.7108 14.7664C64.3901 14.3751 65.1658 14.1792 65.951 14.2004V15.9754H65.4494C64.6289 15.9392 63.8213 16.1879 63.1659 16.6786C62.8521 16.9781 62.6111 17.3446 62.4612 17.7502C62.3114 18.1558 62.2566 18.5898 62.301 19.0195V24.1645H60.6576V14.3633H62.275V16.3527C62.583 15.6936 63.0831 15.1411 63.7108 14.7664Z" fill="white"/>
<path d="M74.0819 14.9554C74.7484 15.4226 75.2409 16.0947 75.4831 16.8676V10.9423H77.1264V24.1906H75.4831V21.6867C75.2432 22.4607 74.7502 23.1335 74.0819 23.5989C73.3686 24.0938 72.5129 24.3465 71.6427 24.3192C70.8173 24.332 70.0039 24.1215 69.2901 23.7104C68.6005 23.299 68.0403 22.7051 67.6727 21.9954C67.2642 21.1628 67.0626 20.2455 67.0845 19.32C67.0635 18.3918 67.2651 17.472 67.6727 16.6361C68.0337 15.9106 68.5945 15.3011 69.2901 14.8782C70.0039 14.467 70.8173 14.2565 71.6427 14.2694C72.509 14.232 73.3644 14.4726 74.0819 14.9554ZM69.6793 16.6704C69.0565 17.4062 68.7464 18.3532 68.8144 19.3114C68.7455 20.2698 69.0557 21.2171 69.6793 21.9525C69.992 22.2751 70.3706 22.5276 70.7898 22.6933C71.209 22.8589 71.659 22.9338 72.1098 22.9129C72.7159 22.917 73.3124 22.7633 73.8397 22.467C74.3546 22.1667 74.7719 21.7263 75.0419 21.1979C75.3436 20.6151 75.4923 19.9663 75.4744 19.3114C75.4901 18.6541 75.3415 18.003 75.0419 17.4164C74.7738 16.8889 74.3559 16.4507 73.8397 16.1559C73.3124 15.8596 72.7159 15.7058 72.1098 15.71C71.6612 15.688 71.213 15.7598 70.7942 15.9208C70.3755 16.0819 69.9956 16.3285 69.6793 16.6446V16.6704Z" fill="white"/>
<path d="M79.7649 10.7533C79.9979 10.5753 80.2839 10.4788 80.5781 10.4788C80.8724 10.4788 81.1583 10.5753 81.3914 10.7533C81.4924 10.8456 81.5718 10.9586 81.6241 11.0845C81.6764 11.2104 81.7003 11.3461 81.6942 11.4822C81.7015 11.617 81.678 11.7518 81.6256 11.8765C81.5732 12.0012 81.4931 12.1126 81.3914 12.2025C81.1609 12.3862 80.8739 12.4863 80.5781 12.4863C80.2823 12.4863 79.9954 12.3862 79.7649 12.2025C79.6631 12.1126 79.583 12.0012 79.5306 11.8765C79.4782 11.7518 79.4548 11.617 79.462 11.4822C79.4559 11.3461 79.4798 11.2104 79.5321 11.0845C79.5844 10.9586 79.6639 10.8456 79.7649 10.7533ZM81.3914 14.3633V24.1902H79.7476V14.3633H81.3914Z" fill="white"/>
<path d="M92.0456 15.3058C92.8076 16.1833 93.1899 17.3233 93.1095 18.4785V24.1894H91.4661V18.6243C91.5225 17.8024 91.2489 16.9918 90.705 16.3691C90.4367 16.102 90.1148 15.8939 89.7602 15.758C89.4056 15.6221 89.0261 15.5615 88.6464 15.5802C88.2451 15.5616 87.8445 15.6285 87.4715 15.7765C87.0985 15.9244 86.7618 16.1498 86.4841 16.4377C85.8865 17.158 85.595 18.0805 85.671 19.0101V24.2151H84.0276V14.3625H85.671V16.6863C85.8878 15.9358 86.3619 15.2838 87.0117 14.8427C87.673 14.41 88.451 14.1859 89.2432 14.1996C89.7626 14.1781 90.2806 14.2655 90.7635 14.4561C91.2464 14.6467 91.6833 14.9363 92.0456 15.3058Z" fill="white"/>
<path d="M102.15 14.956C102.811 15.4286 103.302 16.0987 103.551 16.8682V14.3643H105.195V24.1911H103.551V21.6873C103.305 22.4581 102.813 23.1291 102.15 23.5995C101.433 24.094 100.575 24.3465 99.7023 24.3198C98.8768 24.3326 98.0634 24.1221 97.3496 23.7109C96.6606 23.3016 96.1027 22.707 95.7408 21.996C95.3285 21.1648 95.1267 20.2465 95.1527 19.3206C95.1277 18.392 95.3294 17.4712 95.7408 16.6366C96.0972 15.9107 96.6554 15.3008 97.3496 14.8788C98.0634 14.4676 98.8768 14.2571 99.7023 14.27C100.571 14.2332 101.429 14.4736 102.15 14.956ZM97.7389 16.6709C97.116 17.4068 96.8059 18.3538 96.8739 19.312C96.805 20.2704 97.1152 21.2177 97.7389 21.9531C98.0522 22.2748 98.4309 22.5267 98.8499 22.6923C99.269 22.8579 99.7187 22.9333 100.169 22.9135C100.775 22.9176 101.372 22.7639 101.899 22.4676C102.412 22.1668 102.826 21.7262 103.093 21.1985C103.397 20.6164 103.549 19.9676 103.534 19.312C103.547 18.6539 103.395 18.0029 103.093 17.417C102.828 16.8898 102.413 16.4515 101.899 16.1565C101.372 15.8602 100.775 15.7064 100.169 15.7106C99.7208 15.6891 99.2727 15.7612 98.854 15.9222C98.4354 16.0832 98.0555 16.3295 97.7389 16.6452V16.6709Z" fill="white"/>
<path d="M109.449 10.9423V24.1906H107.805V10.9423H109.449Z" fill="white"/>
<path d="M112.105 10.7533C112.338 10.5753 112.624 10.4788 112.918 10.4788C113.213 10.4788 113.499 10.5753 113.732 10.7533C113.834 10.8452 113.914 10.9579 113.968 11.0838C114.022 11.2096 114.048 11.3456 114.043 11.4822C114.049 11.6176 114.024 11.7527 113.97 11.8773C113.916 12.0019 113.834 12.113 113.732 12.2025C113.501 12.3862 113.214 12.4863 112.918 12.4863C112.623 12.4863 112.336 12.3862 112.105 12.2025C112.003 12.1126 111.923 12.0012 111.871 11.8765C111.818 11.7518 111.795 11.617 111.802 11.4822C111.796 11.3461 111.82 11.2104 111.872 11.0845C111.925 10.9586 112.004 10.8456 112.105 10.7533ZM113.732 14.3633V24.1902H112.088V14.3633H113.732Z" fill="white"/>
<path d="M121.092 22.757V24.189H119.864C119.045 24.2508 118.232 23.9958 117.598 23.4773C117.317 23.1472 117.106 22.7647 116.977 22.3523C116.848 21.9399 116.803 21.5061 116.846 21.0763V15.777H115.367V14.3622H116.846V11.9097H118.498V14.3622H121.092V15.777H118.498V21.1106C118.446 21.5712 118.573 22.034 118.852 22.4054C119.196 22.6782 119.634 22.8046 120.072 22.757H121.092Z" fill="white"/>
<path d="M123.791 14.3627L127 22.0802L129.984 14.3627H131.809L125.918 28.8458H124.059L126.117 24.0095L121.957 14.3627H123.791Z" fill="white"/>
<path d="M133.08 24.1056L132.154 22.3992V24.1056H133.08Z" fill="#5079BB"/>
<path d="M132.165 22.249L132.161 22.2567L134.149 23.2434L134.153 23.2358L132.165 22.249Z" fill="white"/>
<path d="M134.144 22.1841H132.154V22.2527L134.144 23.2388V22.1841Z" fill="#E74336"/>
<path d="M134.144 24.1055V23.2394L132.154 22.2533V22.3905L133.08 24.1055H134.144Z" fill="#F8B90C"/>
<path d="M142.558 17.2098L142.238 15.1776L142.567 17.2012" fill="white"/>
<path d="M143.069 18.6605L145.154 18.9606V18.9521L143.069 18.6519V18.6605Z" fill="white"/>
<path d="M143.043 18.4884L145.154 17.4508V17.4422L143.043 18.4798V18.4884Z" fill="white"/>
<path d="M142.992 18.2234L145.147 14.2361H145.138L142.984 18.2148L142.992 18.2234Z" fill="white"/>
<path d="M143.087 18.9084L145.155 20.8721L143.087 18.8656" fill="white"/>
<path d="M140.734 22.3553L139.722 24.216L140.734 22.3467" fill="white"/>
<path d="M139.939 15.9078L138.217 14.2614H138.208L139.93 15.9078H139.939Z" fill="white"/>
<path d="M143.649 24.1047L143.009 20.0402L143.649 24.1047Z" fill="white"/>
<path d="M143.096 19.1576C143.097 19.4456 143.068 19.733 143.009 20.0151L143.649 24.0796H145.155V20.8726L143.087 18.9089C143.087 18.9947 143.087 19.0804 143.087 19.1576" fill="#EC7024"/>
<path d="M142.715 17.4517C142.844 17.6929 142.943 17.9493 143.009 18.2148L145.154 14.2361H143.113V16.5342C142.929 16.0244 142.634 15.5615 142.247 15.1793L142.567 17.2116C142.619 17.2886 142.665 17.3688 142.706 17.4517" fill="#E74336"/>
<path d="M142.715 20.8805C142.465 21.351 142.092 21.7453 141.633 22.021C141.365 22.1766 141.073 22.2868 140.768 22.3468L139.756 24.2161C140.471 24.1888 141.163 23.963 141.754 23.5644C142.381 23.1357 142.854 22.5199 143.104 21.8066V24.1047H143.657L143.009 20.0487C142.952 20.3481 142.85 20.6372 142.706 20.9062" fill="#F9D571"/>
<path d="M143.044 18.4807L145.155 17.4431V14.2361L143 18.2234L143.052 18.4807" fill="#6DA67E"/>
<path d="M140.06 22.4154C139.655 22.4366 139.249 22.371 138.872 22.223C138.494 22.0751 138.153 21.8482 137.872 21.558C137.759 21.437 137.655 21.3081 137.56 21.1721L135.64 22.1153C135.99 22.7361 136.497 23.2561 137.111 23.6245C137.81 24.04 138.614 24.2511 139.429 24.2333H139.723L140.735 22.3726C140.512 22.4144 140.286 22.4345 140.06 22.4326" fill="#F8B90C"/>
<path d="M140.759 22.3467L139.747 24.216L140.759 22.3467Z" fill="#EAC060"/>
<path d="M143.069 18.6513L145.154 18.9514V17.4508L143.043 18.4798V18.6513" fill="#33A553"/>
<path d="M135.51 21.8666C135.51 21.9438 135.605 22.0296 135.64 22.1067L137.561 21.1635C137.198 20.5697 137.015 19.8852 137.033 19.1913C137.032 18.7255 137.105 18.2625 137.249 17.8193L135.13 17.5106C134.991 18.0486 134.922 18.6017 134.922 19.157C134.902 20.0933 135.103 21.0213 135.51 21.8666Z" fill="#87AADA"/>
<path d="M135.632 22.0808L137.552 21.1376L135.632 22.0808Z" fill="#87AADA"/>
<path d="M143.069 18.6605C143.073 18.7405 143.073 18.8206 143.069 18.9006L145.137 20.8642V18.9606L143.069 18.6605Z" fill="#F19D6D"/>
<path d="M137.871 16.7726C138.138 16.4987 138.458 16.2814 138.812 16.1339C139.166 15.9865 139.546 15.9121 139.93 15.9151L138.2 14.2687C137.814 14.371 137.444 14.5269 137.102 14.7318C136.413 15.1394 135.858 15.7347 135.502 16.4468C135.341 16.7797 135.214 17.1271 135.121 17.4843L137.24 17.793C137.369 17.404 137.582 17.0471 137.863 16.7469" fill="#5079BB"/>
<path d="M140.059 15.9069C140.605 15.8969 141.143 16.0332 141.616 16.3013C141.986 16.5172 142.305 16.8097 142.55 17.1588L142.222 15.1351C142.073 14.9925 141.914 14.8607 141.746 14.7407C141.063 14.2845 140.251 14.0534 139.428 14.0804C139.02 14.0798 138.613 14.1287 138.217 14.2262L139.947 15.8726H140.068" fill="#E87369"/>
<path d="M149.991 11.2763L147.343 11.4393V11.4478L149.991 11.2763Z" fill="white"/>
<path d="M147.698 12.2196C147.966 12.4417 148.309 12.5551 148.658 12.5368C149.01 12.553 149.355 12.4401 149.627 12.2196C149.748 12.1122 149.845 11.9797 149.909 11.8316C149.973 11.6835 150.004 11.5233 149.999 11.3621C149.999 11.3621 149.999 11.3021 149.999 11.2763L147.352 11.4393C147.364 11.7326 147.491 12.0096 147.706 12.211" fill="#5079BB"/>
<path d="M149.637 10.5136C149.368 10.2839 149.022 10.1644 148.668 10.1791C148.316 10.163 147.972 10.2829 147.707 10.5136C147.592 10.6249 147.501 10.7584 147.44 10.9059C147.379 11.0534 147.349 11.2117 147.353 11.3711V11.4397L150 11.2767C149.994 11.132 149.958 10.9899 149.896 10.8588C149.834 10.7278 149.745 10.6104 149.637 10.5136Z" fill="#F8B90C"/>
<path d="M147.629 19.56L149.645 24.1047L147.629 19.5514V19.56Z" fill="white"/>
<path d="M149.683 18.1345L147.628 18.5334L147.63 18.5419L149.685 18.1429L149.683 18.1345Z" fill="white"/>
<path d="M147.629 17.9809L149.688 14.7825V14.7739L147.629 17.9724V17.9809Z" fill="white"/>
<path d="M149.688 18.1443L147.629 18.5473V18.9075L149.688 20.3566V18.1443Z" fill="#F9D571"/>
<path d="M147.629 19.5512L149.645 24.1045H149.688V20.3658L147.629 18.9167V19.5512Z" fill="#F8B90C"/>
<path d="M147.629 24.1047H149.645L147.629 19.56V24.1047Z" fill="#33A553"/>
<path d="M147.629 14.2353V17.9739L149.688 14.7755V14.2353H147.629Z" fill="#5079BB"/>
<path d="M149.688 14.7825L147.629 17.9809V18.5383L149.688 18.1353V14.7825Z" fill="#EC7024"/>
<path d="M7.60269 5.43649L15.145 3.02694V0L7.58539 5.45364L7.60269 5.43649Z" fill="#5079BB"/>
<path d="M15.1443 3.03558L7.57611 5.45371L7.58476 5.46228L15.1443 15.7865V3.03558Z" fill="#87AADA"/>
<path d="M15.1879 3.01837L22.7302 5.46222L22.7388 5.45364L15.1706 0V3.01837H15.1879Z" fill="#87AADA"/>
<path d="M22.7309 5.46143L15.1886 3.01758H15.1713L15.154 15.7856L22.7309 5.46143Z" fill="#5079BB"/>
<path d="M22.7669 5.47156L27.4116 11.8427L30.3178 10.908L22.7409 5.45441L22.7323 5.46298L22.7669 5.47156Z" fill="#E74336"/>
<path d="M27.4106 11.8423L22.7659 5.47977L22.7313 5.47119L15.1544 15.804L27.4106 11.8423Z" fill="#E87369"/>
<path d="M27.437 11.8839L27.4197 19.7385H27.4284L30.3181 10.9063L27.4197 11.8496L27.437 11.8839Z" fill="#E87369"/>
<path d="M27.4192 19.7395L27.4365 11.8849L27.4192 11.8506L15.1544 15.8036L27.4192 19.7395Z" fill="#E74336"/>
<path d="M22.7126 26.171L15.179 28.5805H24.5031L22.7299 26.1538L22.7126 26.171Z" fill="#F19D6D"/>
<path d="M22.7313 26.1528L15.1544 15.8115L15.1458 24.8494V28.5795H15.1803L22.714 26.17L22.7313 26.1528Z" fill="#EC7024"/>
<path d="M24.5133 28.5799H24.5306L27.4022 19.8077L22.7315 26.1446L24.5133 28.5799Z" fill="#EC7024"/>
<path d="M15.171 15.8115L22.7305 26.1443L27.4012 19.8074L27.4185 19.7731L15.171 15.8115Z" fill="#F19D6D"/>
<path d="M5.7959 28.58H15.0767L7.57767 26.1447L5.7959 28.58Z" fill="#F8B90C"/>
<path d="M15.1459 15.8109L7.5777 26.1436L15.0767 28.5789H15.1459V24.8488V15.8109Z" fill="#F9D571"/>
<path d="M7.55089 26.1356L2.90617 19.7559L2.89752 19.7644L5.78642 28.5623L7.56819 26.1356H7.55089Z" fill="#F9D571"/>
<path d="M2.9068 19.756L7.55152 26.1357H7.56882L15.1457 15.8029L2.9068 19.756Z" fill="#F8B90C"/>
<path d="M2.89896 11.8684L0.00927734 10.9423L2.88166 19.6973L2.89896 11.8684Z" fill="#33A553"/>
<path d="M15.154 15.7949L10.7255 14.3629L2.92373 11.859L2.90643 19.6879L2.91508 19.7394H2.92373L15.154 15.7949Z" fill="#76B483"/>
<path d="M2.89754 11.8264L7.58551 5.47244L7.57686 5.45529L0 10.9089V10.9175L2.89754 11.8522V11.8264Z" fill="#76B483"/>
<path d="M15.1539 15.7954L7.57707 5.46259L2.8891 11.8166V11.8423L10.6995 14.3633L15.1539 15.7954Z" fill="#33A553"/>
</svg>
