<svg width="116" height="19" viewBox="0 0 116 19" fill="none" xmlns="http://www.w3.org/2000/svg">
<path d="M10.1721 2.58001C11.197 3.35662 11.9332 4.44833 12.2653 5.68413H10.5354C10.226 4.88512 9.6765 4.19964 8.9612 3.72048C8.17632 3.20312 7.24781 2.94226 6.30584 2.97446C5.52242 2.96122 4.75139 3.16942 4.08295 3.5747C3.41183 3.99007 2.87227 4.58442 2.52606 5.28968C2.12945 6.10737 1.93383 7.00655 1.9552 7.91361C1.93778 8.80377 2.13341 9.68535 2.52606 10.4861C2.87109 11.1921 3.41091 11.7868 4.08295 12.2011C4.75139 12.6063 5.52242 12.8145 6.30584 12.8013C7.2464 12.8321 8.17364 12.5745 8.9612 12.0639C9.67709 11.5704 10.2258 10.874 10.5354 10.0659H12.2653C11.9315 11.2963 11.1953 12.382 10.1721 13.1529C9.05614 13.947 7.70438 14.3485 6.33179 14.2933C5.23075 14.3127 4.14523 14.034 3.19206 13.4873C2.2795 12.9429 1.53931 12.1556 1.05566 11.2149C0.530962 10.1841 0.266785 9.04236 0.285869 7.88788C0.26324 6.74148 0.518326 5.60642 1.02972 4.57797C1.50969 3.61529 2.26076 2.81112 3.19206 2.26274C4.14646 1.69094 5.24266 1.39401 6.35774 1.40525C7.725 1.36974 9.06583 1.78269 10.1721 2.58001Z" fill="white"/>
<path d="M20.9836 4.95408C21.6448 5.42669 22.1358 6.09683 22.3848 6.86628V4.36241H24.0282V14.1893H22.3848V11.6854C22.1386 12.4562 21.647 13.1272 20.9836 13.5976C20.2664 14.091 19.4085 14.3434 18.5358 14.3179C17.7045 14.3339 16.8848 14.1233 16.1659 13.7091C15.4768 13.2997 14.919 12.7051 14.5571 11.9941C14.1448 11.1629 13.9429 10.2446 13.969 9.31871C13.9439 8.39014 14.1457 7.46934 14.5571 6.63476C14.908 5.89616 15.4667 5.27381 16.1659 4.84261C16.8797 4.43142 17.6931 4.22094 18.5185 4.23379C19.397 4.20454 20.2616 4.45716 20.9836 4.95408V4.95408ZM16.5724 6.66906C15.9496 7.40494 15.6395 8.3519 15.7075 9.31013C15.6386 10.2685 15.9488 11.2158 16.5724 11.9512C16.8858 12.2729 17.2645 12.5249 17.6835 12.6904C18.1026 12.856 18.5523 12.9314 19.0029 12.9116C19.609 12.9157 20.2055 12.762 20.7328 12.4657C21.2452 12.1649 21.6595 11.7244 21.9264 11.1966C22.231 10.6145 22.3827 9.96572 22.3675 9.31013C22.3805 8.65204 22.229 8.00098 21.9264 7.41508C21.6619 6.88793 21.2468 6.44957 20.7328 6.15457C20.2055 5.85829 19.609 5.70452 19.0029 5.70867C18.5544 5.6872 18.1063 5.75929 17.6876 5.92029C17.269 6.08129 16.889 6.32762 16.5724 6.64334V6.66906Z" fill="white"/>
<path d="M29.7108 4.76636C30.3901 4.37513 31.1658 4.17916 31.951 4.20041V5.97542H31.4494C30.6289 5.93923 29.8213 6.1879 29.1659 6.67856C28.8521 6.97815 28.6111 7.34461 28.4612 7.75018C28.3114 8.15576 28.2566 8.58983 28.301 9.01951V14.1645H26.6576V4.36334H28.275V6.35272C28.583 5.69361 29.0831 5.14107 29.7108 4.76636V4.76636Z" fill="white"/>
<path d="M40.0819 4.95538C40.7484 5.42263 41.2409 6.09473 41.4831 6.86758V0.942322H43.1264V14.1906H41.4831V11.6867C41.2432 12.4607 40.7502 13.1335 40.0819 13.5989C39.3686 14.0938 38.5129 14.3465 37.6427 14.3192C36.8173 14.332 36.0039 14.1215 35.2901 13.7104C34.6005 13.299 34.0403 12.7051 33.6727 11.9954C33.2642 11.1628 33.0626 10.2455 33.0845 9.32001C33.0635 8.39182 33.2651 7.47195 33.6727 6.63606C34.0337 5.91056 34.5945 5.30114 35.2901 4.87821C36.0039 4.46702 36.8173 4.25654 37.6427 4.26939C38.509 4.23198 39.3644 4.47256 40.0819 4.95538V4.95538ZM35.6793 6.67036C35.0565 7.40624 34.7464 8.3532 34.8144 9.31143C34.7455 10.2698 35.0557 11.2171 35.6793 11.9525C35.992 12.2751 36.3706 12.5276 36.7898 12.6933C37.209 12.8589 37.659 12.9338 38.1098 12.9129C38.7159 12.917 39.3124 12.7633 39.8397 12.467C40.3546 12.1667 40.7719 11.7263 41.0419 11.1979C41.3436 10.6151 41.4923 9.96628 41.4744 9.31143C41.4901 8.65406 41.3415 8.00305 41.0419 7.41638C40.7738 6.88892 40.3559 6.45075 39.8397 6.15587C39.3124 5.85958 38.7159 5.70582 38.1098 5.70997C37.6612 5.68796 37.213 5.7598 36.7942 5.92083C36.3755 6.08187 35.9956 6.32848 35.6793 6.64464V6.67036Z" fill="white"/>
<path d="M45.7649 0.753297C45.9979 0.575293 46.2839 0.47876 46.5781 0.47876C46.8724 0.47876 47.1583 0.575293 47.3914 0.753297C47.4924 0.845596 47.5718 0.958647 47.6241 1.08455C47.6764 1.21044 47.7003 1.34615 47.6942 1.48216C47.7015 1.61705 47.678 1.75183 47.6256 1.87651C47.5732 2.0012 47.4931 2.1126 47.3914 2.20246C47.1609 2.38618 46.8739 2.48635 46.5781 2.48635C46.2823 2.48635 45.9954 2.38618 45.7649 2.20246C45.6631 2.1126 45.583 2.0012 45.5306 1.87651C45.4782 1.75183 45.4548 1.61705 45.462 1.48216C45.4559 1.34615 45.4798 1.21044 45.5321 1.08455C45.5844 0.958647 45.6639 0.845596 45.7649 0.753297V0.753297ZM47.3914 4.36333V14.1902H45.7476V4.36333H47.3914Z" fill="white"/>
<path d="M58.0456 5.30577C58.8076 6.1833 59.1899 7.32331 59.1095 8.47848V14.1894H57.4661V8.62425C57.5225 7.8024 57.2489 6.99176 56.705 6.36905C56.4367 6.10204 56.1148 5.89386 55.7602 5.75796C55.4056 5.62207 55.0261 5.56149 54.6464 5.58016C54.2451 5.56161 53.8445 5.62854 53.4715 5.77646C53.0985 5.92438 52.7618 6.14984 52.4841 6.43765C51.8865 7.15802 51.595 8.08052 51.671 9.01013V14.2151H50.0276V4.36252H51.671V6.68632C51.8878 5.93579 52.3619 5.28377 53.0117 4.84272C53.673 4.41005 54.451 4.18585 55.2432 4.1996C55.7626 4.1781 56.2806 4.26551 56.7635 4.45612C57.2464 4.64674 57.6833 4.93626 58.0456 5.30577Z" fill="white"/>
<path d="M68.15 4.95597C68.8112 5.42857 69.3023 6.09872 69.5512 6.86817V4.3643H71.1946V14.1911H69.5512V11.6873C69.305 12.4581 68.8134 13.1291 68.15 13.5995C67.4333 14.094 66.575 14.3465 65.7023 14.3198C64.8768 14.3326 64.0634 14.1221 63.3496 13.7109C62.6606 13.3016 62.1027 12.707 61.7408 11.996C61.3285 11.1648 61.1267 10.2465 61.1527 9.3206C61.1277 8.39203 61.3294 7.47122 61.7408 6.63665C62.0972 5.91068 62.6554 5.30078 63.3496 4.87879C64.0634 4.46761 64.8768 4.25712 65.7023 4.26997C66.5712 4.23316 67.4291 4.4736 68.15 4.95597ZM63.7389 6.67095C63.116 7.40682 62.8059 8.35378 62.8739 9.31202C62.805 10.2704 63.1152 11.2177 63.7389 11.9531C64.0522 12.2748 64.4309 12.5267 64.8499 12.6923C65.269 12.8579 65.7187 12.9333 66.1693 12.9135C66.7754 12.9176 67.3719 12.7639 67.8992 12.4676C68.4116 12.1668 68.8259 11.7262 69.0928 11.1985C69.3974 10.6164 69.5491 9.96761 69.5339 9.31202C69.5469 8.65392 69.3954 8.00287 69.0928 7.41696C68.8283 6.88982 68.4132 6.45145 67.8992 6.15645C67.3719 5.86017 66.7754 5.70641 66.1693 5.71056C65.7208 5.68908 65.2727 5.76118 64.854 5.92218C64.4354 6.08318 64.0555 6.3295 63.7389 6.64522V6.67095Z" fill="white"/>
<path d="M75.4491 0.942322V14.1906H73.8053V0.942322H75.4491Z" fill="white"/>
<path d="M78.1051 0.753297C78.3381 0.575293 78.6241 0.47876 78.9183 0.47876C79.2126 0.47876 79.4985 0.575293 79.7316 0.753297C79.8337 0.845169 79.9144 0.957933 79.9682 1.08378C80.022 1.20963 80.0475 1.34556 80.0431 1.48216C80.0487 1.61765 80.0236 1.75265 79.9697 1.87729C79.9158 2.00192 79.8344 2.11302 79.7316 2.20246C79.5011 2.38618 79.2142 2.48635 78.9183 2.48635C78.6225 2.48635 78.3356 2.38618 78.1051 2.20246C78.0033 2.1126 77.9233 2.0012 77.8709 1.87651C77.8184 1.75183 77.795 1.61705 77.8023 1.48216C77.7961 1.34615 77.8201 1.21044 77.8724 1.08455C77.9247 0.958647 78.0041 0.845596 78.1051 0.753297V0.753297ZM79.7316 4.36333V14.1902H78.0878V4.36333H79.7316Z" fill="white"/>
<path d="M87.0925 12.757V14.189H85.8643C85.0445 14.2508 84.2324 13.9958 83.5981 13.4773C83.3173 13.1472 83.106 12.7647 82.9768 12.3523C82.8475 11.9399 82.8029 11.5061 82.8456 11.0763V5.77701H81.3666V4.36215H82.8456V1.90973H84.4977V4.36215H87.0925V5.77701H84.4977V11.1106C84.4459 11.5712 84.5727 12.034 84.8523 12.4054C85.1958 12.6782 85.6344 12.8046 86.0718 12.757H87.0925Z" fill="white"/>
<path d="M89.7906 4.36273L92.9996 12.0802L95.9836 4.36273H97.8086L91.9184 18.8458H90.0588L92.1173 14.0095L87.957 4.36273H89.7906Z" fill="white"/>
<path d="M99.0799 14.1056L98.1542 12.3992V14.1056H99.0799Z" fill="#5079BB"/>
<path d="M98.1648 12.249L98.1609 12.2567L100.149 13.2434L100.153 13.2358L98.1648 12.249Z" fill="white"/>
<path d="M100.144 12.1841H98.1539V12.2527L100.144 13.2388V12.1841Z" fill="#E74336"/>
<path d="M100.144 14.1055V13.2394L98.1542 12.2533V12.3905L99.0799 14.1055H100.144Z" fill="#F8B90C"/>
<path d="M108.558 7.2098L108.238 5.17755L108.567 7.20123" fill="white"/>
<path d="M109.069 8.66052L111.154 8.96064V8.95207L109.069 8.65195V8.66052Z" fill="white"/>
<path d="M109.043 8.48837L111.154 7.45081V7.44223L109.043 8.47979V8.48837Z" fill="white"/>
<path d="M108.992 8.22342L111.147 4.23608H111.138L108.984 8.21484L108.992 8.22342Z" fill="white"/>
<path d="M109.087 8.90844L111.155 10.8721L109.087 8.86557" fill="white"/>
<path d="M106.734 12.3553L105.722 14.216L106.734 12.3467" fill="white"/>
<path d="M105.939 5.9078L104.217 4.26141H104.208L105.93 5.9078H105.939Z" fill="white"/>
<path d="M109.649 14.1047L109.009 10.0402L109.649 14.1047Z" fill="white"/>
<path d="M109.096 9.15758C109.097 9.44562 109.068 9.73303 109.009 10.0151L109.649 14.0796H111.155V10.8726L109.087 8.90891C109.087 8.99465 109.087 9.0804 109.087 9.15758" fill="#EC7024"/>
<path d="M108.715 7.45168C108.844 7.69286 108.943 7.94926 109.009 8.21484L111.154 4.23608H109.113V6.53416C108.929 6.02436 108.634 5.5615 108.247 5.17932L108.567 7.21158C108.619 7.28862 108.665 7.36882 108.706 7.45168" fill="#E74336"/>
<path d="M108.715 10.8805C108.465 11.351 108.092 11.7453 107.633 12.021C107.365 12.1766 107.073 12.2868 106.768 12.3468L105.756 14.2161C106.471 14.1888 107.163 13.963 107.754 13.5644C108.381 13.1357 108.854 12.5199 109.104 11.8066V14.1047H109.657L109.009 10.0487C108.952 10.3481 108.85 10.6372 108.706 10.9062" fill="#F9D571"/>
<path d="M109.044 8.48066L111.155 7.4431V4.23608L109 8.22342L109.052 8.48066" fill="#6DA67E"/>
<path d="M106.06 12.4154C105.655 12.4366 105.249 12.371 104.872 12.223C104.494 12.0751 104.153 11.8482 103.872 11.558C103.759 11.437 103.655 11.3081 103.56 11.1721L101.64 12.1153C101.99 12.7361 102.497 13.2561 103.111 13.6245C103.81 14.04 104.614 14.2511 105.429 14.2333H105.723L106.735 12.3726C106.512 12.4144 106.286 12.4345 106.06 12.4326" fill="#F8B90C"/>
<path d="M106.759 12.3467L105.747 14.216L106.759 12.3467Z" fill="#EAC060"/>
<path d="M109.069 8.65126L111.154 8.95138V7.45078L109.043 8.47976V8.65126" fill="#33A553"/>
<path d="M101.51 11.8666C101.51 11.9438 101.605 12.0296 101.64 12.1067L103.561 11.1635C103.198 10.5697 103.015 9.88519 103.033 9.19127C103.032 8.72552 103.105 8.26252 103.249 7.81929L101.13 7.51059C100.991 8.04865 100.922 8.60174 100.922 9.15697C100.902 10.0933 101.103 11.0213 101.51 11.8666" fill="#87AADA"/>
<path d="M101.632 12.0808L103.552 11.1376L101.632 12.0808Z" fill="#87AADA"/>
<path d="M109.069 8.66049C109.073 8.74047 109.073 8.82061 109.069 8.90059L111.137 10.8642V8.96061L109.069 8.66049Z" fill="#F19D6D"/>
<path d="M103.871 6.77261C104.138 6.49867 104.458 6.28137 104.812 6.13395C105.166 5.98653 105.546 5.91207 105.93 5.91512L104.2 4.26874C103.814 4.37105 103.444 4.52694 103.102 4.73178C102.413 5.13938 101.858 5.73472 101.502 6.44677C101.341 6.77966 101.214 7.12713 101.121 7.48433L103.24 7.79303C103.369 7.40396 103.582 7.04712 103.863 6.74689" fill="#5079BB"/>
<path d="M106.059 5.90689C106.605 5.89693 107.143 6.03321 107.616 6.30134C107.986 6.51722 108.305 6.80971 108.55 7.15883L108.222 5.13515C108.073 4.99255 107.914 4.86073 107.746 4.7407C107.063 4.28446 106.251 4.05342 105.428 4.08043C105.02 4.07975 104.613 4.12871 104.217 4.22621L105.947 5.87259H106.068" fill="#E87369"/>
<path d="M115.991 1.27634L113.343 1.43926V1.44784L115.991 1.27634Z" fill="white"/>
<path d="M113.698 2.21958C113.966 2.44171 114.309 2.55505 114.658 2.53685C115.01 2.55304 115.355 2.44006 115.627 2.21958C115.748 2.11216 115.845 1.97975 115.909 1.83163C115.973 1.68351 116.004 1.52325 115.999 1.36209C115.999 1.36209 115.999 1.30206 115.999 1.27634L113.352 1.43926C113.364 1.73256 113.491 2.00957 113.706 2.211" fill="#5079BB"/>
<path d="M115.637 0.513562C115.368 0.283947 115.022 0.164351 114.668 0.179141C114.316 0.163029 113.972 0.282931 113.707 0.513562C113.592 0.624877 113.501 0.7584 113.44 0.905884C113.379 1.05337 113.349 1.21168 113.353 1.37105V1.43965L116 1.27673C115.994 1.13196 115.958 0.989889 115.896 0.858843C115.834 0.727797 115.745 0.610411 115.637 0.513562" fill="#F8B90C"/>
<path d="M113.629 9.56L115.645 14.1047L113.629 9.55142V9.56Z" fill="white"/>
<path d="M115.683 8.13446L113.628 8.53339L113.63 8.54187L115.685 8.14295L115.683 8.13446Z" fill="white"/>
<path d="M113.629 7.98094L115.688 4.7825V4.77393L113.629 7.97237V7.98094Z" fill="white"/>
<path d="M115.688 8.14429L113.629 8.54731V8.90745L115.688 10.3566V8.14429Z" fill="#F9D571"/>
<path d="M113.629 9.55123L115.645 14.1045H115.688V10.3658L113.629 8.91669V9.55123Z" fill="#F8B90C"/>
<path d="M113.629 14.1047H115.645L113.629 9.55997V14.1047Z" fill="#33A553"/>
<path d="M113.629 4.23529V7.97395L115.688 4.77551V4.23529H113.629Z" fill="#5079BB"/>
<path d="M115.688 4.78247L113.629 7.98091V8.53828L115.688 8.13526V4.78247Z" fill="#EC7024"/>
</svg>
