<svg width="150" height="150" viewBox="0 0 150 150" fill="none" xmlns="http://www.w3.org/2000/svg">
<g clip-path="url(#clip0_4_18)">
<rect width="150" height="150" fill="white"/>
<path d="M103.934 140.475H10.6253V9.53104H103.934V41.9881L113.88 32.0397V4.55533C113.88 3.23651 113.356 1.9717 112.423 1.03915C111.491 0.106598 110.226 -0.417303 108.907 -0.417303L5.6527 -0.417303C4.3336 -0.417303 3.06847 0.1065 2.13543 1.03896C1.2024 1.97142 0.677815 3.23623 0.677002 4.55533V145.448C0.678627 146.766 1.20357 148.03 2.13652 148.962C3.06947 149.894 4.33413 150.417 5.6527 150.417H108.907C109.56 150.417 110.207 150.289 110.81 150.039C111.413 149.789 111.961 149.423 112.423 148.961C112.885 148.499 113.251 147.951 113.501 147.348C113.751 146.744 113.88 146.098 113.88 145.445V90.7181L103.934 100.663V140.475V140.475Z" fill="#2C2863"/>
<path d="M89.2707 21.4598H25.2886C24.7805 21.4454 24.2747 21.533 23.801 21.7175C23.3274 21.902 22.8955 22.1796 22.531 22.5339C22.1665 22.8881 21.8768 23.3119 21.6789 23.7802C21.4811 24.2484 21.3792 24.7515 21.3792 25.2598C21.3792 25.7681 21.4811 26.2713 21.6789 26.7395C21.8768 27.2077 22.1665 27.6315 22.531 27.9858C22.8955 28.3401 23.3274 28.6177 23.801 28.8022C24.2747 28.9866 24.7805 29.0743 25.2886 29.0598H89.2707C90.2598 29.0317 91.199 28.619 91.8887 27.9095C92.5784 27.1999 92.9643 26.2494 92.9643 25.2598C92.9643 24.2703 92.5784 23.3198 91.8887 22.6102C91.199 21.9006 90.2598 21.4879 89.2707 21.4598V21.4598Z" fill="#2C2863"/>
<path d="M93.0692 45.5321C93.0692 44.5244 92.6691 43.5579 91.9568 42.8451C91.2445 42.1322 90.2784 41.7314 89.2707 41.7305H25.2886C24.7805 41.7161 24.2747 41.8037 23.801 41.9882C23.3274 42.1727 22.8955 42.4503 22.531 42.8046C22.1665 43.1588 21.8768 43.5826 21.6789 44.0509C21.4811 44.5191 21.3792 45.0222 21.3792 45.5305C21.3792 46.0388 21.4811 46.542 21.6789 47.0102C21.8768 47.4784 22.1665 47.9022 22.531 48.2565C22.8955 48.6108 23.3274 48.8884 23.801 49.0729C24.2747 49.2573 24.7805 49.345 25.2886 49.3305H89.2707C90.2781 49.3305 91.2443 48.9303 91.9566 48.218C92.669 47.5056 93.0692 46.5395 93.0692 45.5321V45.5321Z" fill="#2C2863"/>
<path d="M83.9212 62.0012H25.2888C24.2806 62.0012 23.3137 62.4017 22.6007 63.1147C21.8878 63.8276 21.4873 64.7945 21.4873 65.8028C21.4873 66.811 21.8878 67.7779 22.6007 68.4908C23.3137 69.2038 24.2806 69.6043 25.2888 69.6043H76.3212L83.9212 62.0012Z" fill="#2C2863"/>
<path d="M62.6602 87.1986C63.1826 85.4789 63.9027 83.8256 64.8063 82.2719H25.2888C24.2806 82.2719 23.3137 82.6724 22.6007 83.3854C21.8878 84.0983 21.4873 85.0652 21.4873 86.0735C21.4873 87.0817 21.8878 88.0486 22.6007 88.7615C23.3137 89.4745 24.2806 89.875 25.2888 89.875H61.8662L62.6602 87.1986Z" fill="#2C2863"/>
<path d="M25.2888 102.543C24.2806 102.543 23.3137 102.943 22.6007 103.656C21.8878 104.369 21.4873 105.336 21.4873 106.344C21.4873 107.352 21.8878 108.319 22.6007 109.032C23.3137 109.745 24.2806 110.146 25.2888 110.146H58.6748C57.6567 107.741 57.4658 105.067 58.1321 102.543H25.2888Z" fill="#2C2863"/>
<path d="M146.892 28.37C145.906 27.3846 144.737 26.6028 143.449 26.0695C142.162 25.5362 140.782 25.2617 139.388 25.2617C137.995 25.2617 136.615 25.5362 135.327 26.0695C134.04 26.6028 132.87 27.3846 131.885 28.37L75.6438 84.6019C74.1094 86.134 72.981 88.0243 72.3604 90.1019L67.8813 105.124C67.8006 105.394 67.784 105.678 67.8328 105.955C67.8816 106.232 67.9945 106.494 68.1624 106.72C68.3304 106.946 68.5488 107.129 68.8002 107.255C69.0516 107.382 69.3291 107.448 69.6104 107.448C69.786 107.448 69.9605 107.422 70.1285 107.371L85.1476 102.898C87.2328 102.278 89.1298 101.146 90.666 99.6057L146.892 43.3768C147.877 42.3915 148.659 41.2218 149.192 39.9343C149.726 38.6469 150 37.267 150 35.8734C150 34.4799 149.726 33.1 149.192 31.8126C148.659 30.5251 147.877 29.3553 146.892 28.37V28.37Z" fill="#2C2863"/>
</g>
<defs>
<clipPath id="clip0_4_18">
<rect width="150" height="150" fill="white"/>
</clipPath>
</defs>
</svg>
