<svg xmlns="http://www.w3.org/2000/svg" width="60.784" height="65.646" viewBox="0 0 60.784 65.646">
  <g id="DOB" transform="translate(-2318 -2820.641)">
    <path id="Path_4797" data-name="Path 4797" d="M9998.962,4587.773v11.458h6.14l1-.747v-11.707Z" transform="translate(-7665 -1765)" fill="#146a5d"/>
    <path id="Path_4798" data-name="Path 4798" d="M9998.962,4587.773v11.458h6.14l1-.747v-11.707Z" transform="translate(-7644 -1765)" fill="#146a5d"/>
    <path id="Path_4796" data-name="Path 4796" d="M10001.386,4642.495v-6l1.093-2.366,3.506-3.257,4.857-1.408h5.049l4.53.9,3,1.916,1.667,3.257.44,8.5h-24.142Z" transform="translate(-7665 -1765)" fill="#146a5d"/>
    <g id="DOB-2" data-name="DOB" transform="translate(2316.147 2539.251)">
      <path id="Path_4793" data-name="Path 4793" d="M14.169,286.946a7.294,7.294,0,1,0,7.3,7.3A7.311,7.311,0,0,0,14.169,286.946Zm0,2.433a4.866,4.866,0,1,1-4.857,4.866,4.848,4.848,0,0,1,4.857-4.866Z" transform="translate(18.071 19.974)" fill="#3a3f45"/>
      <path id="Path_4794" data-name="Path 4794" d="M16.5,290.65c-5.957,0-10.946,4.267-10.946,9.726v6.083a1.216,1.216,0,0,0,1.22,1.211h24.3a1.215,1.215,0,0,0,1.22-1.211v-6.083c0-5.459-4.988-9.726-10.946-9.726Zm0,2.432h4.854c4.816,0,8.514,3.326,8.514,7.294v4.863H7.988v-4.863c0-3.968,3.7-7.294,8.514-7.294Z" transform="translate(13.315 33.289)" fill="#3a3f45"/>
      <path id="Path_4795" data-name="Path 4795" d="M39.539,281.392a1.216,1.216,0,0,0-1.22,1.22v6.072H26.168v-6.069a1.216,1.216,0,0,0-1.22-1.223H17.654a1.215,1.215,0,0,0-1.211,1.22v6.069H3.072a1.215,1.215,0,0,0-1.22,1.211v55.933a1.216,1.216,0,0,0,1.22,1.211H61.416a1.216,1.216,0,0,0,1.22-1.211V302.052q0-.061-.009-.121V289.892a1.216,1.216,0,0,0-1.22-1.211H48.045V282.61a1.216,1.216,0,0,0-1.211-1.22Zm1.213,2.431h4.862v9.728H40.752Zm-21.877,0h4.862v9.726H18.874Zm-14.589,7.29H16.443v3.647a1.215,1.215,0,0,0,1.211,1.22h7.293a1.216,1.216,0,0,0,1.22-1.22v-3.647H38.318v3.647a1.216,1.216,0,0,0,1.22,1.22h7.3a1.216,1.216,0,0,0,1.211-1.221v-3.647H60.2v9.728H4.286Zm0,12.162h55.92v41.33H4.286Z" transform="translate(0 0)" fill="#3a3f45"/>
    </g>
  </g>
</svg>
