<svg width="585" height="40" viewBox="0 0 585 40" fill="none" xmlns="http://www.w3.org/2000/svg">
<path d="M15.6016 31H0.230469V29.4766C0.582031 29.4505 1.09635 29.4115 1.77344 29.3594C2.46354 29.3073 2.9388 29.2292 3.19922 29.125C3.68099 28.9297 4.00651 28.6758 4.17578 28.3633C4.35807 28.0378 4.44922 27.6276 4.44922 27.1328V7.48438C4.44922 7.04167 4.36458 6.65104 4.19531 6.3125C4.02604 5.97396 3.69401 5.70052 3.19922 5.49219C2.88672 5.36198 2.42448 5.23177 1.8125 5.10156C1.20052 4.95833 0.673177 4.86068 0.230469 4.80859V3.28516H15.6016V4.80859C15.2109 4.84766 14.7227 4.90625 14.1367 4.98438C13.5508 5.04948 13.056 5.14714 12.6523 5.27734C12.1445 5.44661 11.806 5.71354 11.6367 6.07812C11.4674 6.42969 11.3828 6.83333 11.3828 7.28906V26.918C11.3828 27.3867 11.4674 27.7904 11.6367 28.1289C11.819 28.4544 12.1576 28.7214 12.6523 28.9297C12.9258 29.0469 13.375 29.1641 14 29.2812C14.638 29.3854 15.1719 29.4505 15.6016 29.4766V31ZM43.7656 31H32.0078V29.5742C32.2552 29.5482 32.5547 29.5156 32.9062 29.4766C33.2578 29.4375 33.5247 29.3724 33.707 29.2812C33.9805 29.138 34.1758 28.9297 34.293 28.6562C34.4102 28.3828 34.4688 27.9792 34.4688 27.4453V18.3047C34.4688 16.9766 34.2214 15.9805 33.7266 15.3164C33.2448 14.6393 32.5286 14.3008 31.5781 14.3008C31.0573 14.3008 30.569 14.3789 30.1133 14.5352C29.6706 14.6914 29.2344 14.9193 28.8047 15.2188C28.4271 15.4792 28.1211 15.7461 27.8867 16.0195C27.6654 16.293 27.4766 16.5339 27.3203 16.7422V27.2305C27.3203 27.6862 27.3854 28.0703 27.5156 28.3828C27.6458 28.6823 27.8607 28.9102 28.1602 29.0664C28.3685 29.1836 28.6289 29.2878 28.9414 29.3789C29.2539 29.4701 29.5599 29.5352 29.8594 29.5742V31H17.9844V29.5742C18.3099 29.5482 18.6354 29.5156 18.9609 29.4766C19.2995 29.4245 19.5859 29.3594 19.8203 29.2812C20.237 29.138 20.5234 28.9167 20.6797 28.6172C20.8359 28.3177 20.9141 27.9271 20.9141 27.4453V16.0781C20.9141 15.6745 20.8099 15.2773 20.6016 14.8867C20.3932 14.4961 20.1198 14.1771 19.7812 13.9297C19.5469 13.7734 19.2474 13.6432 18.8828 13.5391C18.5312 13.4349 18.1406 13.3633 17.7109 13.3242V11.8984L27.0273 11.3906L27.3203 11.6836V14.5156H27.3984C27.763 14.1901 28.2057 13.7995 28.7266 13.3438C29.2474 12.888 29.7292 12.5169 30.1719 12.2305C30.6536 11.918 31.2852 11.651 32.0664 11.4297C32.8477 11.2083 33.681 11.0977 34.5664 11.0977C36.6888 11.0977 38.2773 11.7031 39.332 12.9141C40.3997 14.112 40.9336 15.707 40.9336 17.6992V27.2695C40.9336 27.7513 41.0052 28.1354 41.1484 28.4219C41.2917 28.7083 41.5586 28.9362 41.9492 29.1055C42.1576 29.1966 42.4115 29.2878 42.7109 29.3789C43.0234 29.4701 43.375 29.5352 43.7656 29.5742V31ZM60.1328 30.1016C59.2995 30.4661 58.4076 30.7917 57.457 31.0781C56.5065 31.3776 55.3477 31.5273 53.9805 31.5273C51.9492 31.5273 50.4388 31.0326 49.4492 30.043C48.4727 29.0534 47.9844 27.6406 47.9844 25.8047V13.8125H44.4688V11.7031H48.0625V5.78516H54.4102V11.7031H59.8789V13.8125H54.4492V24.5156C54.4492 26.0391 54.6576 27.1198 55.0742 27.7578C55.5039 28.3958 56.2656 28.7148 57.3594 28.7148C57.7109 28.7148 58.1992 28.6888 58.8242 28.6367C59.4492 28.5846 59.8854 28.526 60.1328 28.4609V30.1016ZM82.4961 26.332C82.0404 27.0742 81.487 27.7773 80.8359 28.4414C80.1979 29.0924 79.4688 29.6523 78.6484 30.1211C77.776 30.6159 76.8906 30.987 75.9922 31.2344C75.1068 31.4948 74.0846 31.625 72.9258 31.625C70.9987 31.625 69.332 31.3516 67.9258 30.8047C66.5326 30.2578 65.3802 29.5221 64.4688 28.5977C63.5573 27.6732 62.8737 26.5859 62.418 25.3359C61.9753 24.0729 61.7539 22.7057 61.7539 21.2344C61.7539 19.9062 61.9948 18.6367 62.4766 17.4258C62.9714 16.2018 63.668 15.1146 64.5664 14.1641C65.4518 13.2396 66.5651 12.4909 67.9062 11.918C69.2604 11.3451 70.7708 11.0586 72.4375 11.0586C74.2604 11.0586 75.7578 11.2799 76.9297 11.7227C78.1016 12.1654 79.0716 12.7773 79.8398 13.5586C80.582 14.3008 81.1224 15.1797 81.4609 16.1953C81.7995 17.1979 81.9688 18.2526 81.9688 19.3594V20.6289H68.7656C68.7656 23.2982 69.2799 25.3294 70.3086 26.7227C71.3372 28.1159 72.9714 28.8125 75.2109 28.8125C76.4349 28.8125 77.5352 28.4805 78.5117 27.8164C79.4883 27.1393 80.3216 26.2865 81.0117 25.2578L82.4961 26.332ZM75.0352 18.9102C75.0352 18.1289 74.9961 17.3281 74.918 16.5078C74.8398 15.6875 74.7031 15.0169 74.5078 14.4961C74.2865 13.8841 73.9805 13.4219 73.5898 13.1094C73.2122 12.7969 72.7305 12.6406 72.1445 12.6406C71.1419 12.6406 70.3411 13.1484 69.7422 14.1641C69.1432 15.1797 68.8177 16.7878 68.7656 18.9883L75.0352 18.9102ZM106.266 13.8125H101.969C102.477 14.3854 102.854 14.9909 103.102 15.6289C103.362 16.2669 103.492 16.931 103.492 17.6211C103.492 18.5195 103.251 19.3659 102.77 20.1602C102.288 20.9414 101.656 21.5794 100.875 22.0742C100.081 22.582 99.1497 22.9792 98.082 23.2656C97.0143 23.5521 95.8555 23.6953 94.6055 23.6953H91.4219C91.2656 23.8125 91.0898 24.0013 90.8945 24.2617C90.7122 24.5091 90.6211 24.75 90.6211 24.9844C90.6211 25.5573 90.849 25.9544 91.3047 26.1758C91.7604 26.3971 92.5872 26.5208 93.7852 26.5469C94.9701 26.5729 96.168 26.625 97.3789 26.7031C98.5898 26.7682 99.4557 26.8073 99.9766 26.8203C100.732 26.8594 101.48 27.0156 102.223 27.2891C102.965 27.5495 103.609 27.8945 104.156 28.3242C104.755 28.7799 105.25 29.3659 105.641 30.082C106.031 30.7852 106.227 31.599 106.227 32.5234C106.227 33.513 105.986 34.444 105.504 35.3164C105.035 36.1888 104.312 36.944 103.336 37.582C102.307 38.2461 101.07 38.7604 99.625 39.125C98.1927 39.4896 96.4154 39.6719 94.293 39.6719C90.8685 39.6719 88.2643 39.2552 86.4805 38.4219C84.6966 37.5885 83.8047 36.3385 83.8047 34.6719C83.8047 33.6432 84.2865 32.7969 85.25 32.1328C86.2135 31.4688 87.7109 31.1042 89.7422 31.0391V30.8047C88.5443 30.401 87.6068 29.8672 86.9297 29.2031C86.2656 28.526 85.9336 27.7448 85.9336 26.8594C85.9336 26.3125 86.0638 25.8503 86.3242 25.4727C86.5977 25.0951 86.9427 24.763 87.3594 24.4766C87.724 24.2292 88.1667 24.0208 88.6875 23.8516C89.2083 23.6693 89.6445 23.526 89.9961 23.4219V23.207C88.2383 22.556 86.9427 21.7617 86.1094 20.8242C85.2891 19.8867 84.8789 18.7409 84.8789 17.3867C84.8789 15.4727 85.7578 13.9427 87.5156 12.7969C89.2865 11.651 91.526 11.0781 94.2344 11.0781C95.1198 11.0781 95.9727 11.1562 96.793 11.3125C97.6263 11.4557 98.2578 11.5859 98.6875 11.7031H106.266V13.8125ZM97.1055 17.543C97.1055 16.0195 96.8646 14.8151 96.3828 13.9297C95.901 13.0443 95.1589 12.6016 94.1562 12.6016C93.6484 12.6016 93.2057 12.7253 92.8281 12.9727C92.4505 13.207 92.1445 13.5521 91.9102 14.0078C91.6888 14.4505 91.5391 14.9714 91.4609 15.5703C91.3828 16.1562 91.3438 16.7617 91.3438 17.3867C91.3438 18.806 91.5911 19.9714 92.0859 20.8828C92.5807 21.7943 93.2839 22.25 94.1953 22.25C95.1328 22.25 95.849 21.8398 96.3438 21.0195C96.8516 20.1992 97.1055 19.0404 97.1055 17.543ZM100.387 33.9492C100.387 33.5065 100.263 33.0638 100.016 32.6211C99.7682 32.1914 99.2148 31.8398 98.3555 31.5664C97.8867 31.4883 97.112 31.4362 96.0312 31.4102C94.9635 31.3841 93.4922 31.3711 91.6172 31.3711C91.1615 31.7617 90.7773 32.224 90.4648 32.7578C90.1654 33.2917 90.0156 33.9362 90.0156 34.6914C90.0156 35.0169 90.1068 35.375 90.2891 35.7656C90.4714 36.1562 90.7578 36.5208 91.1484 36.8594C91.6042 37.237 92.112 37.5299 92.6719 37.7383C93.2318 37.9596 94.0781 38.0703 95.2109 38.0703C96.8906 38.0703 98.1732 37.7448 99.0586 37.0938C99.944 36.4427 100.387 35.3945 100.387 33.9492ZM126.93 15.1992C126.93 16.1888 126.624 17.0612 126.012 17.8164C125.4 18.5586 124.592 18.9297 123.59 18.9297C122.639 18.9297 121.832 18.6888 121.168 18.207C120.517 17.7253 120.191 17.0156 120.191 16.0781C120.191 15.6224 120.224 15.2708 120.289 15.0234C120.354 14.763 120.413 14.5221 120.465 14.3008C119.866 14.3268 119.234 14.5352 118.57 14.9258C117.906 15.3164 117.32 15.8372 116.812 16.4883V27.2109C116.812 27.6667 116.884 28.0443 117.027 28.3438C117.171 28.6432 117.411 28.8776 117.75 29.0469C118.036 29.1901 118.499 29.3138 119.137 29.418C119.788 29.5091 120.257 29.5612 120.543 29.5742V31H107.477V29.5742C107.802 29.5482 108.128 29.5156 108.453 29.4766C108.792 29.4245 109.078 29.3594 109.312 29.2812C109.729 29.138 110.016 28.9167 110.172 28.6172C110.328 28.3177 110.406 27.9271 110.406 27.4453V16.0781C110.406 15.6094 110.296 15.1927 110.074 14.8281C109.853 14.4505 109.586 14.151 109.273 13.9297C109.039 13.7734 108.74 13.6432 108.375 13.5391C108.023 13.4349 107.633 13.3633 107.203 13.3242V11.8984L116.52 11.3906L116.812 11.6836V14.5156H116.891C117.789 13.474 118.74 12.6602 119.742 12.0742C120.758 11.4753 121.812 11.1758 122.906 11.1758C124.117 11.1758 125.087 11.5534 125.816 12.3086C126.559 13.0508 126.93 14.0143 126.93 15.1992ZM150.621 30.5898C150.048 30.8372 149.371 31.0651 148.59 31.2734C147.809 31.4818 146.982 31.5859 146.109 31.5859C144.508 31.5859 143.329 31.3516 142.574 30.8828C141.819 30.401 141.305 29.7174 141.031 28.832H140.914C140.471 29.2747 140.042 29.6523 139.625 29.9648C139.221 30.2773 138.785 30.5443 138.316 30.7656C137.704 31.0521 137.112 31.2604 136.539 31.3906C135.979 31.5339 135.191 31.6055 134.176 31.6055C132.665 31.6055 131.376 31.1628 130.309 30.2773C129.241 29.3789 128.707 28.194 128.707 26.7227C128.707 25.8763 128.824 25.1602 129.059 24.5742C129.293 23.9753 129.625 23.4479 130.055 22.9922C130.445 22.5755 130.895 22.2305 131.402 21.957C131.923 21.6836 132.49 21.4297 133.102 21.1953C134.273 20.7656 135.68 20.3229 137.32 19.8672C138.961 19.3984 140.159 18.9818 140.914 18.6172V16.7422C140.914 16.4167 140.888 15.987 140.836 15.4531C140.784 14.9193 140.673 14.4701 140.504 14.1055C140.322 13.6888 140.035 13.3372 139.645 13.0508C139.254 12.7643 138.74 12.6211 138.102 12.6211C137.529 12.6211 137.047 12.7057 136.656 12.875C136.279 13.0312 135.973 13.194 135.738 13.3633C135.777 13.6237 135.888 14.0208 136.07 14.5547C136.253 15.0885 136.344 15.6029 136.344 16.0977C136.344 16.319 136.285 16.599 136.168 16.9375C136.051 17.263 135.882 17.5234 135.66 17.7188C135.361 17.9792 135.022 18.181 134.645 18.3242C134.28 18.4674 133.714 18.5391 132.945 18.5391C131.852 18.5391 131.025 18.2786 130.465 17.7578C129.905 17.224 129.625 16.5339 129.625 15.6875C129.625 14.9583 129.911 14.3073 130.484 13.7344C131.07 13.1484 131.78 12.6667 132.613 12.2891C133.434 11.8984 134.378 11.599 135.445 11.3906C136.513 11.1693 137.503 11.0586 138.414 11.0586C139.677 11.0586 140.836 11.1367 141.891 11.293C142.945 11.4362 143.896 11.7422 144.742 12.2109C145.549 12.6667 146.188 13.3307 146.656 14.2031C147.138 15.0625 147.379 16.1888 147.379 17.582C147.379 19.0534 147.346 20.7982 147.281 22.8164C147.229 24.8346 147.203 26.1628 147.203 26.8008C147.203 27.3867 147.288 27.849 147.457 28.1875C147.639 28.526 147.913 28.7799 148.277 28.9492C148.499 29.0534 148.844 29.1185 149.312 29.1445C149.794 29.1576 150.23 29.1641 150.621 29.1641V30.5898ZM140.914 20.4141C140.185 20.6615 139.462 20.9479 138.746 21.2734C138.03 21.5859 137.444 21.918 136.988 22.2695C136.507 22.6341 136.129 23.1029 135.855 23.6758C135.582 24.2357 135.445 24.8997 135.445 25.668C135.445 26.6836 135.673 27.4193 136.129 27.875C136.598 28.3307 137.171 28.5586 137.848 28.5586C138.564 28.5586 139.15 28.4154 139.605 28.1289C140.074 27.8294 140.484 27.4648 140.836 27.0352L140.914 20.4141ZM166.656 30.1016C165.823 30.4661 164.931 30.7917 163.98 31.0781C163.03 31.3776 161.871 31.5273 160.504 31.5273C158.473 31.5273 156.962 31.0326 155.973 30.043C154.996 29.0534 154.508 27.6406 154.508 25.8047V13.8125H150.992V11.7031H154.586V5.78516H160.934V11.7031H166.402V13.8125H160.973V24.5156C160.973 26.0391 161.181 27.1198 161.598 27.7578C162.027 28.3958 162.789 28.7148 163.883 28.7148C164.234 28.7148 164.723 28.6888 165.348 28.6367C165.973 28.5846 166.409 28.526 166.656 28.4609V30.1016ZM189.02 26.332C188.564 27.0742 188.01 27.7773 187.359 28.4414C186.721 29.0924 185.992 29.6523 185.172 30.1211C184.299 30.6159 183.414 30.987 182.516 31.2344C181.63 31.4948 180.608 31.625 179.449 31.625C177.522 31.625 175.855 31.3516 174.449 30.8047C173.056 30.2578 171.904 29.5221 170.992 28.5977C170.081 27.6732 169.397 26.5859 168.941 25.3359C168.499 24.0729 168.277 22.7057 168.277 21.2344C168.277 19.9062 168.518 18.6367 169 17.4258C169.495 16.2018 170.191 15.1146 171.09 14.1641C171.975 13.2396 173.089 12.4909 174.43 11.918C175.784 11.3451 177.294 11.0586 178.961 11.0586C180.784 11.0586 182.281 11.2799 183.453 11.7227C184.625 12.1654 185.595 12.7773 186.363 13.5586C187.105 14.3008 187.646 15.1797 187.984 16.1953C188.323 17.1979 188.492 18.2526 188.492 19.3594V20.6289H175.289C175.289 23.2982 175.803 25.3294 176.832 26.7227C177.861 28.1159 179.495 28.8125 181.734 28.8125C182.958 28.8125 184.059 28.4805 185.035 27.8164C186.012 27.1393 186.845 26.2865 187.535 25.2578L189.02 26.332ZM181.559 18.9102C181.559 18.1289 181.52 17.3281 181.441 16.5078C181.363 15.6875 181.227 15.0169 181.031 14.4961C180.81 13.8841 180.504 13.4219 180.113 13.1094C179.736 12.7969 179.254 12.6406 178.668 12.6406C177.665 12.6406 176.865 13.1484 176.266 14.1641C175.667 15.1797 175.341 16.7878 175.289 18.9883L181.559 18.9102ZM216.168 30.5898L206.539 31.1562L206.246 30.8828V29.0859L206.109 29.0469C205.471 29.737 204.605 30.3424 203.512 30.8633C202.431 31.3711 201.337 31.625 200.23 31.625C197.6 31.625 195.432 30.6484 193.727 28.6953C192.021 26.7422 191.168 24.2161 191.168 21.1172C191.168 18.3698 192.118 16.013 194.02 14.0469C195.934 12.0807 198.245 11.0977 200.953 11.0977C202.021 11.0977 203.023 11.2214 203.961 11.4688C204.898 11.7031 205.647 11.9831 206.207 12.3086V5.92188C206.207 5.4401 206.109 4.99089 205.914 4.57422C205.719 4.14453 205.458 3.8125 205.133 3.57812C204.729 3.29167 204.221 3.08984 203.609 2.97266C203.01 2.84245 202.405 2.7513 201.793 2.69922V1.27344L212.34 0.765625L212.633 1.07812V26.6836C212.633 27.1784 212.711 27.5951 212.867 27.9336C213.036 28.2721 213.303 28.5391 213.668 28.7344C213.941 28.8776 214.339 28.9818 214.859 29.0469C215.393 29.112 215.829 29.151 216.168 29.1641V30.5898ZM206.207 27.1133V16.0781C206.116 15.7786 205.986 15.4466 205.816 15.082C205.66 14.7174 205.439 14.3724 205.152 14.0469C204.892 13.7734 204.54 13.5326 204.098 13.3242C203.668 13.1159 203.18 13.0117 202.633 13.0117C201.331 13.0117 200.263 13.7474 199.43 15.2188C198.596 16.6901 198.18 18.7669 198.18 21.4492C198.18 22.5039 198.251 23.4544 198.395 24.3008C198.551 25.1341 198.818 25.8958 199.195 26.5859C199.573 27.276 200.055 27.8164 200.641 28.207C201.24 28.5977 201.956 28.793 202.789 28.793C203.583 28.793 204.241 28.6432 204.762 28.3438C205.283 28.0312 205.764 27.6211 206.207 27.1133ZM252.379 10.3555H250.895C250.517 9.30078 249.866 8.23307 248.941 7.15234C248.017 6.07161 247.099 5.43359 246.188 5.23828C245.797 5.14714 245.25 5.09505 244.547 5.08203C243.857 5.05599 243.284 5.04297 242.828 5.04297H238.805V15.7461H241.656C242.372 15.7461 243.023 15.6615 243.609 15.4922C244.195 15.3229 244.729 14.9974 245.211 14.5156C245.51 14.2161 245.81 13.6888 246.109 12.9336C246.422 12.1784 246.624 11.5208 246.715 10.9609H248.199V22.5234H246.715C246.637 21.9766 246.435 21.293 246.109 20.4727C245.797 19.6393 245.497 19.0664 245.211 18.7539C244.781 18.2852 244.273 17.9661 243.688 17.7969C243.102 17.6146 242.424 17.5234 241.656 17.5234H238.805V25.5117C238.805 26.3451 238.863 27.0091 238.98 27.5039C239.111 27.9857 239.345 28.3568 239.684 28.6172C240.009 28.8646 240.452 29.0273 241.012 29.1055C241.585 29.1836 242.359 29.2227 243.336 29.2227C243.792 29.2227 244.339 29.2161 244.977 29.2031C245.615 29.1901 246.174 29.151 246.656 29.0859C247.203 29.0208 247.711 28.9232 248.18 28.793C248.661 28.6628 249.02 28.474 249.254 28.2266C249.879 27.5885 250.582 26.6185 251.363 25.3164C252.145 24.0013 252.659 23.0182 252.906 22.3672H254.332L253.805 31H227.809V29.4766C228.173 29.4505 228.668 29.3984 229.293 29.3203C229.918 29.2422 230.361 29.151 230.621 29.0469C231.116 28.8385 231.448 28.5781 231.617 28.2656C231.786 27.9401 231.871 27.5299 231.871 27.0352V7.48438C231.871 7.01562 231.799 6.63151 231.656 6.33203C231.513 6.01953 231.168 5.73958 230.621 5.49219C230.283 5.33594 229.807 5.19271 229.195 5.0625C228.583 4.93229 228.121 4.84766 227.809 4.80859V3.28516H252.379V10.3555ZM268.355 31H256.109V29.5742C256.448 29.5482 256.773 29.5156 257.086 29.4766C257.411 29.4375 257.698 29.3724 257.945 29.2812C258.362 29.125 258.642 28.9036 258.785 28.6172C258.941 28.3177 259.02 27.9271 259.02 27.4453V5.80469C259.02 5.3099 258.915 4.85417 258.707 4.4375C258.512 4.00781 258.245 3.68229 257.906 3.46094C257.646 3.29167 257.249 3.12891 256.715 2.97266C256.194 2.81641 255.732 2.72526 255.328 2.69922V1.27344L265.152 0.765625L265.445 1.07812V27.1914C265.445 27.6732 265.53 28.0638 265.699 28.3633C265.868 28.6628 266.142 28.8971 266.52 29.0664C266.78 29.1836 267.053 29.2878 267.34 29.3789C267.626 29.4701 267.965 29.5352 268.355 29.5742V31ZM282.594 31H270.25V29.5742C270.589 29.5482 270.921 29.5156 271.246 29.4766C271.572 29.4375 271.852 29.3724 272.086 29.2812C272.503 29.125 272.796 28.9036 272.965 28.6172C273.134 28.3177 273.219 27.9271 273.219 27.4453V16.0781C273.219 15.6224 273.115 15.2253 272.906 14.8867C272.698 14.5352 272.438 14.2552 272.125 14.0469C271.891 13.8906 271.533 13.7409 271.051 13.5977C270.582 13.4544 270.152 13.3633 269.762 13.3242V11.8984L279.332 11.3906L279.625 11.6836V27.1914C279.625 27.6471 279.723 28.0378 279.918 28.3633C280.113 28.6758 280.393 28.9102 280.758 29.0664C281.018 29.1836 281.305 29.2878 281.617 29.3789C281.93 29.4701 282.255 29.5352 282.594 29.5742V31ZM279.742 4.35938C279.742 5.34896 279.358 6.19531 278.59 6.89844C277.835 7.58854 276.936 7.93359 275.895 7.93359C274.84 7.93359 273.928 7.58854 273.16 6.89844C272.405 6.19531 272.027 5.34896 272.027 4.35938C272.027 3.36979 272.405 2.52344 273.16 1.82031C273.928 1.11719 274.84 0.765625 275.895 0.765625C276.949 0.765625 277.854 1.11719 278.609 1.82031C279.365 2.52344 279.742 3.36979 279.742 4.35938ZM306.266 13.8125H301.969C302.477 14.3854 302.854 14.9909 303.102 15.6289C303.362 16.2669 303.492 16.931 303.492 17.6211C303.492 18.5195 303.251 19.3659 302.77 20.1602C302.288 20.9414 301.656 21.5794 300.875 22.0742C300.081 22.582 299.15 22.9792 298.082 23.2656C297.014 23.5521 295.855 23.6953 294.605 23.6953H291.422C291.266 23.8125 291.09 24.0013 290.895 24.2617C290.712 24.5091 290.621 24.75 290.621 24.9844C290.621 25.5573 290.849 25.9544 291.305 26.1758C291.76 26.3971 292.587 26.5208 293.785 26.5469C294.97 26.5729 296.168 26.625 297.379 26.7031C298.59 26.7682 299.456 26.8073 299.977 26.8203C300.732 26.8594 301.48 27.0156 302.223 27.2891C302.965 27.5495 303.609 27.8945 304.156 28.3242C304.755 28.7799 305.25 29.3659 305.641 30.082C306.031 30.7852 306.227 31.599 306.227 32.5234C306.227 33.513 305.986 34.444 305.504 35.3164C305.035 36.1888 304.312 36.944 303.336 37.582C302.307 38.2461 301.07 38.7604 299.625 39.125C298.193 39.4896 296.415 39.6719 294.293 39.6719C290.868 39.6719 288.264 39.2552 286.48 38.4219C284.697 37.5885 283.805 36.3385 283.805 34.6719C283.805 33.6432 284.286 32.7969 285.25 32.1328C286.214 31.4688 287.711 31.1042 289.742 31.0391V30.8047C288.544 30.401 287.607 29.8672 286.93 29.2031C286.266 28.526 285.934 27.7448 285.934 26.8594C285.934 26.3125 286.064 25.8503 286.324 25.4727C286.598 25.0951 286.943 24.763 287.359 24.4766C287.724 24.2292 288.167 24.0208 288.688 23.8516C289.208 23.6693 289.645 23.526 289.996 23.4219V23.207C288.238 22.556 286.943 21.7617 286.109 20.8242C285.289 19.8867 284.879 18.7409 284.879 17.3867C284.879 15.4727 285.758 13.9427 287.516 12.7969C289.286 11.651 291.526 11.0781 294.234 11.0781C295.12 11.0781 295.973 11.1562 296.793 11.3125C297.626 11.4557 298.258 11.5859 298.688 11.7031H306.266V13.8125ZM297.105 17.543C297.105 16.0195 296.865 14.8151 296.383 13.9297C295.901 13.0443 295.159 12.6016 294.156 12.6016C293.648 12.6016 293.206 12.7253 292.828 12.9727C292.451 13.207 292.145 13.5521 291.91 14.0078C291.689 14.4505 291.539 14.9714 291.461 15.5703C291.383 16.1562 291.344 16.7617 291.344 17.3867C291.344 18.806 291.591 19.9714 292.086 20.8828C292.581 21.7943 293.284 22.25 294.195 22.25C295.133 22.25 295.849 21.8398 296.344 21.0195C296.852 20.1992 297.105 19.0404 297.105 17.543ZM300.387 33.9492C300.387 33.5065 300.263 33.0638 300.016 32.6211C299.768 32.1914 299.215 31.8398 298.355 31.5664C297.887 31.4883 297.112 31.4362 296.031 31.4102C294.964 31.3841 293.492 31.3711 291.617 31.3711C291.161 31.7617 290.777 32.224 290.465 32.7578C290.165 33.2917 290.016 33.9362 290.016 34.6914C290.016 35.0169 290.107 35.375 290.289 35.7656C290.471 36.1562 290.758 36.5208 291.148 36.8594C291.604 37.237 292.112 37.5299 292.672 37.7383C293.232 37.9596 294.078 38.0703 295.211 38.0703C296.891 38.0703 298.173 37.7448 299.059 37.0938C299.944 36.4427 300.387 35.3945 300.387 33.9492ZM319.82 31H307.477V29.5742C307.815 29.5482 308.147 29.5156 308.473 29.4766C308.798 29.4375 309.078 29.3724 309.312 29.2812C309.729 29.125 310.022 28.9036 310.191 28.6172C310.361 28.3177 310.445 27.9271 310.445 27.4453V16.0781C310.445 15.6224 310.341 15.2253 310.133 14.8867C309.924 14.5352 309.664 14.2552 309.352 14.0469C309.117 13.8906 308.759 13.7409 308.277 13.5977C307.809 13.4544 307.379 13.3633 306.988 13.3242V11.8984L316.559 11.3906L316.852 11.6836V27.1914C316.852 27.6471 316.949 28.0378 317.145 28.3633C317.34 28.6758 317.62 28.9102 317.984 29.0664C318.245 29.1836 318.531 29.2878 318.844 29.3789C319.156 29.4701 319.482 29.5352 319.82 29.5742V31ZM316.969 4.35938C316.969 5.34896 316.585 6.19531 315.816 6.89844C315.061 7.58854 314.163 7.93359 313.121 7.93359C312.066 7.93359 311.155 7.58854 310.387 6.89844C309.632 6.19531 309.254 5.34896 309.254 4.35938C309.254 3.36979 309.632 2.52344 310.387 1.82031C311.155 1.11719 312.066 0.765625 313.121 0.765625C314.176 0.765625 315.081 1.11719 315.836 1.82031C316.591 2.52344 316.969 3.36979 316.969 4.35938ZM344.918 21.4492C344.918 24.3789 343.948 26.8073 342.008 28.7344C340.081 30.6615 337.633 31.625 334.664 31.625C333.518 31.625 332.529 31.5404 331.695 31.3711C330.875 31.2148 330.178 31.0195 329.605 30.7852C329.007 30.5378 328.525 30.2969 328.16 30.0625C327.809 29.8151 327.529 29.6133 327.32 29.457L324.527 31.9961L323.375 31.5469C323.44 30.5964 323.492 29.5677 323.531 28.4609C323.583 27.3411 323.609 25.8372 323.609 23.9492V5.66797C323.609 5.17318 323.505 4.71745 323.297 4.30078C323.102 3.87109 322.835 3.54557 322.496 3.32422C322.249 3.16797 321.884 3.03125 321.402 2.91406C320.934 2.79688 320.497 2.72526 320.094 2.69922V1.27344L329.742 0.765625L330.035 1.07812V13.7734H330.152C331.103 12.849 332.079 12.1719 333.082 11.7422C334.085 11.3125 335.087 11.0977 336.09 11.0977C338.824 11.0977 340.979 12.0286 342.555 13.8906C344.13 15.7526 344.918 18.2721 344.918 21.4492ZM337.906 21.6836C337.906 20.694 337.828 19.7435 337.672 18.832C337.529 17.9076 337.281 17.0938 336.93 16.3906C336.578 15.6875 336.116 15.1276 335.543 14.7109C334.97 14.2812 334.26 14.0664 333.414 14.0664C332.62 14.0664 331.962 14.1966 331.441 14.457C330.921 14.7174 330.452 15.1016 330.035 15.6094V26.9766C330.113 27.237 330.257 27.582 330.465 28.0117C330.686 28.4284 330.908 28.7539 331.129 28.9883C331.441 29.3268 331.773 29.5872 332.125 29.7695C332.477 29.9388 332.971 30.0234 333.609 30.0234C334.938 30.0234 335.986 29.3008 336.754 27.8555C337.522 26.3971 337.906 24.3398 337.906 21.6836ZM359.781 31H347.438V29.5742C347.776 29.5482 348.108 29.5156 348.434 29.4766C348.759 29.4375 349.039 29.3724 349.273 29.2812C349.69 29.125 349.983 28.9036 350.152 28.6172C350.322 28.3177 350.406 27.9271 350.406 27.4453V16.0781C350.406 15.6224 350.302 15.2253 350.094 14.8867C349.885 14.5352 349.625 14.2552 349.312 14.0469C349.078 13.8906 348.72 13.7409 348.238 13.5977C347.77 13.4544 347.34 13.3633 346.949 13.3242V11.8984L356.52 11.3906L356.812 11.6836V27.1914C356.812 27.6471 356.91 28.0378 357.105 28.3633C357.301 28.6758 357.581 28.9102 357.945 29.0664C358.206 29.1836 358.492 29.2878 358.805 29.3789C359.117 29.4701 359.443 29.5352 359.781 29.5742V31ZM356.93 4.35938C356.93 5.34896 356.546 6.19531 355.777 6.89844C355.022 7.58854 354.124 7.93359 353.082 7.93359C352.027 7.93359 351.116 7.58854 350.348 6.89844C349.592 6.19531 349.215 5.34896 349.215 4.35938C349.215 3.36979 349.592 2.52344 350.348 1.82031C351.116 1.11719 352.027 0.765625 353.082 0.765625C354.137 0.765625 355.042 1.11719 355.797 1.82031C356.552 2.52344 356.93 3.36979 356.93 4.35938ZM373.473 31H361.227V29.5742C361.565 29.5482 361.891 29.5156 362.203 29.4766C362.529 29.4375 362.815 29.3724 363.062 29.2812C363.479 29.125 363.759 28.9036 363.902 28.6172C364.059 28.3177 364.137 27.9271 364.137 27.4453V5.80469C364.137 5.3099 364.033 4.85417 363.824 4.4375C363.629 4.00781 363.362 3.68229 363.023 3.46094C362.763 3.29167 362.366 3.12891 361.832 2.97266C361.311 2.81641 360.849 2.72526 360.445 2.69922V1.27344L370.27 0.765625L370.562 1.07812V27.1914C370.562 27.6732 370.647 28.0638 370.816 28.3633C370.986 28.6628 371.259 28.8971 371.637 29.0664C371.897 29.1836 372.171 29.2878 372.457 29.3789C372.743 29.4701 373.082 29.5352 373.473 29.5742V31ZM387.711 31H375.367V29.5742C375.706 29.5482 376.038 29.5156 376.363 29.4766C376.689 29.4375 376.969 29.3724 377.203 29.2812C377.62 29.125 377.913 28.9036 378.082 28.6172C378.251 28.3177 378.336 27.9271 378.336 27.4453V16.0781C378.336 15.6224 378.232 15.2253 378.023 14.8867C377.815 14.5352 377.555 14.2552 377.242 14.0469C377.008 13.8906 376.65 13.7409 376.168 13.5977C375.699 13.4544 375.27 13.3633 374.879 13.3242V11.8984L384.449 11.3906L384.742 11.6836V27.1914C384.742 27.6471 384.84 28.0378 385.035 28.3633C385.23 28.6758 385.51 28.9102 385.875 29.0664C386.135 29.1836 386.422 29.2878 386.734 29.3789C387.047 29.4701 387.372 29.5352 387.711 29.5742V31ZM384.859 4.35938C384.859 5.34896 384.475 6.19531 383.707 6.89844C382.952 7.58854 382.053 7.93359 381.012 7.93359C379.957 7.93359 379.046 7.58854 378.277 6.89844C377.522 6.19531 377.145 5.34896 377.145 4.35938C377.145 3.36979 377.522 2.52344 378.277 1.82031C379.046 1.11719 379.957 0.765625 381.012 0.765625C382.066 0.765625 382.971 1.11719 383.727 1.82031C384.482 2.52344 384.859 3.36979 384.859 4.35938ZM404.039 30.1016C403.206 30.4661 402.314 30.7917 401.363 31.0781C400.413 31.3776 399.254 31.5273 397.887 31.5273C395.855 31.5273 394.345 31.0326 393.355 30.043C392.379 29.0534 391.891 27.6406 391.891 25.8047V13.8125H388.375V11.7031H391.969V5.78516H398.316V11.7031H403.785V13.8125H398.355V24.5156C398.355 26.0391 398.564 27.1198 398.98 27.7578C399.41 28.3958 400.172 28.7148 401.266 28.7148C401.617 28.7148 402.105 28.6888 402.73 28.6367C403.355 28.5846 403.792 28.526 404.039 28.4609V30.1016ZM427.477 13.0508C426.891 13.1419 426.318 13.3633 425.758 13.7148C425.211 14.0664 424.755 14.6133 424.391 15.3555C423.271 17.7253 422.118 20.2513 420.934 22.9336C419.749 25.6029 418.434 28.4935 416.988 31.6055C416.181 33.3503 415.4 34.7435 414.645 35.7852C413.889 36.8268 413.18 37.6276 412.516 38.1875C411.891 38.7083 411.272 39.0859 410.66 39.3203C410.048 39.5547 409.43 39.6719 408.805 39.6719C407.568 39.6719 406.565 39.3268 405.797 38.6367C405.042 37.9466 404.664 37.1719 404.664 36.3125C404.664 35.9479 404.703 35.6094 404.781 35.2969C404.872 34.9844 405.055 34.6589 405.328 34.3203C405.536 34.0339 405.855 33.7865 406.285 33.5781C406.728 33.3828 407.223 33.2852 407.77 33.2852C408.499 33.2852 409.195 33.5391 409.859 34.0469C410.523 34.5547 411.214 35.2578 411.93 36.1562C412.359 35.7266 412.887 35.082 413.512 34.2227C414.15 33.3763 414.618 32.5039 414.918 31.6055C413.368 28.3503 411.995 25.5312 410.797 23.1484C409.599 20.7526 408.258 18.0833 406.773 15.1406C406.448 14.5156 406.012 14.0339 405.465 13.6953C404.918 13.3438 404.339 13.1289 403.727 13.0508V11.625H415.68V13.0508C415.237 13.0638 414.723 13.1615 414.137 13.3438C413.564 13.526 413.277 13.7604 413.277 14.0469C413.277 14.151 413.297 14.2682 413.336 14.3984C413.375 14.5156 413.447 14.6914 413.551 14.9258C413.993 15.8372 414.618 17.1068 415.426 18.7344C416.246 20.349 417.197 22.2435 418.277 24.418C419.085 22.569 419.768 20.9805 420.328 19.6523C420.901 18.3112 421.454 16.9961 421.988 15.707C422.118 15.3815 422.19 15.1276 422.203 14.9453C422.229 14.75 422.242 14.6198 422.242 14.5547C422.242 14.3203 422.125 14.1185 421.891 13.9492C421.669 13.7669 421.402 13.6107 421.09 13.4805C420.764 13.3503 420.452 13.2526 420.152 13.1875C419.853 13.1224 419.605 13.0768 419.41 13.0508V11.625H427.477V13.0508ZM449.898 31.7422C448.206 31.7422 446.624 31.5339 445.152 31.1172C443.694 30.7005 442.457 30.2057 441.441 29.6328L440.094 31H438.434L438.18 20.9805H439.859C440.237 21.931 440.719 22.9336 441.305 23.9883C441.891 25.043 442.568 25.987 443.336 26.8203C444.13 27.6927 445.016 28.4023 445.992 28.9492C446.982 29.4961 448.134 29.7695 449.449 29.7695C451.22 29.7695 452.574 29.3398 453.512 28.4805C454.462 27.6081 454.938 26.5143 454.938 25.1992C454.938 24.1185 454.534 23.2135 453.727 22.4844C452.932 21.7422 451.695 21.1042 450.016 20.5703C448.922 20.2188 447.913 19.8932 446.988 19.5938C446.077 19.2943 445.217 18.9883 444.41 18.6758C442.548 17.9336 441.161 16.8724 440.25 15.4922C439.352 14.112 438.902 12.569 438.902 10.8633C438.902 9.78255 439.137 8.7474 439.605 7.75781C440.074 6.75521 440.758 5.85677 441.656 5.0625C442.516 4.32031 443.616 3.71484 444.957 3.24609C446.298 2.77734 447.757 2.54297 449.332 2.54297C450.868 2.54297 452.307 2.75781 453.648 3.1875C454.99 3.60417 456.044 4.02734 456.812 4.45703L458.004 3.28516H459.703L459.859 12.7383H458.18C457.789 11.7227 457.327 10.6875 456.793 9.63281C456.272 8.5651 455.719 7.67969 455.133 6.97656C454.495 6.22135 453.759 5.6224 452.926 5.17969C452.092 4.72396 451.116 4.49609 449.996 4.49609C448.59 4.49609 447.438 4.89323 446.539 5.6875C445.654 6.48177 445.211 7.46484 445.211 8.63672C445.211 9.74349 445.595 10.6484 446.363 11.3516C447.145 12.0547 448.355 12.6732 449.996 13.207C450.96 13.5326 451.943 13.8581 452.945 14.1836C453.948 14.5091 454.84 14.8216 455.621 15.1211C457.509 15.8503 458.941 16.8594 459.918 18.1484C460.908 19.4245 461.402 21.013 461.402 22.9141C461.402 24.112 461.122 25.2708 460.562 26.3906C460.003 27.5104 459.247 28.4414 458.297 29.1836C457.255 30.0039 456.051 30.6354 454.684 31.0781C453.316 31.5208 451.721 31.7422 449.898 31.7422ZM486.109 13.0508C485.523 13.1419 484.951 13.3633 484.391 13.7148C483.844 14.0664 483.388 14.6133 483.023 15.3555C481.904 17.7253 480.751 20.2513 479.566 22.9336C478.382 25.6029 477.066 28.4935 475.621 31.6055C474.814 33.3503 474.033 34.7435 473.277 35.7852C472.522 36.8268 471.812 37.6276 471.148 38.1875C470.523 38.7083 469.905 39.0859 469.293 39.3203C468.681 39.5547 468.062 39.6719 467.438 39.6719C466.201 39.6719 465.198 39.3268 464.43 38.6367C463.674 37.9466 463.297 37.1719 463.297 36.3125C463.297 35.9479 463.336 35.6094 463.414 35.2969C463.505 34.9844 463.688 34.6589 463.961 34.3203C464.169 34.0339 464.488 33.7865 464.918 33.5781C465.361 33.3828 465.855 33.2852 466.402 33.2852C467.132 33.2852 467.828 33.5391 468.492 34.0469C469.156 34.5547 469.846 35.2578 470.562 36.1562C470.992 35.7266 471.52 35.082 472.145 34.2227C472.783 33.3763 473.251 32.5039 473.551 31.6055C472.001 28.3503 470.628 25.5312 469.43 23.1484C468.232 20.7526 466.891 18.0833 465.406 15.1406C465.081 14.5156 464.645 14.0339 464.098 13.6953C463.551 13.3438 462.971 13.1289 462.359 13.0508V11.625H474.312V13.0508C473.87 13.0638 473.355 13.1615 472.77 13.3438C472.197 13.526 471.91 13.7604 471.91 14.0469C471.91 14.151 471.93 14.2682 471.969 14.3984C472.008 14.5156 472.079 14.6914 472.184 14.9258C472.626 15.8372 473.251 17.1068 474.059 18.7344C474.879 20.349 475.829 22.2435 476.91 24.418C477.717 22.569 478.401 20.9805 478.961 19.6523C479.534 18.3112 480.087 16.9961 480.621 15.707C480.751 15.3815 480.823 15.1276 480.836 14.9453C480.862 14.75 480.875 14.6198 480.875 14.5547C480.875 14.3203 480.758 14.1185 480.523 13.9492C480.302 13.7669 480.035 13.6107 479.723 13.4805C479.397 13.3503 479.085 13.2526 478.785 13.1875C478.486 13.1224 478.238 13.0768 478.043 13.0508V11.625H486.109V13.0508ZM495.582 31.6641C494.319 31.6641 493.082 31.4753 491.871 31.0977C490.673 30.7331 489.742 30.3424 489.078 29.9258L488.492 31.2539H486.969L486.715 23.9688H488.141C488.336 24.5547 488.661 25.2188 489.117 25.9609C489.573 26.6901 490.094 27.3477 490.68 27.9336C491.292 28.5195 491.988 29.0143 492.77 29.418C493.564 29.8216 494.41 30.0234 495.309 30.0234C496.493 30.0234 497.372 29.7956 497.945 29.3398C498.531 28.8711 498.824 28.1549 498.824 27.1914C498.824 26.6706 498.694 26.2409 498.434 25.9023C498.173 25.5638 497.815 25.2708 497.359 25.0234C496.852 24.763 496.292 24.5417 495.68 24.3594C495.081 24.1771 494.339 23.9557 493.453 23.6953C492.568 23.4349 491.806 23.1745 491.168 22.9141C490.543 22.6406 489.892 22.2174 489.215 21.6445C488.629 21.1367 488.16 20.5247 487.809 19.8086C487.457 19.0924 487.281 18.2396 487.281 17.25C487.281 15.4141 488.049 13.9297 489.586 12.7969C491.135 11.6641 493.16 11.0977 495.66 11.0977C496.845 11.0977 497.932 11.2214 498.922 11.4688C499.924 11.7031 500.764 11.9635 501.441 12.25L501.852 11.0977H503.336L503.648 17.7578H502.262C501.806 16.4036 501.025 15.2383 499.918 14.2617C498.811 13.2721 497.62 12.7773 496.344 12.7773C495.341 12.7773 494.553 12.9857 493.98 13.4023C493.408 13.819 493.121 14.3984 493.121 15.1406C493.121 16.1302 493.538 16.8464 494.371 17.2891C495.217 17.7318 496.396 18.1484 497.906 18.5391C500.237 19.138 501.943 19.9583 503.023 21C504.104 22.0286 504.645 23.3438 504.645 24.9453C504.645 27.0807 503.805 28.7344 502.125 29.9062C500.458 31.0781 498.277 31.6641 495.582 31.6641ZM521.578 30.1016C520.745 30.4661 519.853 30.7917 518.902 31.0781C517.952 31.3776 516.793 31.5273 515.426 31.5273C513.395 31.5273 511.884 31.0326 510.895 30.043C509.918 29.0534 509.43 27.6406 509.43 25.8047V13.8125H505.914V11.7031H509.508V5.78516H515.855V11.7031H521.324V13.8125H515.895V24.5156C515.895 26.0391 516.103 27.1198 516.52 27.7578C516.949 28.3958 517.711 28.7148 518.805 28.7148C519.156 28.7148 519.645 28.6888 520.27 28.6367C520.895 28.5846 521.331 28.526 521.578 28.4609V30.1016ZM543.941 26.332C543.486 27.0742 542.932 27.7773 542.281 28.4414C541.643 29.0924 540.914 29.6523 540.094 30.1211C539.221 30.6159 538.336 30.987 537.438 31.2344C536.552 31.4948 535.53 31.625 534.371 31.625C532.444 31.625 530.777 31.3516 529.371 30.8047C527.978 30.2578 526.826 29.5221 525.914 28.5977C525.003 27.6732 524.319 26.5859 523.863 25.3359C523.421 24.0729 523.199 22.7057 523.199 21.2344C523.199 19.9062 523.44 18.6367 523.922 17.4258C524.417 16.2018 525.113 15.1146 526.012 14.1641C526.897 13.2396 528.01 12.4909 529.352 11.918C530.706 11.3451 532.216 11.0586 533.883 11.0586C535.706 11.0586 537.203 11.2799 538.375 11.7227C539.547 12.1654 540.517 12.7773 541.285 13.5586C542.027 14.3008 542.568 15.1797 542.906 16.1953C543.245 17.1979 543.414 18.2526 543.414 19.3594V20.6289H530.211C530.211 23.2982 530.725 25.3294 531.754 26.7227C532.783 28.1159 534.417 28.8125 536.656 28.8125C537.88 28.8125 538.98 28.4805 539.957 27.8164C540.934 27.1393 541.767 26.2865 542.457 25.2578L543.941 26.332ZM536.48 18.9102C536.48 18.1289 536.441 17.3281 536.363 16.5078C536.285 15.6875 536.148 15.0169 535.953 14.4961C535.732 13.8841 535.426 13.4219 535.035 13.1094C534.658 12.7969 534.176 12.6406 533.59 12.6406C532.587 12.6406 531.786 13.1484 531.188 14.1641C530.589 15.1797 530.263 16.7878 530.211 18.9883L536.48 18.9102ZM584.645 31H573.004V29.5742C573.29 29.5352 573.59 29.5026 573.902 29.4766C574.215 29.4505 574.475 29.3854 574.684 29.2812C574.97 29.151 575.152 28.9362 575.23 28.6367C575.309 28.3242 575.348 27.9271 575.348 27.4453V18.3242C575.348 16.9831 575.107 15.9805 574.625 15.3164C574.156 14.6393 573.479 14.3008 572.594 14.3008C572.034 14.3008 571.533 14.3919 571.09 14.5742C570.66 14.7435 570.263 14.9583 569.898 15.2188C569.521 15.4922 569.228 15.7656 569.02 16.0391C568.811 16.3125 568.635 16.5469 568.492 16.7422V27.2305C568.492 27.6992 568.544 28.0833 568.648 28.3828C568.766 28.6693 568.974 28.8971 569.273 29.0664C569.482 29.1836 569.716 29.2878 569.977 29.3789C570.25 29.4701 570.536 29.5352 570.836 29.5742V31H559.684V29.5742C559.931 29.5482 560.23 29.5156 560.582 29.4766C560.934 29.4375 561.194 29.3724 561.363 29.2812C561.637 29.138 561.812 28.9297 561.891 28.6562C561.982 28.3828 562.027 27.9792 562.027 27.4453V18.3242C562.027 16.9831 561.786 15.9805 561.305 15.3164C560.836 14.6393 560.159 14.3008 559.273 14.3008C558.714 14.3008 558.212 14.3919 557.77 14.5742C557.34 14.7435 556.943 14.9583 556.578 15.2188C556.201 15.4922 555.908 15.7656 555.699 16.0391C555.491 16.3125 555.315 16.5469 555.172 16.7422V27.2305C555.172 27.6862 555.23 28.0638 555.348 28.3633C555.465 28.6628 555.673 28.8971 555.973 29.0664C556.181 29.1836 556.415 29.2878 556.676 29.3789C556.949 29.4701 557.236 29.5352 557.535 29.5742V31H545.836V29.5742C546.174 29.5482 546.507 29.5156 546.832 29.4766C547.158 29.4375 547.438 29.3724 547.672 29.2812C548.089 29.125 548.375 28.9036 548.531 28.6172C548.688 28.3177 548.766 27.9271 548.766 27.4453V16.0781C548.766 15.6615 548.655 15.2578 548.434 14.8672C548.212 14.4635 547.945 14.151 547.633 13.9297C547.398 13.7734 547.099 13.6432 546.734 13.5391C546.383 13.4349 545.992 13.3633 545.562 13.3242V11.8984L554.879 11.3906L555.172 11.6836V14.4375H555.25C555.615 14.112 556.044 13.7279 556.539 13.2852C557.047 12.8294 557.522 12.4648 557.965 12.1914C558.447 11.8789 559.065 11.6185 559.82 11.4102C560.576 11.2018 561.402 11.0977 562.301 11.0977C563.785 11.0977 565.022 11.4232 566.012 12.0742C567.014 12.7122 567.724 13.5651 568.141 14.6328H568.316C568.694 14.2812 569.156 13.8711 569.703 13.4023C570.25 12.9206 570.751 12.5365 571.207 12.25C571.715 11.9245 572.359 11.651 573.141 11.4297C573.935 11.2083 574.781 11.0977 575.68 11.0977C577.646 11.0977 579.156 11.6771 580.211 12.8359C581.279 13.9948 581.812 15.6419 581.812 17.7773V27.2695C581.812 27.7513 581.884 28.1419 582.027 28.4414C582.171 28.7279 582.431 28.9492 582.809 29.1055C583.017 29.1966 583.271 29.2878 583.57 29.3789C583.883 29.4701 584.241 29.5352 584.645 29.5742V31Z" fill="white"/>
</svg>
