<svg width="743" height="743" viewBox="0 0 743 743" fill="none" xmlns="http://www.w3.org/2000/svg">
<path d="M743 568.246H0V568.618H743V568.246Z" fill="#3D8479"/>
<path d="M668.551 592.156H619.335V592.528H668.551V592.156Z" fill="#3D8479"/>
<path d="M492.193 596.198H479.28V596.569H492.193V596.198Z" fill="#3D8479"/>
<path d="M617.849 578.366H589.333V578.738H617.849V578.366Z" fill="#3D8479"/>
<path d="M142.136 580.863H77.9556V581.234H142.136V580.863Z" fill="#3D8479"/>
<path d="M164.783 580.863H155.376V581.234H164.783V580.863Z" fill="#3D8479"/>
<path d="M334.573 587.133H195.365V587.505H334.573V587.133Z" fill="#3D8479"/>
<path d="M352.182 501.971H65.2502C63.0024 501.967 60.848 501.071 59.26 499.48C57.6719 497.89 56.78 495.734 56.78 493.486V90.1408C56.7996 87.9058 57.7002 85.7689 59.2861 84.1941C60.872 82.6193 63.0152 81.7338 65.2502 81.73H352.182C354.432 81.73 356.591 82.624 358.182 84.2152C359.773 85.8065 360.667 87.9647 360.667 90.2151V493.486C360.667 495.736 359.773 497.894 358.182 499.486C356.591 501.077 354.432 501.971 352.182 501.971V501.971ZM65.2502 82.0272C63.101 82.0311 61.0411 82.8877 59.5227 84.4088C58.0043 85.93 57.1515 87.9915 57.1515 90.1408V493.486C57.1515 495.635 58.0043 497.696 59.5227 499.218C61.0411 500.739 63.101 501.595 65.2502 501.599H352.182C354.333 501.595 356.394 500.739 357.915 499.219C359.436 497.698 360.292 495.636 360.296 493.486V90.1408C360.292 87.9901 359.436 85.9287 357.915 84.4079C356.394 82.8872 354.333 82.0311 352.182 82.0272H65.2502Z" fill="#3D8479"/>
<path d="M673.619 501.971H386.672C384.423 501.967 382.267 501.072 380.677 499.481C379.086 497.891 378.191 495.735 378.187 493.486V90.1408C378.21 87.9045 379.114 85.7676 380.703 84.1932C382.291 82.6188 384.436 81.7338 386.672 81.73H673.619C675.851 81.7377 677.99 82.6249 679.573 84.1993C681.156 85.7737 682.054 87.9084 682.074 90.1408V493.486C682.074 495.731 681.184 497.885 679.599 499.475C678.014 501.066 675.864 501.963 673.619 501.971V501.971ZM386.672 82.0272C384.521 82.0311 382.46 82.8872 380.939 84.4079C379.419 85.9287 378.562 87.9901 378.559 90.1408V493.486C378.562 495.636 379.419 497.698 380.939 499.219C382.46 500.739 384.521 501.595 386.672 501.599H673.619C675.769 501.595 677.831 500.739 679.351 499.219C680.872 497.698 681.728 495.636 681.732 493.486V90.1408C681.728 87.9901 680.872 85.9287 679.351 84.4079C677.831 82.8872 675.769 82.0311 673.619 82.0272H386.672Z" fill="#3D8479"/>
<path d="M284.747 148.957H144.068V465.876H284.747V148.957Z" fill="#5EAA9E"/>
<path d="M279.442 459.932V154.901H149.373L149.373 459.932H279.442Z" fill="#336860"/>
<path d="M215.901 153.37H212.914V462.904H215.901V153.37Z" fill="#5EAA9E"/>
<path d="M287.987 144.826H140.813V159.745H287.987V144.826Z" fill="#5EAA9E"/>
<path d="M287.987 161.394H140.813V163.163H287.987V161.394Z" fill="#5EAA9E"/>
<path d="M287.987 165.407H140.813V167.175H287.987V165.407Z" fill="#5EAA9E"/>
<path d="M287.987 169.419H140.813V171.187H287.987V169.419Z" fill="#5EAA9E"/>
<path d="M287.987 173.431H140.813V175.199H287.987V173.431Z" fill="#5EAA9E"/>
<path d="M287.987 177.443H140.813V179.212H287.987V177.443Z" fill="#5EAA9E"/>
<path d="M287.987 181.455H140.813V183.224H287.987V181.455Z" fill="#5EAA9E"/>
<path d="M287.987 185.468H140.813V187.236H287.987V185.468Z" fill="#5EAA9E"/>
<path d="M287.987 189.48H140.813V191.248H287.987V189.48Z" fill="#5EAA9E"/>
<path d="M287.987 193.492H140.813V195.26H287.987V193.492Z" fill="#5EAA9E"/>
<path d="M287.987 197.504H140.813V199.273H287.987V197.504Z" fill="#5EAA9E"/>
<path d="M287.987 201.516H140.813V203.285H287.987V201.516Z" fill="#5EAA9E"/>
<path d="M287.987 205.529H140.813V207.297H287.987V205.529Z" fill="#5EAA9E"/>
<path d="M287.987 209.541H140.813V211.309H287.987V209.541Z" fill="#5EAA9E"/>
<path d="M287.987 213.553H140.813V215.321H287.987V213.553Z" fill="#5EAA9E"/>
<path d="M287.987 217.565H140.813V219.334H287.987V217.565Z" fill="#5EAA9E"/>
<path d="M287.987 221.592H140.813V223.361H287.987V221.592Z" fill="#5EAA9E"/>
<path d="M287.987 225.605H140.813V227.373H287.987V225.605Z" fill="#5EAA9E"/>
<path d="M287.987 229.617H140.813V231.385H287.987V229.617Z" fill="#5EAA9E"/>
<path d="M451.298 148.957H310.619V465.876H451.298V148.957Z" fill="#5EAA9E"/>
<path d="M446.008 459.932V154.901H315.938V459.932H446.008Z" fill="#336860"/>
<path d="M382.452 153.37H379.465V462.904H382.452V153.37Z" fill="#5EAA9E"/>
<path d="M454.553 144.826H307.379V159.745H454.553V144.826Z" fill="#5EAA9E"/>
<path d="M454.553 161.394H307.379V163.163H454.553V161.394Z" fill="#5EAA9E"/>
<path d="M454.553 165.407H307.379V167.175H454.553V165.407Z" fill="#5EAA9E"/>
<path d="M454.553 169.419H307.379V171.187H454.553V169.419Z" fill="#5EAA9E"/>
<path d="M454.553 173.431H307.379V175.199H454.553V173.431Z" fill="#5EAA9E"/>
<path d="M454.553 177.443H307.379V179.212H454.553V177.443Z" fill="#5EAA9E"/>
<path d="M454.553 181.455H307.379V183.224H454.553V181.455Z" fill="#5EAA9E"/>
<path d="M454.553 185.468H307.379V187.236H454.553V185.468Z" fill="#5EAA9E"/>
<path d="M454.553 189.48H307.379V191.248H454.553V189.48Z" fill="#5EAA9E"/>
<path d="M454.553 193.492H307.379V195.26H454.553V193.492Z" fill="#5EAA9E"/>
<path d="M454.553 197.504H307.379V199.273H454.553V197.504Z" fill="#5EAA9E"/>
<path d="M454.553 201.516H307.379V203.285H454.553V201.516Z" fill="#5EAA9E"/>
<path d="M454.553 205.529H307.379V207.297H454.553V205.529Z" fill="#5EAA9E"/>
<path d="M454.553 209.541H307.379V211.309H454.553V209.541Z" fill="#5EAA9E"/>
<path d="M454.553 213.553H307.379V215.321H454.553V213.553Z" fill="#5EAA9E"/>
<path d="M454.553 217.565H307.379V219.334H454.553V217.565Z" fill="#5EAA9E"/>
<path d="M454.553 221.592H307.379V223.361H454.553V221.592Z" fill="#5EAA9E"/>
<path d="M454.553 225.605H307.379V227.373H454.553V225.605Z" fill="#5EAA9E"/>
<path d="M454.553 229.617H307.379V231.385H454.553V229.617Z" fill="#5EAA9E"/>
<path d="M617.864 148.957H477.184V465.876H617.864V148.957Z" fill="#5EAA9E"/>
<path d="M612.559 459.932V154.901H482.489V459.932H612.559Z" fill="#336860"/>
<path d="M549.018 153.37H546.031V462.904H549.018V153.37Z" fill="#5EAA9E"/>
<path d="M621.103 144.826H473.93V159.745H621.103V144.826Z" fill="#5EAA9E"/>
<path d="M621.103 161.394H473.93V163.163H621.103V161.394Z" fill="#5EAA9E"/>
<path d="M621.103 165.407H473.93V167.175H621.103V165.407Z" fill="#5EAA9E"/>
<path d="M621.103 169.419H473.93V171.187H621.103V169.419Z" fill="#5EAA9E"/>
<path d="M621.103 173.431H473.93V175.199H621.103V173.431Z" fill="#5EAA9E"/>
<path d="M621.103 177.443H473.93V179.212H621.103V177.443Z" fill="#5EAA9E"/>
<path d="M621.103 181.455H473.93V183.224H621.103V181.455Z" fill="#5EAA9E"/>
<path d="M621.103 185.468H473.93V187.236H621.103V185.468Z" fill="#5EAA9E"/>
<path d="M621.103 189.48H473.93V191.248H621.103V189.48Z" fill="#5EAA9E"/>
<path d="M621.103 193.492H473.93V195.26H621.103V193.492Z" fill="#5EAA9E"/>
<path d="M621.103 197.504H473.93V199.273H621.103V197.504Z" fill="#5EAA9E"/>
<path d="M621.103 201.516H473.93V203.285H621.103V201.516Z" fill="#5EAA9E"/>
<path d="M621.103 205.529H473.93V207.297H621.103V205.529Z" fill="#5EAA9E"/>
<path d="M621.103 209.541H473.93V211.309H621.103V209.541Z" fill="#5EAA9E"/>
<path d="M621.103 213.553H473.93V215.321H621.103V213.553Z" fill="#5EAA9E"/>
<path d="M621.103 217.565H473.93V219.334H621.103V217.565Z" fill="#5EAA9E"/>
<path d="M621.103 221.592H473.93V223.361H621.103V221.592Z" fill="#5EAA9E"/>
<path d="M621.103 225.605H473.93V227.373H621.103V225.605Z" fill="#5EAA9E"/>
<path d="M621.103 229.617H473.93V231.385H621.103V229.617Z" fill="#5EAA9E"/>
<path d="M612.009 529.12C612.009 529.12 619.528 512.7 610.939 496.517C602.35 480.335 599.839 476.53 605.322 473.202C610.805 469.873 613.317 486.16 613.317 486.16C616.034 478.81 616.315 470.782 614.119 463.26C610.315 451.551 607.923 432.471 613.124 430.435C618.325 428.399 614.119 454.211 618.652 463.038C620.966 456.854 622.464 450.395 623.11 443.824C623.734 434.417 622.753 419.394 626.869 415.59C630.985 411.785 633.616 414.401 629.574 435.16C627.144 447.561 625.802 460.151 625.561 472.786C625.561 472.786 634.477 445.562 640.496 444.76C646.514 443.957 646.44 452.784 641.343 460.437C636.246 468.09 626.319 481.776 624.7 488.835C624.7 488.835 634.507 468.343 643.319 474.628C652.131 480.914 635.637 493.278 628.296 497.751C620.955 502.223 615.843 530.249 615.843 530.249L612.009 529.12Z" fill="#418A7F"/>
<path d="M617.953 535.852C617.953 535.852 610.627 519.327 619.439 503.278C628.251 487.23 630.777 483.44 625.383 480.052C619.989 476.664 617.24 492.876 617.24 492.876C617.24 492.876 612.782 481.613 616.705 469.962C620.628 458.312 623.288 439.276 618.102 437.151C612.916 435.026 616.824 460.927 612.158 469.665C609.929 463.435 608.52 456.941 607.967 450.347C607.462 440.941 608.621 425.932 604.549 422.024C600.478 418.116 597.818 420.731 601.577 441.55C603.856 453.985 605.049 466.594 605.144 479.235C605.144 479.235 596.54 451.878 590.551 451.001C584.563 450.124 584.474 458.936 589.511 466.663C594.549 474.391 604.282 488.24 605.857 495.313C605.857 495.313 596.302 474.673 587.416 480.825C578.53 486.977 594.846 499.593 602.157 504.17C609.468 508.747 614.223 536.862 614.223 536.862L617.953 535.852Z" fill="#3D8479"/>
<path d="M584.147 524.082H644.686L639.782 567.385H589.05L584.147 524.082Z" fill="#3D8479"/>
<path d="M130.411 520.992C130.188 519.506 125.181 484.897 135.226 472.934C136.229 471.676 137.498 470.655 138.942 469.943C140.385 469.232 141.968 468.847 143.577 468.818C163.876 468.343 166.655 484.659 166.685 484.822L164.277 485.194C164.188 484.599 161.781 470.809 143.637 471.24C142.371 471.258 141.125 471.56 139.991 472.123C138.857 472.687 137.863 473.497 137.084 474.495C127.722 485.625 132.759 520.278 132.804 520.635L130.411 520.992Z" fill="#3D8479"/>
<path d="M129.193 519.416L126.771 519.342C126.771 519.015 127.573 487.423 112 480.899C96.7535 474.509 89.8882 487.646 89.6058 488.21L87.4363 487.126C87.5254 486.962 95.5647 471.389 112.936 478.67C130.04 485.833 129.282 518.049 129.193 519.416Z" fill="#3D8479"/>
<path d="M129.282 521.898C129.282 521.393 129.133 471.374 119.4 456.811C110.053 442.783 94.9554 449.381 94.3164 449.678L93.3208 447.479C93.4991 447.39 110.9 439.707 121.421 455.474C131.556 470.69 131.704 519.803 131.704 521.898H129.282Z" fill="#3D8479"/>
<path d="M146.49 470.022C146.49 470.022 137.574 473.291 140.263 481.003C142.953 488.716 170.89 501.406 170.89 501.406C170.89 501.406 182.614 490.647 171.841 473.172C161.067 455.697 146.728 464.509 146.49 470.022Z" fill="#418A7F"/>
<path d="M118.88 454.181C118.88 454.181 125.181 453.512 124.675 449.723C124.17 445.934 100.216 436.022 86.0393 451.982C86.0393 451.982 95.089 467.525 108.166 467.719C121.243 467.912 118.88 454.181 118.88 454.181Z" fill="#418A7F"/>
<path d="M112.475 479.785C112.475 479.785 116.815 476.278 112.134 474.569C107.453 472.86 84.4494 473.35 84.2117 496.116C84.2117 496.116 110.96 500.574 114.303 491.896C117.647 483.217 112.475 479.785 112.475 479.785Z" fill="#418A7F"/>
<path d="M151.245 567.385H109.682L105.209 521.898H155.733L151.245 567.385Z" fill="#3D8479"/>
<path d="M157.947 516.875H102.98V526.921H157.947V516.875Z" fill="#418A7F"/>
<path d="M371.5 635.354C530.625 635.354 659.621 627.823 659.621 618.533C659.621 609.242 530.625 601.711 371.5 601.711C212.375 601.711 83.3794 609.242 83.3794 618.533C83.3794 627.823 212.375 635.354 371.5 635.354Z" fill="#162934"/>
<path d="M473.871 292.326C473.871 292.326 473.871 306.562 469.413 312.09C464.955 317.618 441.595 329.134 441.595 329.134C441.595 329.134 427.686 329.134 426.408 329.134C425.13 329.134 421.578 335.479 421.578 335.479L427.522 342.493C427.522 342.493 444.775 339.15 443.2 334.142C443.2 334.142 466.129 325.226 472.593 320.694C479.057 316.161 483.96 296.086 483.96 296.086L473.871 292.326Z" fill="#E4897B"/>
<path d="M481.464 251.743C474.539 249.232 470.601 296.68 470.601 296.68L488.433 302.906C488.433 302.906 494.838 256.632 481.464 251.743Z" fill="#146A5D" fill-opacity="0.76"/>
<path opacity="0.4" d="M489.384 292.861C488.939 298.805 488.374 302.906 488.374 302.906L470.542 296.68C470.542 296.68 474.465 249.217 481.39 251.743C486.056 253.452 488.314 260.169 489.28 268.208C490.08 276.405 490.114 284.658 489.384 292.861Z" fill="white"/>
<path opacity="0.2" d="M489.384 292.861C481.107 283.128 486.412 265.92 486.412 265.92C487.49 266.515 488.46 267.289 489.28 268.208V268.208C490.08 276.405 490.114 284.658 489.384 292.861Z" fill="black"/>
<path d="M557.532 604.802H572.6C572.845 604.805 573.082 604.891 573.274 605.044C573.465 605.197 573.599 605.41 573.655 605.649L576.092 616.69C576.143 616.925 576.146 617.168 576.102 617.404C576.058 617.641 575.968 617.866 575.837 618.068C575.706 618.269 575.536 618.443 575.338 618.579C575.139 618.715 574.916 618.81 574.681 618.86H574.28C569.405 618.86 565.854 618.473 559.746 618.473C555.972 618.473 544.604 618.874 539.403 618.874C534.202 618.874 533.459 613.733 535.644 613.257C545.198 611.177 552.391 608.294 555.452 605.545C556.024 605.039 556.769 604.773 557.532 604.802Z" fill="#263238"/>
<path d="M493.664 604.371H508.717C508.964 604.369 509.203 604.452 509.396 604.607C509.588 604.761 509.721 604.977 509.772 605.218L512.224 616.259C512.286 616.527 512.285 616.806 512.222 617.075C512.158 617.343 512.034 617.592 511.859 617.805C511.684 618.018 511.462 618.187 511.211 618.3C510.96 618.414 510.687 618.468 510.411 618.458C505.537 618.384 501.986 618.087 495.863 618.087C492.104 618.087 480.736 618.473 475.52 618.473C470.304 618.473 469.576 613.332 471.775 612.871C481.33 610.791 488.522 607.893 491.584 605.159C492.149 604.637 492.895 604.354 493.664 604.371V604.371Z" fill="#263238"/>
<path opacity="0.1" d="M557.532 604.802H572.6C572.845 604.805 573.082 604.891 573.274 605.044C573.465 605.197 573.599 605.41 573.655 605.649L576.092 616.69C576.143 616.925 576.146 617.168 576.102 617.404C576.058 617.641 575.968 617.866 575.837 618.068C575.706 618.269 575.536 618.443 575.338 618.579C575.139 618.715 574.916 618.81 574.681 618.86H574.28C569.405 618.86 565.854 618.473 559.746 618.473C555.972 618.473 544.604 618.874 539.403 618.874C534.202 618.874 533.459 613.733 535.644 613.257C545.198 611.177 552.391 608.294 555.452 605.545C556.024 605.039 556.769 604.773 557.532 604.802Z" fill="white"/>
<path opacity="0.1" d="M493.664 604.371H508.717C508.964 604.369 509.203 604.452 509.396 604.607C509.588 604.761 509.721 604.977 509.772 605.218L512.224 616.259C512.286 616.527 512.285 616.806 512.222 617.075C512.158 617.343 512.034 617.592 511.859 617.805C511.684 618.018 511.462 618.187 511.211 618.3C510.96 618.414 510.687 618.468 510.411 618.458C505.537 618.384 501.986 618.087 495.863 618.087C492.104 618.087 480.736 618.473 475.52 618.473C470.304 618.473 469.576 613.332 471.775 612.871C481.33 610.791 488.522 607.893 491.584 605.159C492.149 604.637 492.895 604.354 493.664 604.371V604.371Z" fill="white"/>
<path d="M565.527 325.568H499.712C493.456 359.746 473.871 498.464 487.928 606.184H510.218C510.218 606.184 508.212 442.59 527.812 389.718C530.071 417.952 553.074 606.08 553.074 606.08H575.751C575.751 606.08 572.363 535.332 568.96 468.506C566.835 426.482 565.616 334.216 565.527 325.568Z" fill="#146A5D" fill-opacity="0.76"/>
<path opacity="0.2" d="M565.527 325.568H499.712C493.456 359.746 473.871 498.464 487.928 606.184H510.218C510.218 606.184 508.212 442.59 527.812 389.718C530.071 417.952 553.074 606.08 553.074 606.08H575.751C575.751 606.08 572.363 535.332 568.96 468.506C566.835 426.482 565.616 334.216 565.527 325.568Z" fill="white"/>
<path opacity="0.2" d="M527.797 389.733C524.565 398.999 522.11 408.517 520.457 418.19C518.614 393.017 526.044 366.314 526.044 366.314L527.797 389.733Z" fill="black"/>
<path d="M565.705 327.633L498.315 329.402C500.188 290.766 481.969 266.38 479.651 254.522C479.483 253.701 479.644 252.847 480.1 252.144C480.556 251.44 481.27 250.944 482.088 250.762C485.432 250.034 488.864 249.41 492.342 248.875C508.013 246.653 523.828 245.59 539.656 245.695C546.67 245.695 545.124 245.903 545.124 245.903C557.012 255.235 566.389 306.265 565.705 327.633Z" fill="#146A5D" fill-opacity="0.76"/>
<path opacity="0.4" d="M565.705 327.633L498.315 329.402C500.188 290.766 481.969 266.38 479.651 254.522C479.483 253.701 479.644 252.847 480.1 252.144C480.556 251.44 481.27 250.944 482.088 250.762C485.432 250.034 488.864 249.41 492.342 248.875C508.013 246.653 523.828 245.59 539.656 245.695C546.67 245.695 545.124 245.903 545.124 245.903C557.012 255.235 566.389 306.265 565.705 327.633Z" fill="white"/>
<path d="M524.305 247.954C522.819 256.796 508.896 265.652 508.896 265.652C508.896 265.652 501.748 257.762 501.168 251.743C502.058 250.872 502.81 249.87 503.397 248.771C503.841 247.971 504.072 247.071 504.066 246.156C503.899 244.435 503.335 242.777 502.417 241.312C501.931 240.445 501.39 239.611 500.797 238.815L510.5 226.778L512.729 224C512.833 224.832 512.967 225.753 513.131 226.719C513.518 228.878 514.014 231.015 514.617 233.124C516.311 239.335 519.327 245.725 524.305 247.954Z" fill="#E4897B"/>
<path opacity="0.2" d="M514.557 233.139C514.067 239.083 511.838 247.3 503.397 248.786C503.841 247.986 504.072 247.086 504.066 246.171C503.899 244.45 503.335 242.791 502.417 241.326C501.931 240.46 501.39 239.626 500.797 238.83L510.5 226.793C511.347 226.793 512.239 226.793 513.131 226.793C513.5 228.931 513.976 231.049 514.557 233.139V233.139Z" fill="black"/>
<path d="M475.297 202.2C475.297 202.2 475.074 218.992 484.674 224.119C494.273 229.245 490.053 198.619 490.053 198.619L475.297 202.2Z" fill="#263238"/>
<path d="M483.916 233.941C484.227 234.453 484.564 234.949 484.926 235.427C486.185 237.102 487.754 238.52 489.548 239.603C491.366 240.727 493.384 241.489 495.492 241.846C499.278 242.527 503.181 241.774 506.444 239.736C508.761 238.252 510.627 236.16 511.838 233.688C515.761 226.065 513.502 219.393 510.575 207.817C509.933 205.103 508.608 202.599 506.725 200.542C504.842 198.485 502.465 196.944 499.818 196.065C497.172 195.186 494.344 194.999 491.605 195.522C488.866 196.044 486.306 197.259 484.169 199.05C474.45 207.104 478.239 224.49 483.916 233.941Z" fill="#E4897B"/>
<path d="M494.303 216.466C494.645 217.357 494.303 218.293 493.723 218.487C493.144 218.68 492.401 218.071 492.089 217.149C491.777 216.228 492.089 215.321 492.668 215.128C493.248 214.935 493.991 215.47 494.303 216.466Z" fill="#263238"/>
<path d="M483.827 219.779C483.921 219.95 483.982 220.138 484.004 220.332C484.026 220.526 484.01 220.722 483.956 220.91C483.902 221.098 483.812 221.273 483.69 221.426C483.569 221.578 483.418 221.706 483.247 221.8C482.653 221.994 481.925 221.384 481.627 220.463C481.33 219.542 481.627 218.635 482.192 218.442C482.757 218.249 483.544 218.903 483.827 219.779Z" fill="#263238"/>
<path d="M487.289 219.185C487.084 222.364 486.439 225.5 485.372 228.502C486.154 228.761 486.983 228.843 487.8 228.743C488.617 228.642 489.402 228.362 490.098 227.923L487.289 219.185Z" fill="#DE5753"/>
<path d="M478.492 216.525C478.594 216.546 478.699 216.54 478.797 216.509C478.896 216.478 478.986 216.422 479.057 216.347C479.509 215.792 480.084 215.35 480.736 215.056C481.389 214.762 482.101 214.624 482.816 214.653C482.966 214.672 483.118 214.632 483.237 214.54C483.357 214.448 483.436 214.312 483.455 214.162C483.475 214.013 483.434 213.861 483.342 213.741C483.25 213.621 483.115 213.543 482.965 213.523C482.062 213.465 481.157 213.623 480.327 213.985C479.498 214.347 478.766 214.902 478.195 215.604C478.142 215.655 478.1 215.716 478.072 215.784C478.043 215.851 478.029 215.924 478.029 215.998C478.029 216.071 478.043 216.144 478.072 216.211C478.1 216.279 478.142 216.34 478.195 216.391V216.391C478.277 216.467 478.381 216.513 478.492 216.525V216.525Z" fill="#263238"/>
<path d="M495.046 211.621C495.154 211.579 495.247 211.507 495.314 211.413C495.343 211.345 495.359 211.272 495.36 211.197C495.361 211.123 495.347 211.049 495.319 210.98C495.292 210.911 495.251 210.848 495.199 210.795C495.147 210.742 495.085 210.699 495.016 210.67V210.67C494.188 210.296 493.282 210.127 492.374 210.176C491.466 210.225 490.584 210.491 489.801 210.953C489.739 210.994 489.686 211.048 489.645 211.11C489.604 211.172 489.576 211.242 489.562 211.315C489.548 211.389 489.549 211.464 489.565 211.537C489.58 211.61 489.61 211.679 489.652 211.74V211.74C489.694 211.802 489.747 211.855 489.81 211.896C489.872 211.936 489.942 211.965 490.015 211.978C490.088 211.992 490.163 211.991 490.236 211.976C490.309 211.961 490.378 211.931 490.44 211.889V211.889C491.069 211.545 491.769 211.351 492.486 211.323C493.203 211.294 493.916 211.432 494.571 211.725C494.653 211.746 494.738 211.747 494.82 211.729C494.903 211.711 494.98 211.674 495.046 211.621V211.621Z" fill="#263238"/>
<path d="M497.721 196.271L498.449 201.516C499.415 201.701 500.277 202.242 500.863 203.032C501.449 203.822 501.717 204.803 501.614 205.781C501.109 210.492 505.285 216.48 509.267 218.264C509.267 218.264 508.881 216.376 510.56 216.406C512.239 216.436 514.364 226.199 512.536 231.608C512.536 231.608 516.043 226.229 515.969 215.411C515.895 205.395 514.126 197.504 511.243 194.399L497.721 196.271Z" fill="#263238"/>
<path d="M518.48 215.574C518.033 218.542 516.431 221.213 514.022 223.004C510.812 225.337 507.811 222.796 507.528 219.036C507.306 215.678 508.673 210.328 512.477 209.511C516.281 208.694 518.985 211.918 518.48 215.574Z" fill="#E4897B"/>
<path d="M493.352 233.495C493.262 233.496 493.176 233.462 493.11 233.401C493.044 233.341 493.003 233.258 492.995 233.168C492.987 233.12 492.989 233.07 493.001 233.023C493.013 232.975 493.036 232.931 493.067 232.893C493.098 232.855 493.137 232.824 493.181 232.802C493.225 232.78 493.273 232.768 493.322 232.767C494.39 232.647 495.368 232.113 496.046 231.279C496.724 230.445 497.048 229.379 496.948 228.309C496.944 228.26 496.95 228.211 496.965 228.164C496.98 228.118 497.004 228.075 497.035 228.037C497.067 228 497.106 227.969 497.15 227.947C497.193 227.925 497.241 227.912 497.29 227.908C497.388 227.903 497.483 227.936 497.558 228C497.632 228.063 497.68 228.152 497.691 228.25C497.691 228.25 497.944 233.049 493.397 233.51L493.352 233.495Z" fill="#263238"/>
<path d="M512.67 196.509C512.67 196.509 512.091 189.51 500.188 187.191C488.285 184.873 478.433 193.968 470.2 191.427C461.968 188.885 466.797 207.342 482.326 205.291C492.778 203.686 502.977 200.734 512.67 196.509V196.509Z" fill="#263238"/>
<path opacity="0.2" d="M538.081 261.803C538.081 261.803 532.419 287.571 530.398 295.506C526.341 311.57 506.845 328.302 506.845 328.302C506.845 328.302 519 325.464 531.78 323.294C547.606 320.619 562.436 298.805 553.565 269.798L538.081 261.803Z" fill="black"/>
<path d="M537.605 286.486C537.605 286.486 537.605 300.722 533.147 306.25C528.689 311.778 505.24 323.294 505.24 323.294H490.098C488.82 323.294 485.268 329.639 485.268 329.639L491.212 336.653C491.212 336.653 508.465 333.31 506.889 328.302C506.889 328.302 529.818 319.386 536.283 314.854C542.747 310.321 547.65 290.246 547.65 290.246L537.605 286.486Z" fill="#E4897B"/>
<path d="M545.124 245.903C538.2 243.377 534.276 290.84 534.276 290.84L552.108 297.066C552.108 297.066 558.528 250.777 545.124 245.903Z" fill="#146A5D" fill-opacity="0.76"/>
<path opacity="0.4" d="M545.124 245.903C538.2 243.377 534.276 290.84 534.276 290.84L552.108 297.066C552.108 297.066 558.528 250.777 545.124 245.903Z" fill="white"/>
<path d="M364.07 618.874C332.299 618.874 306.458 587.208 306.458 548.275C306.458 509.341 332.299 477.69 364.07 477.69C395.841 477.69 421.667 509.356 421.667 548.275C421.667 587.193 395.766 618.874 364.07 618.874ZM364.07 485.134C336.401 485.134 313.888 513.472 313.888 548.289C313.888 583.106 336.401 611.459 364.07 611.459C391.739 611.459 414.178 583.106 414.178 548.334C414.178 513.562 391.68 485.12 364.07 485.12V485.134Z" fill="#2E353A"/>
<path d="M364.07 484.436C335.985 484.436 313.145 513.101 313.145 548.334C313.145 583.567 335.985 612.232 364.07 612.232C392.155 612.232 414.98 583.567 414.98 548.334C414.98 513.101 392.081 484.436 364.07 484.436ZM374.472 537.263L394.934 511.184C398.236 515.928 400.815 521.137 402.587 526.638L376.047 540.414C375.622 539.316 375.095 538.262 374.472 537.263V537.263ZM365.556 530.903V493.352C370.391 493.592 375.117 494.88 379.406 497.126L368.023 531.572C367.23 531.252 366.402 531.028 365.556 530.903V530.903ZM362.584 530.903C361.801 531.012 361.033 531.211 360.296 531.498L349.21 496.8C353.377 494.727 357.934 493.552 362.584 493.352V530.903ZM352.108 540.116L325.731 525.851C327.505 520.618 330.007 515.661 333.161 511.125L353.594 537.263C353.001 538.17 352.484 539.125 352.048 540.116H352.108ZM351.172 542.999C350.868 544.242 350.679 545.511 350.607 546.789H322.031C322.135 540.676 323.049 534.605 324.75 528.734L351.172 542.999ZM350.547 549.82C350.622 551.02 350.791 552.213 351.053 553.386L324.528 567.162C322.969 561.509 322.13 555.683 322.031 549.82H350.547ZM351.959 556.269C352.359 557.343 352.856 558.377 353.445 559.36L333.072 585.484C329.776 580.736 327.198 575.529 325.419 570.03L351.959 556.269ZM362.525 565.72V603.286C357.684 603.048 352.953 601.76 348.66 599.512L360.043 565.066C360.863 565.365 361.716 565.565 362.584 565.661L362.525 565.72ZM365.497 565.72C366.273 565.603 367.035 565.403 367.77 565.126L378.767 599.809C374.63 601.871 370.112 603.055 365.497 603.286V565.72ZM375.899 556.492L402.29 570.773C400.515 576.005 398.014 580.962 394.86 585.499L374.472 559.301C375.047 558.388 375.544 557.429 375.958 556.433L375.899 556.492ZM376.835 553.624C377.147 552.376 377.351 551.103 377.444 549.82H405.975C405.873 555.937 404.958 562.013 403.256 567.89L376.835 553.624ZM377.444 546.848C377.356 545.653 377.182 544.466 376.924 543.296L403.449 529.521C405.016 535.168 405.865 540.989 405.975 546.848H377.444ZM393.062 508.717L372.6 534.886C371.988 534.22 371.311 533.618 370.579 533.088L381.961 498.657C386.212 501.334 389.976 504.716 393.092 508.658L393.062 508.717ZM346.55 498.315L357.532 532.954C356.738 533.52 356.006 534.168 355.347 534.886L334.915 508.658C338.155 504.525 342.105 501.003 346.58 498.256L346.55 498.315ZM334.885 587.966L355.377 561.708C355.989 562.374 356.666 562.976 357.398 563.506L346.015 597.937C341.772 595.248 338.019 591.856 334.915 587.906L334.885 587.966ZM381.397 598.368L370.415 563.744C371.209 563.178 371.941 562.53 372.6 561.812L393.062 587.98C389.828 592.083 385.888 595.575 381.426 598.293L381.397 598.368Z" fill="#146A5D" fill-opacity="0.76"/>
<g opacity="0.2">
<path d="M364.07 484.436C335.985 484.436 313.145 513.101 313.145 548.334C313.145 583.567 335.985 612.232 364.07 612.232C392.155 612.232 414.98 583.567 414.98 548.334C414.98 513.101 392.081 484.436 364.07 484.436ZM374.472 537.263L394.934 511.184C398.236 515.928 400.815 521.137 402.587 526.638L376.047 540.414C375.622 539.316 375.095 538.262 374.472 537.263V537.263ZM365.556 530.903V493.352C370.391 493.592 375.117 494.88 379.406 497.126L368.023 531.572C367.23 531.252 366.402 531.028 365.556 530.903V530.903ZM362.584 530.903C361.801 531.012 361.033 531.211 360.296 531.498L349.21 496.8C353.377 494.727 357.934 493.552 362.584 493.352V530.903ZM352.108 540.116L325.731 525.851C327.505 520.618 330.007 515.661 333.161 511.125L353.594 537.263C353.001 538.17 352.484 539.125 352.048 540.116H352.108ZM351.172 542.999C350.868 544.242 350.679 545.511 350.607 546.789H322.031C322.135 540.676 323.049 534.605 324.75 528.734L351.172 542.999ZM350.547 549.82C350.622 551.02 350.791 552.213 351.053 553.386L324.528 567.162C322.969 561.509 322.13 555.683 322.031 549.82H350.547ZM351.959 556.269C352.359 557.343 352.856 558.377 353.445 559.36L333.072 585.484C329.776 580.736 327.198 575.529 325.419 570.03L351.959 556.269ZM362.525 565.72V603.286C357.684 603.048 352.953 601.76 348.66 599.512L360.043 565.066C360.863 565.365 361.716 565.565 362.584 565.661L362.525 565.72ZM365.497 565.72C366.273 565.603 367.035 565.403 367.77 565.126L378.767 599.809C374.63 601.871 370.112 603.055 365.497 603.286V565.72ZM375.899 556.492L402.29 570.773C400.515 576.005 398.014 580.962 394.86 585.499L374.472 559.301C375.047 558.388 375.544 557.429 375.958 556.433L375.899 556.492ZM376.835 553.624C377.147 552.376 377.351 551.103 377.444 549.82H405.975C405.873 555.937 404.958 562.013 403.256 567.89L376.835 553.624ZM377.444 546.848C377.356 545.653 377.182 544.466 376.924 543.296L403.449 529.521C405.016 535.168 405.865 540.989 405.975 546.848H377.444ZM393.062 508.717L372.6 534.886C371.988 534.22 371.311 533.618 370.579 533.088L381.961 498.657C386.212 501.334 389.976 504.716 393.092 508.658L393.062 508.717ZM346.55 498.315L357.532 532.954C356.738 533.52 356.006 534.168 355.347 534.886L334.915 508.658C338.155 504.525 342.105 501.003 346.58 498.256L346.55 498.315ZM334.885 587.966L355.377 561.708C355.989 562.374 356.666 562.976 357.398 563.506L346.015 597.937C341.772 595.248 338.019 591.856 334.915 587.906L334.885 587.966ZM381.397 598.368L370.415 563.744C371.209 563.178 371.941 562.53 372.6 561.812L393.062 587.98C389.828 592.083 385.888 595.575 381.426 598.293L381.397 598.368Z" fill="black"/>
</g>
<path d="M402.706 478.611H344.945C341.691 478.615 338.571 479.909 336.27 482.21C333.969 484.511 332.675 487.631 332.671 490.885V586.851C332.671 588.309 332.092 589.708 331.06 590.739C330.029 591.77 328.631 592.349 327.173 592.349H309.088C308.3 592.349 307.544 592.662 306.986 593.22C306.429 593.777 306.116 594.533 306.116 595.321C306.116 596.11 306.429 596.865 306.986 597.423C307.544 597.98 308.3 598.293 309.088 598.293H327.113C330.145 598.285 333.051 597.077 335.195 594.933C337.339 592.789 338.548 589.883 338.555 586.851V551.306H402.706C403.494 551.306 404.25 550.993 404.807 550.436C405.365 549.878 405.678 549.122 405.678 548.334V481.583C405.678 480.795 405.365 480.039 404.807 479.481C404.25 478.924 403.494 478.611 402.706 478.611ZM399.734 545.362H338.615V490.885C338.615 489.206 339.282 487.596 340.469 486.409C341.656 485.222 343.266 484.555 344.945 484.555H399.734V545.362Z" fill="#2E353A"/>
<path opacity="0.3" d="M402.706 478.611H344.945C341.691 478.615 338.571 479.909 336.27 482.21C333.969 484.511 332.675 487.631 332.671 490.885V586.851C332.671 588.309 332.092 589.708 331.06 590.739C330.029 591.77 328.631 592.349 327.173 592.349H309.088C308.3 592.349 307.544 592.662 306.986 593.22C306.429 593.777 306.116 594.533 306.116 595.321C306.116 596.11 306.429 596.865 306.986 597.423C307.544 597.98 308.3 598.293 309.088 598.293H327.113C330.145 598.285 333.051 597.077 335.195 594.933C337.339 592.789 338.548 589.883 338.555 586.851V551.306H402.706C403.494 551.306 404.25 550.993 404.807 550.436C405.365 549.878 405.678 549.122 405.678 548.334V481.583C405.678 480.795 405.365 480.039 404.807 479.481C404.25 478.924 403.494 478.611 402.706 478.611ZM399.734 545.362H338.615V490.885C338.615 489.206 339.282 487.596 340.469 486.409C341.656 485.222 343.266 484.555 344.945 484.555H399.734V545.362Z" fill="white"/>
<path d="M409.586 349.686V445.414H339.833C336.874 445.414 334.035 446.589 331.942 448.682C329.849 450.775 328.673 453.614 328.673 456.574V506.25H403.627C407.211 506.247 410.647 504.82 413.18 502.285C415.712 499.749 417.135 496.312 417.135 492.728V349.686H409.586Z" fill="#2E353A"/>
<path opacity="0.3" d="M409.586 349.686V445.414H339.833C336.874 445.414 334.035 446.589 331.942 448.682C329.849 450.775 328.673 453.614 328.673 456.574V506.25H403.627C407.211 506.247 410.647 504.82 413.18 502.285C415.712 499.749 417.135 496.312 417.135 492.728V349.686H409.586Z" fill="white"/>
<path d="M338.511 481.464H451.922V503.219H327.232V492.817C327.222 491.33 327.507 489.855 328.069 488.478C328.632 487.101 329.461 485.849 330.509 484.794C331.557 483.739 332.804 482.901 334.177 482.33C335.551 481.758 337.023 481.464 338.511 481.464V481.464Z" fill="#2E353A"/>
<path d="M463.112 500.054H327.039C326.633 500.054 326.231 500.134 325.856 500.289C325.481 500.444 325.14 500.672 324.853 500.959C324.566 501.246 324.339 501.587 324.183 501.962C324.028 502.337 323.948 502.739 323.948 503.145V503.145C323.948 503.966 324.273 504.754 324.852 505.336C325.432 505.918 326.218 506.247 327.039 506.25H463.112C463.911 506.251 464.68 505.942 465.257 505.388C465.833 504.833 466.172 504.077 466.203 503.278V503.278C466.221 502.861 466.154 502.445 466.007 502.055C465.86 501.664 465.635 501.307 465.346 501.006C465.057 500.705 464.71 500.465 464.326 500.301C463.942 500.138 463.529 500.053 463.112 500.054V500.054Z" fill="#2E353A"/>
<path opacity="0.3" d="M463.112 500.054H327.039C326.633 500.054 326.231 500.134 325.856 500.289C325.481 500.444 325.14 500.672 324.853 500.959C324.566 501.246 324.339 501.587 324.183 501.962C324.028 502.337 323.948 502.739 323.948 503.145V503.145C323.948 503.966 324.273 504.754 324.852 505.336C325.432 505.918 326.218 506.247 327.039 506.25H463.112C463.911 506.251 464.68 505.942 465.257 505.388C465.833 504.833 466.172 504.077 466.203 503.278V503.278C466.221 502.861 466.154 502.445 466.007 502.055C465.86 501.664 465.635 501.307 465.346 501.006C465.057 500.705 464.71 500.465 464.326 500.301C463.942 500.138 463.529 500.053 463.112 500.054V500.054Z" fill="white"/>
<path d="M412.246 352.524H475.609V480.454C475.609 485.656 473.543 490.645 469.864 494.324C466.185 498.002 461.196 500.069 455.994 500.069H412.246V352.524Z" fill="#2E353A"/>
<path d="M342.612 587.327H305.967C303.932 587.327 302.282 588.977 302.282 591.012V593.092C302.282 595.128 303.932 596.778 305.967 596.778H342.612C344.647 596.778 346.297 595.128 346.297 593.092V591.012C346.297 588.977 344.647 587.327 342.612 587.327Z" fill="#2E353A"/>
<path opacity="0.2" d="M342.612 587.327H305.967C303.932 587.327 302.282 588.977 302.282 591.012V593.092C302.282 595.128 303.932 596.778 305.967 596.778H342.612C344.647 596.778 346.297 595.128 346.297 593.092V591.012C346.297 588.977 344.647 587.327 342.612 587.327Z" fill="white"/>
<path d="M462.83 546.179L405.306 525.717L462.83 505.24C463.106 505.142 463.36 504.991 463.578 504.796C463.795 504.6 463.973 504.363 464.099 504.099C464.225 503.835 464.298 503.548 464.314 503.256C464.329 502.963 464.287 502.67 464.189 502.394C464.092 502.118 463.941 501.864 463.745 501.646C463.549 501.428 463.312 501.251 463.048 501.125C462.784 500.999 462.497 500.926 462.205 500.91C461.912 500.895 461.62 500.937 461.344 501.035L398.679 523.325L335.999 501.035C335.723 500.937 335.431 500.895 335.138 500.91C334.846 500.926 334.559 500.999 334.295 501.125C334.031 501.251 333.794 501.428 333.598 501.646C333.402 501.864 333.251 502.118 333.154 502.394C333.056 502.67 333.014 502.963 333.03 503.256C333.045 503.548 333.118 503.835 333.244 504.099C333.371 504.363 333.548 504.6 333.765 504.796C333.983 504.991 334.237 505.142 334.513 505.24L392.022 525.702L334.513 546.164C334.237 546.263 333.983 546.414 333.765 546.611C333.547 546.808 333.371 547.045 333.245 547.31C333.119 547.575 333.047 547.863 333.033 548.156C333.019 548.449 333.062 548.741 333.161 549.018C333.311 549.454 333.593 549.832 333.969 550.098C334.345 550.365 334.796 550.507 335.256 550.504C335.509 550.509 335.761 550.469 335.999 550.385L398.679 528.095L461.344 550.385C461.62 550.482 461.912 550.524 462.205 550.509C462.497 550.493 462.784 550.42 463.048 550.294C463.312 550.168 463.549 549.991 463.745 549.773C463.941 549.555 464.092 549.301 464.189 549.025C464.287 548.749 464.329 548.456 464.314 548.164C464.298 547.871 464.225 547.585 464.099 547.321C463.973 547.056 463.795 546.82 463.578 546.624C463.36 546.428 463.106 546.277 462.83 546.179V546.179Z" fill="#2E353A"/>
<path opacity="0.3" d="M462.83 546.179L405.306 525.717L462.83 505.24C463.106 505.142 463.36 504.991 463.578 504.796C463.795 504.6 463.973 504.363 464.099 504.099C464.225 503.835 464.298 503.548 464.314 503.256C464.329 502.963 464.287 502.67 464.189 502.394C464.092 502.118 463.941 501.864 463.745 501.646C463.549 501.428 463.312 501.251 463.048 501.125C462.784 500.999 462.497 500.926 462.205 500.91C461.912 500.895 461.62 500.937 461.344 501.035L398.679 523.325L335.999 501.035C335.723 500.937 335.431 500.895 335.138 500.91C334.846 500.926 334.559 500.999 334.295 501.125C334.031 501.251 333.794 501.428 333.598 501.646C333.402 501.864 333.251 502.118 333.154 502.394C333.056 502.67 333.014 502.963 333.03 503.256C333.045 503.548 333.118 503.835 333.244 504.099C333.371 504.363 333.548 504.6 333.765 504.796C333.983 504.991 334.237 505.142 334.513 505.24L392.022 525.702L334.513 546.164C334.237 546.263 333.983 546.414 333.765 546.611C333.547 546.808 333.371 547.045 333.245 547.31C333.119 547.575 333.047 547.863 333.033 548.156C333.019 548.449 333.062 548.741 333.161 549.018C333.311 549.454 333.593 549.832 333.969 550.098C334.345 550.365 334.796 550.507 335.256 550.504C335.509 550.509 335.761 550.469 335.999 550.385L398.679 528.095L461.344 550.385C461.62 550.482 461.912 550.524 462.205 550.509C462.497 550.493 462.784 550.42 463.048 550.294C463.312 550.168 463.549 549.991 463.745 549.773C463.941 549.555 464.092 549.301 464.189 549.025C464.287 548.749 464.329 548.456 464.314 548.164C464.298 547.871 464.225 547.585 464.099 547.321C463.973 547.056 463.795 546.82 463.578 546.624C463.36 546.428 463.106 546.277 462.83 546.179V546.179Z" fill="white"/>
<path d="M413.182 363.817C412.591 363.817 412.024 363.583 411.606 363.165C411.188 362.746 410.953 362.18 410.953 361.588V344.514C410.953 341.244 412.213 338.099 414.471 335.733C416.729 333.367 419.812 331.962 423.079 331.809L437.464 331.111C438.055 331.083 438.633 331.291 439.07 331.69C439.508 332.088 439.769 332.644 439.797 333.236C439.824 333.827 439.616 334.405 439.217 334.842C438.819 335.28 438.263 335.541 437.672 335.569L423.287 336.267C421.163 336.366 419.16 337.281 417.693 338.819C416.226 340.358 415.409 342.403 415.411 344.529V361.603C415.407 362.192 415.171 362.755 414.753 363.17C414.336 363.585 413.771 363.817 413.182 363.817Z" fill="#263238"/>
<path d="M340.279 581.442L354.56 576.969L352.717 562.882L351.008 549.954L333.458 553.416L337.055 568.261L340.279 581.442Z" fill="#EBB376"/>
<path opacity="0.2" d="M337.159 568.558L352.791 563.135L351.038 550.087L333.488 553.476L337.159 568.558Z" fill="black"/>
<path d="M355.778 573.7C355.778 572.586 338.332 574.072 338.332 574.072C338.332 574.072 327.93 582.988 317.528 585.261C307.126 587.535 313.189 592.216 324.81 591.8L353.564 590.774C361.886 590.477 356.536 585.157 355.778 573.7Z" fill="#2E353A"/>
<path d="M313.145 456.053C323.547 438.221 378.781 434.863 415.367 432.352L427.849 464.583C427.849 464.583 373.239 461.611 357.472 479.354C344.945 493.501 353.475 557.042 353.475 557.042L329.981 558.736C329.981 558.736 294.763 487.675 313.145 456.053Z" fill="#2E353A"/>
<path opacity="0.2" d="M313.145 456.053C323.547 438.221 378.781 434.863 415.367 432.352L427.849 464.583C427.849 464.583 373.239 461.611 357.472 479.354C344.945 493.501 353.475 557.042 353.475 557.042L329.981 558.736C329.981 558.736 294.763 487.675 313.145 456.053Z" fill="black"/>
<path d="M369.999 581.442L384.28 576.969L382.437 562.882L380.713 549.954L363.178 553.416L366.774 568.261L369.999 581.442Z" fill="#EBB376"/>
<path opacity="0.2" d="M366.879 568.558L382.526 563.135L380.758 550.087L363.208 553.476L366.879 568.558Z" fill="black"/>
<path d="M417.744 340.621C425.174 337.055 444.938 340.145 449.708 344.678C454.478 349.21 435.012 362.51 424.565 360.608C414.118 358.706 411.934 343.4 417.744 340.621Z" fill="#146A5D" fill-opacity="0.76"/>
<path opacity="0.2" d="M417.744 340.621C425.174 337.055 444.938 340.145 449.708 344.678C454.478 349.21 435.012 362.51 424.565 360.608C414.118 358.706 411.934 343.4 417.744 340.621Z" fill="black"/>
<path d="M380.193 432.04C380.193 432.04 393.136 407.015 393.805 405.069C397.252 394.994 459.843 404.073 459.843 404.073C459.843 404.073 477.095 456.514 455.608 471.567C436.929 484.659 391.71 478.759 384.027 481.122C376.924 483.307 373.447 490.93 384.25 561.975L360.964 562.852C360.964 562.852 326.875 478.15 327.247 462.874C327.618 447.598 324.944 440.644 380.193 432.04Z" fill="#2E353A"/>
<path d="M380.966 428.354C380.966 428.354 399.199 364.07 405.678 347.457C408.07 341.304 465.445 347.263 465.445 347.263V425.07C465.445 425.07 422.529 440.257 409.987 433.986C406.005 431.98 401.755 418.205 401.755 418.205C401.755 418.205 393.731 433.154 388.767 433.273C385.929 433.318 380.966 428.354 380.966 428.354Z" fill="#146A5D" fill-opacity="0.76"/>
<path opacity="0.6" d="M465.43 347.263V425.07C465.43 425.07 422.514 440.257 409.973 433.986C405.99 431.98 401.74 418.205 401.74 418.205C401.74 418.205 393.731 433.154 388.752 433.273C385.929 433.347 380.966 428.384 380.966 428.384C380.966 428.384 381.204 427.522 381.664 425.962C384.131 417.299 392.794 387.103 399.496 365.809C401.948 358.022 404.133 351.424 405.663 347.486C408.056 341.304 465.43 347.263 465.43 347.263Z" fill="white"/>
<path opacity="0.2" d="M416.169 378.41C417.039 378.41 417.744 377.705 417.744 376.835C417.744 375.965 417.039 375.26 416.169 375.26C415.299 375.26 414.594 375.965 414.594 376.835C414.594 377.705 415.299 378.41 416.169 378.41Z" fill="black"/>
<path opacity="0.2" d="M410.76 394.072C411.63 394.072 412.335 393.367 412.335 392.497C412.335 391.627 411.63 390.922 410.76 390.922C409.89 390.922 409.185 391.627 409.185 392.497C409.185 393.367 409.89 394.072 410.76 394.072Z" fill="black"/>
<path opacity="0.2" d="M404.682 411.518C405.552 411.518 406.258 410.813 406.258 409.943C406.258 409.073 405.552 408.368 404.682 408.368C403.812 408.368 403.107 409.073 403.107 409.943C403.107 410.813 403.812 411.518 404.682 411.518Z" fill="black"/>
<path opacity="0.2" d="M465.43 380.49V424.03C419.765 439.485 407.09 426.11 407.09 426.11C407.09 426.11 432.114 411.904 442.501 406.614C452.888 401.324 454.894 373.684 454.894 373.684C458.523 375.768 462.039 378.039 465.43 380.49Z" fill="black"/>
<path opacity="0.2" d="M393.314 404.459C393.478 413.539 394.919 416.496 395.335 420.523C395.692 424.179 394.622 432.53 381.664 425.932C384.131 417.269 392.794 387.073 399.496 365.779C400.053 366.016 400.557 366.359 400.982 366.789C400.982 366.789 393.121 393.24 393.314 404.459Z" fill="black"/>
<path d="M448.371 347.531C448.371 347.531 441.312 353.401 434.7 353.698C428.087 353.995 421.801 363.699 421.801 363.699C421.801 363.699 420.166 353.995 420.597 353.118C420.46 351.933 420.129 350.778 419.617 349.7C418.844 347.353 418.25 344.707 420.597 344.707C424.565 344.707 421.801 336.668 421.801 336.668L444.225 330.501C443.593 332.599 443.17 334.755 442.962 336.936C442.56 341.394 443.229 346.699 448.371 347.531Z" fill="#EBB376"/>
<path opacity="0.2" d="M444.225 330.486C443.593 332.584 443.17 334.74 442.962 336.921C438.504 342.226 430.658 349.002 419.617 349.686C418.844 347.338 418.25 344.693 420.597 344.693C424.565 344.693 421.801 336.653 421.801 336.653L444.225 330.486Z" fill="black"/>
<path d="M445.8 348.853C445.8 348.853 434.135 369.42 431.653 386.479C435.67 386.075 439.718 386.075 443.734 386.479C448.296 387.207 445.012 363.832 455.786 347.1L445.8 348.853Z" fill="#146A5D" fill-opacity="0.76"/>
<path opacity="0.2" d="M445.8 348.853C445.8 348.853 434.135 369.42 431.653 386.479C435.67 386.075 439.718 386.075 443.734 386.479C448.296 387.207 445.012 363.832 455.786 347.1L445.8 348.853Z" fill="black"/>
<path d="M417.744 349.745C417.744 356.447 425.769 361.93 437.805 351.944C449.842 341.958 453.052 339.64 456.024 343.147C456.024 343.147 460.051 343.444 460.69 346.803C457.13 348.203 453.857 350.243 451.031 352.821C447.286 356.64 431.029 370.742 420.538 369.568C410.047 368.394 407.491 353.222 413.465 347.1C413.465 347.1 413.687 337.575 422.767 341.349C422.826 341.349 417.744 342.092 417.744 349.745Z" fill="#146A5D" fill-opacity="0.76"/>
<path d="M431.594 386.479C431.594 386.479 430.108 392.898 430.45 393.181C430.791 393.463 431.356 386.821 432.515 387.311C433.674 387.801 431.549 393.404 432.515 393.255C433.481 393.106 432.441 387.564 433.645 387.46C434.848 387.356 433.481 393.181 434.373 393.255C435.264 393.329 434.373 387.46 435.532 387.46C436.691 387.46 435.16 393.404 436.126 393.255C437.092 393.106 436.334 387.177 437.404 387.177C438.474 387.177 436.825 392.988 437.894 393.27C438.964 393.552 437.805 387.46 439.172 387.46C440.54 387.46 438.875 393.404 439.559 393.27C440.242 393.136 439.172 387.177 440.54 387.46C441.907 387.742 440.45 393.493 441.223 393.27C441.996 393.047 440.54 387.46 441.907 387.757C443.274 388.054 442.798 393.701 443.185 393.285C443.571 392.869 443.408 388.247 444.225 388.143C445.042 388.039 444.225 392.259 445.443 392.601C446.662 392.943 444.225 386.538 444.225 386.538C444.225 386.538 436.483 384.874 431.594 386.479Z" fill="#146A5D" fill-opacity="0.76"/>
<path d="M435.175 299.34C422.663 297.363 417.581 303.426 414.639 316.176C414.549 316.503 414.416 317.157 414.416 317.157C406.629 324.052 411.191 343.147 428.904 343.147C450.927 343.147 455.964 302.609 435.175 299.34Z" fill="#EBB376"/>
<path d="M422.826 316.756C421.531 318.465 420.034 320.012 418.368 321.362C418.653 321.937 419.091 322.421 419.634 322.762C420.177 323.103 420.803 323.287 421.444 323.294L422.826 316.756Z" fill="#D58745"/>
<path d="M430.658 316.934C430.464 317.959 430.866 318.896 431.549 319.014C432.233 319.133 432.931 318.405 433.124 317.38C433.318 316.355 432.901 315.433 432.218 315.299C431.534 315.166 430.836 315.909 430.658 316.934Z" fill="#263238"/>
<path d="M432.5 315.403L430.435 314.126C430.435 314.126 431.208 316.206 432.5 315.403Z" fill="#263238"/>
<path d="M417.967 314.408C417.774 315.433 418.175 316.369 418.859 316.488C419.542 316.607 420.241 315.879 420.434 314.854C420.627 313.828 420.211 312.907 419.528 312.773C418.844 312.64 418.146 313.383 417.967 314.408Z" fill="#263238"/>
<path d="M419.81 312.877L417.744 311.599C417.744 311.599 418.502 313.68 419.81 312.877Z" fill="#263238"/>
<path d="M437.27 311.599C437.176 311.604 437.082 311.581 437.001 311.534C436.919 311.486 436.853 311.416 436.81 311.332C436.267 310.592 435.564 309.985 434.753 309.556C433.943 309.126 433.046 308.885 432.129 308.85C431.987 308.85 431.851 308.794 431.751 308.694C431.65 308.593 431.594 308.457 431.594 308.315C431.594 308.173 431.65 308.037 431.751 307.937C431.851 307.837 431.987 307.78 432.129 307.78V307.78C433.225 307.808 434.299 308.091 435.267 308.607C436.234 309.123 437.068 309.857 437.701 310.752C437.772 310.875 437.791 311.02 437.755 311.156C437.718 311.293 437.63 311.409 437.508 311.48C437.439 311.537 437.357 311.578 437.27 311.599V311.599Z" fill="#263238"/>
<path d="M417.982 307.126C417.879 307.129 417.777 307.101 417.689 307.045C417.602 306.99 417.533 306.909 417.492 306.814C417.436 306.684 417.432 306.537 417.482 306.404C417.532 306.271 417.631 306.162 417.759 306.101C418.62 305.641 419.574 305.382 420.55 305.344C421.525 305.305 422.496 305.488 423.391 305.878C423.517 305.947 423.611 306.063 423.651 306.201C423.692 306.339 423.676 306.488 423.607 306.614C423.538 306.74 423.421 306.833 423.283 306.874C423.146 306.914 422.997 306.898 422.871 306.829C422.125 306.513 421.317 306.372 420.509 306.416C419.7 306.46 418.912 306.687 418.205 307.082L417.982 307.126Z" fill="#263238"/>
<path d="M467.912 312.758C465.638 310.767 461.314 311.897 458.193 313.145C458.193 313.011 458.193 312.892 458.193 312.758C458.273 310.465 457.797 308.186 456.806 306.116C455.815 304.046 454.338 302.246 452.502 300.87C452.502 295.877 448.638 293.678 444.388 292.356C440.138 291.033 436.438 293.53 431.445 291.182C430.632 290.712 429.733 290.411 428.8 290.297C427.868 290.183 426.923 290.259 426.02 290.52C425.118 290.781 424.278 291.222 423.551 291.815C422.823 292.409 422.223 293.144 421.786 293.975C420.493 296.323 421.058 299.726 416.897 299.845C412.736 299.964 413.747 303.857 414.549 305.938C415.352 308.018 415.129 307.424 413.806 309.727C412.9 311.302 414.252 312.298 415.218 312.699C415.055 313.799 415.025 314.482 415.025 314.482C415.144 313.888 415.278 313.323 415.426 312.788C421.37 290.156 443.422 303.545 443.422 303.545C441.283 311.347 445.503 322.551 445.503 322.551C447.36 327.529 444.626 332.552 442.902 335.034C442.525 335.589 442.113 336.12 441.669 336.624C442.435 336.162 443.157 335.63 443.824 335.034C452.74 334.722 452.324 329.877 452.309 328.272C452.493 327.522 452.832 326.818 453.304 326.207C454.79 329.09 457.926 332.894 463.498 331.66C472.176 329.788 471.731 316.117 467.912 312.758Z" fill="#263238"/>
<path d="M424.669 330.174C423.599 330.165 422.544 329.921 421.578 329.461C421.45 329.4 421.351 329.291 421.301 329.158C421.251 329.025 421.255 328.878 421.311 328.748C421.338 328.682 421.378 328.622 421.43 328.572C421.481 328.522 421.542 328.484 421.609 328.459C421.676 328.434 421.747 328.423 421.819 328.426C421.89 328.43 421.96 328.448 422.024 328.48C423.236 329.103 424.634 329.262 425.955 328.928C427.276 328.595 428.43 327.791 429.201 326.667C429.24 326.609 429.29 326.558 429.349 326.519C429.407 326.48 429.473 326.453 429.542 326.439C429.611 326.425 429.682 326.425 429.751 326.439C429.82 326.452 429.886 326.48 429.944 326.519C430.003 326.558 430.053 326.608 430.093 326.666C430.132 326.725 430.159 326.79 430.173 326.859C430.187 326.928 430.187 327 430.173 327.069C430.159 327.138 430.132 327.203 430.093 327.262C429.473 328.131 428.661 328.846 427.721 329.351C426.78 329.856 425.736 330.138 424.669 330.174V330.174Z" fill="#263238"/>
<path d="M432.768 322.165C432.396 322.182 432.025 322.125 431.675 321.998C431.326 321.87 431.005 321.674 430.732 321.422C430.366 320.979 430.098 320.465 429.944 319.912C429.791 319.359 429.755 318.78 429.84 318.212C429.855 318.115 429.906 318.027 429.984 317.966C430.061 317.905 430.159 317.876 430.256 317.885C430.357 317.9 430.447 317.953 430.508 318.034C430.569 318.114 430.596 318.216 430.583 318.316C430.455 319.233 430.695 320.162 431.252 320.902C431.567 321.153 431.939 321.325 432.334 321.402C432.73 321.48 433.139 321.461 433.526 321.348C433.574 321.339 433.625 321.34 433.673 321.352C433.721 321.363 433.767 321.384 433.807 321.413C433.847 321.442 433.881 321.479 433.907 321.521C433.932 321.563 433.949 321.611 433.957 321.66C433.974 321.756 433.952 321.856 433.897 321.936C433.841 322.017 433.756 322.072 433.659 322.091C433.364 322.136 433.066 322.161 432.768 322.165V322.165Z" fill="#D58745"/>
<path d="M417.833 319.104C417.151 319.079 416.482 318.906 415.872 318.598C415.785 318.551 415.72 318.472 415.69 318.378C415.659 318.284 415.666 318.182 415.708 318.093C415.753 318.008 415.829 317.943 415.921 317.912C416.012 317.882 416.112 317.888 416.199 317.93C416.536 318.174 416.928 318.33 417.34 318.385C417.752 318.439 418.172 318.391 418.561 318.244C418.95 318.096 419.296 317.855 419.568 317.541C419.841 317.226 420.031 316.85 420.122 316.444C420.155 316.358 420.219 316.288 420.301 316.246C420.383 316.205 420.477 316.195 420.566 316.219C420.654 316.243 420.731 316.299 420.781 316.376C420.83 316.453 420.85 316.546 420.835 316.637C420.701 317.114 420.473 317.56 420.165 317.948C419.856 318.336 419.472 318.658 419.037 318.896C418.655 319.048 418.245 319.118 417.833 319.104Z" fill="#D58745"/>
<path d="M432.5 330.011C432.418 330.01 432.338 329.982 432.274 329.931C432.209 329.88 432.163 329.808 432.144 329.729C431.163 325.419 426.393 323.666 426.348 323.651C426.256 323.617 426.18 323.548 426.138 323.459C426.097 323.37 426.092 323.268 426.125 323.175C426.14 323.128 426.165 323.085 426.197 323.048C426.23 323.01 426.269 322.98 426.314 322.959C426.359 322.938 426.407 322.927 426.457 322.926C426.506 322.925 426.555 322.934 426.601 322.952C426.809 322.952 431.802 324.869 432.857 329.565C432.88 329.66 432.864 329.759 432.814 329.843C432.764 329.926 432.683 329.986 432.589 330.011H432.5Z" fill="#D58745"/>
<path opacity="0.4" d="M467.912 312.758C465.638 310.767 461.314 311.897 458.193 313.145C458.193 313.011 458.193 312.892 458.193 312.758C458.273 310.465 457.797 308.186 456.806 306.116C455.815 304.046 454.338 302.246 452.502 300.87C452.502 295.877 448.638 293.678 444.388 292.356C440.138 291.033 436.438 293.53 431.445 291.182C430.632 290.712 429.733 290.411 428.8 290.297C427.868 290.183 426.923 290.259 426.02 290.52C425.118 290.781 424.278 291.222 423.551 291.815C422.823 292.409 422.223 293.144 421.786 293.975C420.493 296.323 421.058 299.726 416.897 299.845C412.736 299.964 413.747 303.857 414.549 305.938C415.352 308.018 415.129 307.424 413.806 309.727C412.9 311.302 414.252 312.298 415.218 312.699C415.055 313.799 415.025 314.482 415.025 314.482C415.144 313.888 415.278 313.323 415.426 312.788C421.37 290.156 443.422 303.545 443.422 303.545C441.283 311.347 445.503 322.551 445.503 322.551C447.36 327.529 444.626 332.552 442.902 335.034C442.525 335.589 442.113 336.12 441.669 336.624C442.435 336.162 443.157 335.63 443.824 335.034C452.74 334.722 452.324 329.877 452.309 328.272C452.493 327.522 452.832 326.818 453.304 326.207C454.79 329.09 457.926 332.894 463.498 331.66C472.176 329.788 471.731 316.117 467.912 312.758Z" fill="white"/>
<path d="M443.066 324.899C443.414 323.469 444.316 322.236 445.572 321.47C446.828 320.704 448.337 320.468 449.768 320.813C453.572 321.853 454.226 330.1 444.225 330.486C442.828 330.546 442.234 329.075 443.066 324.899Z" fill="#EBB376"/>
<g opacity="0.2">
<path d="M437.27 311.599C437.176 311.604 437.082 311.581 437.001 311.534C436.919 311.486 436.853 311.416 436.81 311.332C436.267 310.592 435.564 309.985 434.753 309.556C433.943 309.126 433.046 308.885 432.129 308.85C431.987 308.85 431.851 308.794 431.751 308.694C431.65 308.593 431.594 308.457 431.594 308.315C431.594 308.173 431.65 308.037 431.751 307.937C431.851 307.837 431.987 307.78 432.129 307.78V307.78C433.225 307.808 434.299 308.091 435.267 308.607C436.234 309.123 437.068 309.857 437.701 310.752C437.772 310.875 437.791 311.02 437.755 311.156C437.718 311.293 437.63 311.409 437.508 311.48C437.439 311.537 437.357 311.578 437.27 311.599V311.599Z" fill="white"/>
</g>
<g opacity="0.2">
<path d="M417.982 307.126C417.879 307.129 417.777 307.101 417.689 307.045C417.602 306.99 417.533 306.909 417.492 306.814C417.436 306.684 417.432 306.537 417.482 306.404C417.532 306.271 417.631 306.162 417.759 306.101C418.62 305.641 419.574 305.382 420.55 305.344C421.525 305.305 422.496 305.488 423.391 305.878C423.517 305.947 423.611 306.063 423.651 306.201C423.692 306.339 423.676 306.488 423.607 306.614C423.538 306.74 423.421 306.833 423.283 306.874C423.146 306.914 422.997 306.898 422.871 306.829C422.125 306.513 421.317 306.372 420.509 306.416C419.7 306.46 418.912 306.687 418.205 307.082L417.982 307.126Z" fill="white"/>
</g>
<path d="M300.841 507.424C300.841 507.424 301.123 462.458 312.298 450.956C323.472 439.455 364.962 432.426 364.962 432.426C364.962 432.426 403.598 428.399 417.655 435.472C431.713 442.546 431.891 479.235 431.891 479.235C431.891 479.235 394.31 475 389.332 491.866C386.203 502.66 383.908 513.679 382.467 524.825L300.841 507.424Z" fill="#146A5D" fill-opacity="0.76"/>
<path opacity="0.2" d="M355.778 573.7C355.778 572.586 338.332 574.072 338.332 574.072C338.332 574.072 327.93 582.988 317.528 585.261C307.126 587.535 313.189 592.216 324.81 591.8L353.564 590.774C361.886 590.477 356.536 585.157 355.778 573.7Z" fill="black"/>
<path d="M385.498 573.7C385.424 572.586 368.052 574.072 368.052 574.072C368.052 574.072 357.65 582.988 347.248 585.261C336.846 587.535 342.909 592.216 354.53 591.8L383.284 590.774C391.606 590.477 386.256 585.157 385.498 573.7Z" fill="#2E353A"/>
<path d="M428.533 417.566L416.169 423.986C413.858 423.506 411.466 423.572 409.185 424.179C405.841 425.204 399.437 430.895 399.764 433.407C400.091 435.918 409.794 434.209 411.518 434.655C413.242 435.101 416.793 432.872 417.744 432.426C418.695 431.98 418.933 429.023 418.933 429.023L428.533 425.724V417.566Z" fill="#EBB376"/>
<path d="M465.43 347.263C474.346 349.686 479.428 396.227 470.512 409.943C461.596 423.659 423.837 428.949 423.837 428.949L420.122 419.528C420.122 419.528 449.218 407.461 452.324 401.577C455.429 395.692 456.9 383.953 454.255 369.643C451.61 355.332 465.43 347.263 465.43 347.263Z" fill="#146A5D" fill-opacity="0.76"/>
<path opacity="0.6" d="M465.43 347.263C474.346 349.686 479.428 396.227 470.512 409.943C461.596 423.659 423.837 428.949 423.837 428.949L420.122 419.528C420.122 419.528 449.218 407.461 452.324 401.577C455.429 395.692 456.9 383.953 454.255 369.643C451.61 355.332 465.43 347.263 465.43 347.263Z" fill="white"/>
<path d="M389.599 414.698L392.304 424.104C393.693 425.46 394.751 427.118 395.395 428.949C396.019 431.148 395.083 433.407 393.909 433.778C390.937 434.729 384.547 436.126 384.101 434.521C383.655 432.916 382.779 425.977 385.424 426.289L383.358 418.666L389.599 414.698Z" fill="#EBB376"/>
<path d="M405.678 347.457C395.484 350.176 374.665 383.685 377.875 402.201C381.085 420.716 384.324 424.104 384.324 424.104L392.69 419.646C392.69 419.646 388.128 400.744 390.937 394.028C404.682 361.098 405.678 347.457 405.678 347.457Z" fill="#146A5D" fill-opacity="0.76"/>
<path opacity="0.6" d="M405.678 347.457C395.484 350.176 374.665 383.685 377.875 402.201C381.085 420.716 384.324 424.104 384.324 424.104L392.69 419.646C392.69 419.646 388.128 400.744 390.937 394.028C404.682 361.098 405.678 347.457 405.678 347.457Z" fill="white"/>
<path d="M475.594 363.817C475.003 363.817 474.436 363.583 474.018 363.165C473.6 362.746 473.365 362.18 473.365 361.588V344.514C473.365 341.244 474.625 338.099 476.883 335.733C479.141 333.367 482.224 331.962 485.491 331.809L499.876 331.111C500.467 331.083 501.045 331.291 501.482 331.69C501.92 332.088 502.181 332.644 502.208 333.236C502.236 333.827 502.028 334.405 501.629 334.842C501.231 335.28 500.675 335.541 500.084 335.569L485.699 336.267C483.575 336.366 481.572 337.281 480.105 338.819C478.638 340.358 477.821 342.403 477.823 344.529V361.603C477.819 362.192 477.583 362.755 477.165 363.17C476.748 363.585 476.183 363.817 475.594 363.817Z" fill="#263238"/>
<path d="M471.998 353.46V445.414H402.245C399.286 445.414 396.447 446.589 394.354 448.682C392.261 450.775 391.085 453.614 391.085 456.574V506.25H466.039C469.623 506.247 473.059 504.82 475.592 502.285C478.124 499.749 479.547 496.312 479.547 492.728V353.46C479.547 352.459 479.149 351.499 478.442 350.791C477.734 350.083 476.774 349.686 475.773 349.686V349.686C474.772 349.686 473.812 350.083 473.104 350.791C472.396 351.499 471.998 352.459 471.998 353.46V353.46Z" fill="#2E353A"/>
<path opacity="0.4" d="M471.998 353.46V445.414H402.245C399.286 445.414 396.447 446.589 394.354 448.682C392.261 450.775 391.085 453.614 391.085 456.574V506.25H466.039C469.623 506.247 473.059 504.82 475.592 502.285C478.124 499.749 479.547 496.312 479.547 492.728V353.46C479.547 352.459 479.149 351.499 478.442 350.791C477.734 350.083 476.774 349.686 475.773 349.686V349.686C474.772 349.686 473.812 350.083 473.104 350.791C472.396 351.499 471.998 352.459 471.998 353.46V353.46Z" fill="white"/>
<path d="M462.146 478.611H404.385C401.131 478.615 398.011 479.909 395.71 482.21C393.409 484.511 392.115 487.631 392.111 490.885V586.851C392.111 588.309 391.532 589.708 390.5 590.739C389.469 591.77 388.071 592.349 386.613 592.349H358.126C357.338 592.349 356.582 592.662 356.025 593.22C355.467 593.777 355.154 594.533 355.154 595.321C355.154 596.11 355.467 596.865 356.025 597.423C356.582 597.98 357.338 598.293 358.126 598.293H386.553C389.585 598.285 392.491 597.077 394.635 594.933C396.78 592.789 397.988 589.883 397.995 586.851V551.306H462.146C462.934 551.306 463.69 550.993 464.248 550.436C464.805 549.878 465.118 549.122 465.118 548.334V481.583C465.118 480.795 464.805 480.039 464.248 479.481C463.69 478.924 462.934 478.611 462.146 478.611ZM459.174 545.362H398.055V490.885C398.055 489.206 398.722 487.596 399.909 486.409C401.096 485.222 402.706 484.555 404.385 484.555H459.174V545.362Z" fill="#2E353A"/>
<path opacity="0.6" d="M462.146 478.611H404.385C401.131 478.615 398.011 479.909 395.71 482.21C393.409 484.511 392.115 487.631 392.111 490.885V586.851C392.111 588.309 391.532 589.708 390.5 590.739C389.469 591.77 388.071 592.349 386.613 592.349H358.126C357.338 592.349 356.582 592.662 356.025 593.22C355.467 593.777 355.154 594.533 355.154 595.321C355.154 596.11 355.467 596.865 356.025 597.423C356.582 597.98 357.338 598.293 358.126 598.293H386.553C389.585 598.285 392.491 597.077 394.635 594.933C396.78 592.789 397.988 589.883 397.995 586.851V551.306H462.146C462.934 551.306 463.69 550.993 464.248 550.436C464.805 549.878 465.118 549.122 465.118 548.334V481.583C465.118 480.795 464.805 480.039 464.248 479.481C463.69 478.924 462.934 478.611 462.146 478.611ZM459.174 545.362H398.055V490.885C398.055 489.206 398.722 487.596 399.909 486.409C401.096 485.222 402.706 484.555 404.385 484.555H459.174V545.362Z" fill="white"/>
<path d="M384.22 587.327H337.173C335.138 587.327 333.488 588.977 333.488 591.012V593.092C333.488 595.128 335.138 596.778 337.173 596.778H384.22C386.256 596.778 387.905 595.128 387.905 593.092V591.012C387.905 588.977 386.256 587.327 384.22 587.327Z" fill="#2E353A"/>
<path opacity="0.4" d="M384.22 587.327H337.173C335.138 587.327 333.488 588.977 333.488 591.012V593.092C333.488 595.128 335.138 596.778 337.173 596.778H384.22C386.256 596.778 387.905 595.128 387.905 593.092V591.012C387.905 588.977 386.256 587.327 384.22 587.327Z" fill="white"/>
<path d="M462.146 618.874C430.375 618.874 404.534 587.208 404.534 548.275C404.534 509.341 430.375 477.69 462.146 477.69C493.917 477.69 519.743 509.356 519.743 548.275C519.743 587.193 493.842 618.874 462.146 618.874ZM462.146 485.134C434.477 485.134 411.964 513.472 411.964 548.289C411.964 583.106 434.477 611.459 462.146 611.459C489.815 611.459 512.254 583.106 512.254 548.334C512.254 513.562 489.756 485.12 462.146 485.12V485.134Z" fill="#2E353A"/>
<path d="M462.146 612.232C434.061 612.232 411.221 583.567 411.221 548.334C411.221 513.101 434.061 484.436 462.146 484.436C490.231 484.436 513.056 513.101 513.056 548.334C513.056 583.567 490.157 612.232 462.146 612.232ZM462.146 493.352C438.979 493.352 420.137 518.02 420.137 548.334C420.137 578.648 438.979 603.316 462.146 603.316C485.313 603.316 504.14 578.648 504.14 548.334C504.14 518.02 485.238 493.352 462.146 493.352Z" fill="#146A5D" fill-opacity="0.76"/>
<path d="M462.087 565.765C469.555 565.765 475.609 557.934 475.609 548.275C475.609 538.615 469.555 530.784 462.087 530.784C454.618 530.784 448.564 538.615 448.564 548.275C448.564 557.934 454.618 565.765 462.087 565.765Z" fill="#146A5D" fill-opacity="0.76"/>
<path d="M463.573 488.835H460.601V607.729H463.573V488.835Z" fill="#146A5D" fill-opacity="0.76"/>
<path d="M508.554 546.789H415.619V549.761H508.554V546.789Z" fill="#146A5D" fill-opacity="0.76"/>
<path d="M430.394 505.336L428.052 507.166L493.764 591.243L496.105 589.413L430.394 505.336Z" fill="#146A5D" fill-opacity="0.76"/>
<path d="M493.77 505.292L428.043 589.358L430.385 591.188L496.111 507.123L493.77 505.292Z" fill="#146A5D" fill-opacity="0.76"/>
<path d="M478.748 493.063L442.588 602.592L445.411 603.524L481.57 493.995L478.748 493.063Z" fill="#146A5D" fill-opacity="0.76"/>
<path d="M419.99 523.825L418.576 526.439L504.174 572.741L505.588 570.127L419.99 523.825Z" fill="#146A5D" fill-opacity="0.76"/>
<path d="M446.011 492.775L443.178 493.673L478.107 603.85L480.94 602.952L446.011 492.775Z" fill="#146A5D" fill-opacity="0.76"/>
<path d="M504.447 524.61L418.341 569.319L419.711 571.956L505.816 527.247L504.447 524.61Z" fill="#146A5D" fill-opacity="0.76"/>
<path d="M274.524 329.015L287.898 322.343C287.898 322.343 291.078 318.034 291.939 317.885C292.801 317.737 308.865 319.847 308.865 319.847C308.865 319.847 307.112 324.944 305.536 326.504C303.961 328.064 293.648 326.118 293.648 326.118L280.512 332.582L274.524 329.015Z" fill="#B97964"/>
<path d="M263.111 269.263C259.53 272.726 256.171 275.386 261.372 280.185C266.573 284.985 265.593 292.905 258.95 296.442C252.308 299.979 219.021 312.06 206.702 298.136C194.384 284.212 203.552 274.687 209.674 272.087C215.797 269.486 209.897 262.651 209.333 257.687C208.768 252.724 231.504 232.425 242.114 231.132C252.724 229.84 259.946 238.979 259.753 248.251C259.559 257.524 268.966 263.616 263.111 269.263Z" fill="#263238"/>
<path d="M250.212 294.466C249.484 294.466 254.299 326.34 255.592 331.111C256.885 335.881 283.529 323.056 283.529 323.056L287.838 329.639C287.838 329.639 264.508 349.299 254.403 347.1C244.298 344.901 236.764 310.069 236.764 310.069L250.212 294.466Z" fill="#146A5D" fill-opacity="0.76"/>
<path opacity="0.7" d="M287.838 329.639C287.838 329.639 264.508 349.299 254.403 347.085C250.361 346.193 246.72 340.041 243.808 332.983C240.958 325.735 238.653 318.284 236.913 310.693C236.824 310.232 236.764 309.994 236.764 309.994L238.25 308.3L243.674 302L250.212 294.436C249.707 295.669 254.358 326.37 255.622 331.036C256.885 335.702 283.558 322.982 283.558 322.982L287.838 329.639Z" fill="white"/>
<path opacity="0.2" d="M243.808 332.983C240.958 325.735 238.653 318.284 236.913 310.693C237.329 309.861 237.76 309.058 238.221 308.3C239.596 305.864 241.44 303.723 243.644 302L243.852 301.851C243.852 301.851 249.648 318.539 243.808 332.983Z" fill="black"/>
<path d="M182.421 402.587L223.301 408.368L230.597 302.906L189.658 307.78L182.421 402.587Z" fill="#146A5D" fill-opacity="0.76"/>
<path opacity="0.4" d="M182.421 402.587L223.301 408.368L230.597 302.906L189.658 307.78L182.421 402.587Z" fill="white"/>
<path d="M202.616 602.692H192.793L195.81 589.11L198.589 576.642L210.893 574.755L206.524 589.541L202.616 602.692Z" fill="#B97964"/>
<path opacity="0.2" d="M206.42 589.838L195.721 589.377L198.544 576.776L210.878 574.815L206.42 589.838Z" fill="black"/>
<path d="M182.273 602.692H172.45L175.467 589.11L178.246 576.642L190.55 574.755L186.181 589.541L182.273 602.692Z" fill="#B97964"/>
<path opacity="0.2" d="M186.077 589.838L175.378 589.377L178.201 576.776L190.535 574.815L186.077 589.838Z" fill="black"/>
<path d="M164.5 343.058C164.5 343.058 163.995 344.113 163.207 346.03C159.507 355.169 149.373 384.042 153.162 417.507C155.406 437.3 177.28 472.92 180.534 492.327C184.323 514.929 174.397 554.739 176.953 583.968L192.571 585.335L197.281 582.363L210.655 580.357C210.655 580.357 245.517 501.064 244.833 473.648C244.343 452.115 210.655 374.933 210.655 374.933L213.865 346.387" fill="#263238"/>
<path opacity="0.2" d="M199.748 582.051L197.281 582.423L193.284 584.949C195.84 576.033 217.862 498.939 218.249 481.969C218.695 463.929 192.987 399.942 192.987 399.942L199.57 388.054L198.574 406.154C198.574 406.154 222.855 455.905 224.772 481.94C226.66 506.934 201.769 576.434 199.748 582.051Z" fill="black"/>
<path d="M190.03 602.261C190.03 601.176 203.404 602.023 203.404 602.023C203.404 602.023 211.606 610.36 219.556 612.232C227.506 614.104 223.063 618.874 214.177 618.874H192.14C185.824 618.874 189.762 613.495 190.03 602.261Z" fill="#263238"/>
<path d="M204.845 603.747C204.804 603.726 204.768 603.696 204.741 603.658V603.658V603.569C204.733 603.529 204.733 603.489 204.741 603.45C204.734 603.405 204.734 603.36 204.741 603.316C204.741 603.153 205.915 600.076 207.713 599.319C207.984 599.197 208.278 599.135 208.575 599.135C208.872 599.135 209.166 599.197 209.437 599.319C210.046 599.616 210.343 599.987 210.313 600.448C210.313 601.146 209.333 601.845 208.248 602.424C209.25 602.261 210.278 602.374 211.22 602.751C211.394 602.844 211.547 602.972 211.667 603.129C211.788 603.285 211.873 603.466 211.918 603.658C212.017 603.897 212.04 604.16 211.984 604.413C211.928 604.665 211.797 604.894 211.606 605.069C211.261 605.304 210.849 605.419 210.432 605.396C208.489 605.172 206.599 604.614 204.845 603.747V603.747ZM206.063 603.524C208.025 604.356 210.521 605.084 211.101 604.579C211.101 604.579 211.324 604.386 211.19 603.866C211.16 603.767 211.11 603.675 211.044 603.596C210.977 603.517 210.896 603.452 210.804 603.405C210.31 603.182 209.77 603.08 209.229 603.108C208.162 603.137 207.101 603.277 206.063 603.524V603.524ZM207.921 599.972C206.868 600.649 206.065 601.651 205.633 602.826C207.609 602.083 209.511 601.042 209.541 600.448C209.541 600.27 209.244 600.091 209.065 600.002C208.874 599.913 208.667 599.862 208.456 599.854C208.272 599.858 208.09 599.898 207.921 599.972V599.972Z" fill="#146A5D" fill-opacity="0.76"/>
<path d="M192.571 580.179L214.638 577.162L212.795 585.38L194.577 587.668L192.571 580.179Z" fill="#146A5D" fill-opacity="0.76"/>
<path d="M169.686 602.261C169.686 601.176 183.06 602.023 183.06 602.023C183.06 602.023 191.248 610.36 199.198 612.232C207.148 614.104 202.705 618.874 193.819 618.874H171.826C165.481 618.874 169.404 613.495 169.686 602.261Z" fill="#263238"/>
<path d="M184.517 603.747C184.468 603.731 184.427 603.699 184.398 603.658V603.658V603.569C184.389 603.529 184.389 603.489 184.398 603.45C184.384 603.406 184.384 603.36 184.398 603.316C184.398 603.153 185.572 600.076 187.37 599.319C187.641 599.197 187.935 599.135 188.232 599.135C188.529 599.135 188.822 599.197 189.093 599.319C189.703 599.616 190 599.987 189.97 600.448C189.97 601.146 188.989 601.845 187.905 602.424C188.907 602.26 189.934 602.373 190.877 602.751C191.05 602.847 191.202 602.977 191.325 603.133C191.447 603.288 191.537 603.467 191.59 603.658C191.685 603.899 191.704 604.162 191.646 604.414C191.588 604.667 191.454 604.895 191.263 605.069C190.919 605.306 190.506 605.421 190.089 605.396C188.15 605.174 186.264 604.616 184.517 603.747V603.747ZM185.735 603.524C187.697 604.356 190.193 605.084 190.758 604.579C190.758 604.579 190.981 604.386 190.847 603.866C190.817 603.767 190.767 603.675 190.7 603.596C190.634 603.517 190.553 603.452 190.461 603.405C189.995 603.193 189.486 603.091 188.975 603.108C187.888 603.132 186.807 603.272 185.75 603.524H185.735ZM187.578 599.972C186.525 600.649 185.721 601.651 185.289 602.826C187.266 602.083 189.168 601.042 189.198 600.448C189.198 600.27 188.9 600.091 188.722 600.002C188.532 599.91 188.324 599.859 188.113 599.854C187.928 599.858 187.746 599.898 187.578 599.972V599.972Z" fill="#146A5D" fill-opacity="0.76"/>
<path d="M173.728 580.179L197.281 577.162L195.32 585.38L175.868 587.668L173.728 580.179Z" fill="#146A5D" fill-opacity="0.76"/>
<path d="M167.353 336.638L165.05 343.281L211.532 355.57L214.266 347.724L167.353 336.638Z" fill="black"/>
<path d="M183.303 339.046L181.021 338.38L177.626 350.021L179.908 350.687L183.303 339.046Z" fill="#263238"/>
<path d="M202.984 345.589L192.779 343.031L190.839 350.772L201.044 353.329L202.984 345.589Z" fill="white"/>
<path d="M212.01 345.654L209.727 344.988L206.33 356.628L208.612 357.295L212.01 345.654Z" fill="#263238"/>
<path d="M249.484 294.466C247.503 297.101 245.626 299.578 243.853 301.896C237.076 310.96 232.262 317.395 228.562 322.581C224.416 328.166 220.819 334.138 217.818 340.413C216.614 342.969 215.425 345.748 214.103 349.017L167.353 336.549C176.15 303.857 183.699 286.739 187.459 278.194L187.578 277.927C188.738 275.368 190.767 273.303 193.305 272.098C195.843 270.893 198.726 270.626 201.442 271.344C204.8 272.25 208.724 273.394 212.364 274.628C219.148 277.132 225.748 280.112 232.113 283.544C238.158 286.763 243.963 290.413 249.484 294.466V294.466Z" fill="#146A5D" fill-opacity="0.76"/>
<path d="M201.442 271.433C195.29 269.813 204.34 291.449 218.323 295.669C232.306 299.89 240.717 294.704 240.732 290.691C240.747 286.679 220.002 276.396 201.442 271.433Z" fill="#B97964"/>
<path d="M205.543 271.032C205.543 271.032 210.239 292.222 205.543 307.78C200.848 323.339 162.449 417.492 162.449 417.492H142.047C142.047 417.492 148.362 371.025 167.309 331.111C167.309 331.111 184.338 277.481 184.725 275.118C185.111 272.755 194.176 268.966 205.543 271.032Z" fill="#146A5D" fill-opacity="0.76"/>
<path d="M232.306 282.34C232.306 282.34 232.915 304.05 224.876 323.294L223.286 405.321C223.286 405.321 229.884 363.178 232.797 331.111L250.198 294.466L232.306 282.34Z" fill="#146A5D" fill-opacity="0.76"/>
<path opacity="0.8" d="M205.543 307.78C200.833 323.324 162.449 417.492 162.449 417.492H142.047C142.047 417.492 147.827 375.007 164.931 336.401C165.719 334.632 166.521 332.864 167.353 331.111C167.353 331.111 168.973 326.014 171.217 318.881C176.269 302.906 184.502 276.753 184.769 275.118C185.155 272.77 194.176 268.892 205.573 271.032C205.543 271.032 210.239 292.222 205.543 307.78Z" fill="white"/>
<path opacity="0.8" d="M232.306 282.34C232.306 282.34 232.915 304.05 224.876 323.294L223.286 405.321C223.286 405.321 229.884 363.178 232.797 331.111L250.198 294.466L232.306 282.34Z" fill="white"/>
<path d="M232.811 280.512C232.811 280.512 238.993 285.505 243.065 298.731L234.788 304.63L236.794 310.039L224.906 328.986C224.391 324.068 224.713 319.099 225.857 314.289C227.729 307.26 233.376 286.501 232.811 280.512Z" fill="#146A5D" fill-opacity="0.76"/>
<path d="M207.639 271.032C211.993 288.695 209.267 307.36 200.045 323.042C200.045 323.042 199.585 303.278 196.91 296.071L203.285 293.53L190.698 285.312C190.698 285.312 200.907 268.594 207.639 271.032Z" fill="#146A5D" fill-opacity="0.76"/>
<path opacity="0.7" d="M232.811 280.512C232.811 280.512 238.993 285.505 243.065 298.731L234.788 304.63L236.794 310.039L224.906 328.986C224.391 324.068 224.713 319.099 225.857 314.289C227.729 307.26 233.376 286.501 232.811 280.512Z" fill="white"/>
<path opacity="0.7" d="M207.639 271.032C211.993 288.695 209.267 307.36 200.045 323.042C200.045 323.042 199.585 303.278 196.91 296.071L203.285 293.53L190.698 285.312C190.698 285.312 200.907 268.594 207.639 271.032Z" fill="white"/>
<path opacity="0.2" d="M184.383 343.831C179.598 344.276 171.247 340.086 164.931 336.401C165.719 334.632 166.521 332.864 167.353 331.111C167.353 331.111 168.973 326.014 171.217 318.881C178.84 328.228 190.208 343.266 184.383 343.831Z" fill="black"/>
<path d="M187.756 373.714C187.756 373.714 192.378 374.353 201.279 365.838C210.18 357.324 222.083 347.338 224.966 348.705L251.327 361.425L215.767 386.687L187.756 373.714Z" fill="#146A5D" fill-opacity="0.76"/>
<path opacity="0.7" d="M187.756 373.714C187.756 373.714 192.378 374.353 201.279 365.838C210.18 357.324 222.083 347.338 224.966 348.705L251.327 361.425L215.767 386.687L187.756 373.714Z" fill="white"/>
<path d="M188.425 378.93L224.847 350.414C225.084 350.229 225.367 350.113 225.665 350.076C225.963 350.039 226.266 350.084 226.541 350.206L253.972 362.346C254.088 362.399 254.188 362.48 254.262 362.583C254.336 362.686 254.383 362.806 254.396 362.932C254.41 363.058 254.39 363.186 254.339 363.302C254.288 363.418 254.208 363.519 254.106 363.594L218.13 390.372C217.907 390.538 217.646 390.645 217.371 390.684C217.096 390.723 216.815 390.692 216.555 390.595L188.618 380.119C188.51 380.069 188.417 379.993 188.345 379.898C188.273 379.804 188.226 379.693 188.207 379.576C188.188 379.458 188.198 379.338 188.236 379.226C188.274 379.113 188.339 379.012 188.425 378.93V378.93Z" fill="#146A5D" fill-opacity="0.76"/>
<path d="M242.292 356.313C242.619 355.823 243.035 354.827 242.069 354.396C241.602 354.26 241.109 354.233 240.63 354.318C240.151 354.403 239.697 354.598 239.305 354.887C237.894 354.233 236.571 353.609 235.635 353.192C235.537 353.15 235.428 353.137 235.322 353.156C235.217 353.174 235.119 353.223 235.041 353.296L232.752 355.392C232.652 355.485 232.577 355.601 232.533 355.73C232.49 355.86 232.479 355.998 232.503 356.133C232.526 356.267 232.583 356.394 232.669 356.5C232.754 356.607 232.864 356.691 232.99 356.744L242.337 360.741C242.669 360.879 243.032 360.924 243.388 360.872C243.744 360.819 244.079 360.672 244.358 360.444L246.215 358.884C246.273 358.839 246.319 358.78 246.348 358.713C246.377 358.646 246.388 358.572 246.38 358.499C246.373 358.426 246.347 358.356 246.305 358.296C246.263 358.236 246.207 358.188 246.141 358.156L242.292 356.313ZM241.668 355.184C241.965 355.377 241.742 355.704 241.519 355.942L240.42 355.421C240.836 355.154 241.386 354.991 241.668 355.154V355.184Z" fill="#263238"/>
<path d="M196.152 349.106L202.23 357.234C202.23 357.234 208.174 358.408 209.66 359.969C212.406 363.077 214.849 366.441 216.956 370.014C217.535 371.574 208.783 375.884 207.668 375.304C206.554 374.725 200.313 365.898 199.525 364.323C199.298 363.823 199.18 363.281 199.18 362.733C199.18 362.184 199.298 361.642 199.525 361.143L193.076 353.713L196.152 349.106Z" fill="#B97964"/>
<path d="M184.769 275.118C190.252 278.09 190.713 289.889 190.713 289.889C190.713 289.889 178.127 314.304 177.339 318.123C176.551 321.942 200.61 352.94 200.61 352.94L194.963 358.2C194.963 358.2 165.956 327.113 162.821 319.564C159.685 312.015 184.769 275.118 184.769 275.118Z" fill="#146A5D" fill-opacity="0.76"/>
<path opacity="0.7" d="M184.769 275.118C190.252 278.09 190.713 289.889 190.713 289.889C190.713 289.889 178.127 314.304 177.339 318.123C176.551 321.942 200.61 352.94 200.61 352.94L194.963 358.2C194.963 358.2 165.956 327.113 162.821 319.564C159.685 312.015 184.769 275.118 184.769 275.118Z" fill="white"/>
<path d="M253.304 336.876C253.304 337.646 253.075 338.399 252.647 339.039C252.22 339.679 251.611 340.178 250.9 340.473C250.189 340.768 249.406 340.845 248.651 340.695C247.895 340.544 247.202 340.174 246.657 339.629C246.113 339.085 245.742 338.391 245.592 337.636C245.441 336.881 245.519 336.098 245.813 335.386C246.108 334.675 246.607 334.067 247.247 333.639C247.887 333.211 248.64 332.983 249.41 332.983C250.443 332.983 251.433 333.393 252.163 334.123C252.893 334.853 253.304 335.844 253.304 336.876V336.876Z" fill="#263238"/>
<g opacity="0.6">
<path d="M253.304 336.876C253.304 337.646 253.075 338.399 252.647 339.039C252.22 339.679 251.611 340.178 250.9 340.473C250.189 340.768 249.406 340.845 248.651 340.695C247.895 340.544 247.202 340.174 246.657 339.629C246.113 339.085 245.742 338.391 245.592 337.636C245.441 336.881 245.519 336.098 245.813 335.386C246.108 334.675 246.607 334.067 247.247 333.639C247.887 333.211 248.64 332.983 249.41 332.983C250.443 332.983 251.433 333.393 252.163 334.123C252.893 334.853 253.304 335.844 253.304 336.876V336.876Z" fill="white"/>
</g>
<path d="M234.595 304.779C234.707 302.376 234.98 299.983 235.412 297.616C236.809 288.789 238.384 278.774 225.188 273.067C221.206 271.344 217.669 271.373 214.682 273.171C207.921 277.243 206.182 289.012 205.841 292.088C204.664 291.949 203.472 292.083 202.356 292.48C201.24 292.877 200.23 293.526 199.406 294.377C194.577 299.533 196.776 311.406 196.88 311.911C196.898 312.006 196.934 312.097 196.987 312.178C197.041 312.259 197.109 312.328 197.19 312.382C197.27 312.436 197.36 312.473 197.455 312.492C197.55 312.511 197.647 312.51 197.742 312.491C197.935 312.455 198.105 312.344 198.217 312.182C198.328 312.021 198.371 311.822 198.336 311.629C198.336 311.51 196.167 300.009 200.476 295.402C201.239 294.632 202.183 294.066 203.221 293.754C204.26 293.443 205.359 293.396 206.42 293.619C207.535 293.691 208.617 294.028 209.576 294.601C210.534 295.175 211.343 295.969 211.933 296.918C215.663 302.966 211.428 315.017 211.383 315.136C211.321 315.323 211.335 315.527 211.421 315.705C211.507 315.883 211.659 316.02 211.844 316.087C211.928 316.102 212.013 316.102 212.097 316.087C212.248 316.083 212.396 316.034 212.52 315.947C212.644 315.86 212.74 315.738 212.795 315.597C212.973 315.077 217.253 302.758 213.196 296.1C212.55 295.058 211.683 294.17 210.656 293.5C209.629 292.829 208.467 292.393 207.252 292.222C207.594 289.354 209.288 278.075 215.381 274.39C217.937 272.904 221.013 272.904 224.535 274.39C236.675 279.635 235.263 288.641 233.881 297.334C233.44 299.789 233.162 302.271 233.049 304.764C232.871 316.652 236.69 335.836 247.746 336.237V334.751C237.492 334.35 234.446 314.393 234.595 304.779Z" fill="#263238"/>
<path opacity="0.2" d="M234.595 304.779C234.707 302.376 234.98 299.983 235.412 297.616C236.809 288.789 238.384 278.774 225.188 273.067C221.206 271.344 217.669 271.373 214.682 273.171C207.921 277.243 206.182 289.012 205.841 292.088C204.664 291.949 203.472 292.083 202.356 292.48C201.24 292.877 200.23 293.526 199.406 294.377C194.577 299.533 196.776 311.406 196.88 311.911C196.898 312.006 196.934 312.097 196.987 312.178C197.041 312.259 197.109 312.328 197.19 312.382C197.27 312.436 197.36 312.473 197.455 312.492C197.55 312.511 197.647 312.51 197.742 312.491C197.935 312.455 198.105 312.344 198.217 312.182C198.328 312.021 198.371 311.822 198.336 311.629C198.336 311.51 196.167 300.009 200.476 295.402C201.239 294.632 202.183 294.066 203.221 293.754C204.26 293.443 205.359 293.396 206.42 293.619C207.535 293.691 208.617 294.028 209.576 294.601C210.534 295.175 211.343 295.969 211.933 296.918C215.663 302.966 211.428 315.017 211.383 315.136C211.321 315.323 211.335 315.527 211.421 315.705C211.507 315.883 211.659 316.02 211.844 316.087C211.928 316.102 212.013 316.102 212.097 316.087C212.248 316.083 212.396 316.034 212.52 315.947C212.644 315.86 212.74 315.738 212.795 315.597C212.973 315.077 217.253 302.758 213.196 296.1C212.55 295.058 211.683 294.17 210.656 293.5C209.629 292.829 208.467 292.393 207.252 292.222C207.594 289.354 209.288 278.075 215.381 274.39C217.937 272.904 221.013 272.904 224.535 274.39C236.675 279.635 235.263 288.641 233.881 297.334C233.44 299.789 233.162 302.271 233.049 304.764C232.871 316.652 236.69 335.836 247.746 336.237V334.751C237.492 334.35 234.446 314.393 234.595 304.779Z" fill="white"/>
<path d="M212.899 314.244L210.848 313.828C210.848 313.828 209.362 317.098 210.566 317.677C211.77 318.257 213.583 315.953 212.899 314.244Z" fill="#263238"/>
<g opacity="0.6">
<path d="M212.899 314.244L210.848 313.828C210.848 313.828 209.362 317.098 210.566 317.677C211.77 318.257 213.583 315.953 212.899 314.244Z" fill="white"/>
</g>
<path d="M197.281 310.574H199.362C199.362 310.574 200.253 314.096 198.871 314.393C197.489 314.69 196.256 312.06 197.281 310.574Z" fill="#263238"/>
<g opacity="0.6">
<path d="M197.281 310.574H199.362C199.362 310.574 200.253 314.096 198.871 314.393C197.489 314.69 196.256 312.06 197.281 310.574Z" fill="white"/>
</g>
<path d="M248.563 337.352C249.77 337.352 250.748 336.374 250.748 335.167C250.748 333.961 249.77 332.983 248.563 332.983C247.357 332.983 246.379 333.961 246.379 335.167C246.379 336.374 247.357 337.352 248.563 337.352Z" fill="#263238"/>
<g opacity="0.7">
<path d="M248.563 337.352C249.77 337.352 250.748 336.374 250.748 335.167C250.748 333.961 249.77 332.983 248.563 332.983C247.357 332.983 246.379 333.961 246.379 335.167C246.379 336.374 247.357 337.352 248.563 337.352Z" fill="white"/>
</g>
<path d="M219.304 292.742C211.428 283.826 212.112 277.659 212.112 277.659C222.41 277.317 225.842 263.988 225.842 263.988L234.758 275.386C233.201 276.657 231.736 278.037 230.375 279.517C224.594 285.921 227.403 288.566 227.403 288.566C226.243 293.782 219.304 292.742 219.304 292.742Z" fill="#B97964"/>
<path opacity="0.2" d="M234.788 275.445C233.23 276.716 231.765 278.097 230.404 279.576C226.318 273.855 225.872 264.047 225.872 264.047L234.788 275.445Z" fill="black"/>
<path d="M244.477 233.391C256.498 236.363 258.816 243.704 256.677 256.32C254.002 272.087 247.879 282.266 233.644 275.296C214.296 265.816 224.49 228.532 244.477 233.391Z" fill="#B97964"/>
<path d="M249.053 253.764C249.583 255.795 250.351 257.755 251.342 259.604C250.868 260.015 250.289 260.286 249.67 260.388C249.051 260.491 248.416 260.42 247.835 260.184L249.053 253.764Z" fill="#A24E3F"/>
<path d="M241.936 250.985C241.713 251.981 240.999 252.665 240.331 252.471C239.662 252.278 239.305 251.401 239.528 250.406C239.751 249.41 240.464 248.727 241.118 248.92C241.772 249.113 242.218 249.99 241.936 250.985Z" fill="#263238"/>
<path d="M240.836 248.905L243.184 248.534C243.184 248.534 241.713 250.109 240.836 248.905Z" fill="#263238"/>
<path d="M254.329 253.482C254.121 254.478 253.407 255.161 252.739 254.968C252.07 254.775 251.713 253.898 251.936 252.902C252.159 251.907 252.872 251.223 253.526 251.416C254.18 251.61 254.552 252.486 254.329 253.482Z" fill="#263238"/>
<path d="M253.244 251.401L255.592 251.03C255.592 251.03 254.106 252.62 253.244 251.401Z" fill="#263238"/>
<path d="M238.176 243.704C238.091 243.705 238.008 243.685 237.933 243.646C237.858 243.607 237.793 243.55 237.745 243.481C237.66 243.366 237.624 243.223 237.644 243.081C237.663 242.94 237.737 242.811 237.849 242.723C238.761 242.147 239.794 241.792 240.868 241.687C241.941 241.581 243.024 241.727 244.031 242.114C244.155 242.171 244.252 242.273 244.303 242.399C244.354 242.525 244.355 242.667 244.306 242.794C244.257 242.921 244.161 243.024 244.038 243.083C243.915 243.142 243.774 243.151 243.644 243.11C242.807 242.797 241.909 242.678 241.019 242.76C240.129 242.842 239.269 243.124 238.503 243.585C238.408 243.656 238.294 243.698 238.176 243.704V243.704Z" fill="#263238"/>
<path d="M257.256 246.958C257.183 246.959 257.11 246.943 257.043 246.912C256.977 246.881 256.917 246.836 256.87 246.78C256.379 246.164 255.755 245.666 255.045 245.324C254.335 244.982 253.557 244.804 252.768 244.804C252.628 244.813 252.489 244.769 252.379 244.681C252.269 244.593 252.196 244.467 252.174 244.328C252.157 244.188 252.196 244.048 252.282 243.936C252.369 243.825 252.495 243.752 252.635 243.734C253.594 243.709 254.545 243.906 255.416 244.307C256.287 244.709 257.054 245.306 257.657 246.052C257.755 246.154 257.809 246.29 257.809 246.431C257.809 246.572 257.755 246.708 257.657 246.81C257.605 246.862 257.542 246.902 257.473 246.927C257.404 246.953 257.33 246.963 257.256 246.958V246.958Z" fill="#263238"/>
<path d="M226.377 250.465C226.377 250.465 234.416 241.951 235.427 234.119C235.427 234.119 261.64 230.181 256.929 254.671C256.929 254.671 264.493 233.748 243.912 228.235C223.331 222.722 216.064 252.992 224.594 264.612C224.549 264.612 221.414 255.8 226.377 250.465Z" fill="#263238"/>
<path d="M227.73 253.497C227.953 252.083 227.611 250.638 226.776 249.475C225.942 248.313 224.682 247.526 223.272 247.285C219.438 246.78 215.842 254.002 224.624 258.103C225.872 258.698 226.912 257.568 227.73 253.497Z" fill="#B97964"/>
<path d="M264.166 260.05C261.046 257.078 261.521 252.026 263.973 246.899C266.425 241.772 260.08 237.983 260.08 237.983C260.08 237.983 259.574 231.534 254.611 228.948C253.72 228.473 249.589 228.948 249.589 228.948C244.18 223.004 235.486 218.115 228.666 225.857C224.639 230.434 220.641 225.753 214.266 235.264C209.66 242.144 212.87 248.192 211.532 250.406C205.35 260.57 213.39 263.319 215.321 266.856C215.321 266.856 219.571 264.835 219.215 263.616C216.243 253.883 221.369 247.568 225.292 249.113C229.215 250.658 232.009 250.257 234.847 246.676C237.686 243.095 235.709 239.246 242.277 238.354C248.846 237.463 249.514 233.703 249.514 233.703C249.619 235.375 250.177 236.986 251.127 238.366C252.077 239.745 253.384 240.84 254.908 241.534C260.392 244.402 258.237 247.865 257.464 252.754C256.692 257.643 259.114 259.53 263.408 263.067C267.703 266.603 263.171 269.189 263.171 269.189C263.986 268.777 264.685 268.168 265.204 267.417C265.724 266.666 266.048 265.797 266.147 264.889C266.246 263.982 266.117 263.064 265.771 262.218C265.425 261.373 264.873 260.628 264.166 260.05V260.05Z" fill="#263238"/>
<path d="M246.928 265.637C245.864 266.6 244.871 267.637 243.956 268.743L243.303 268.357C240.331 266.588 239.588 264.805 239.603 263.349C239.64 262.645 239.838 261.959 240.182 261.343C240.371 260.986 240.605 260.657 240.88 260.362C242.213 262.26 243.935 263.851 245.933 265.028L246.928 265.637Z" fill="#263238"/>
<path d="M245.933 265.028L245.041 265.92C242.277 264.241 240.583 262.695 240.182 261.343C240.371 260.986 240.605 260.657 240.881 260.362C242.213 262.26 243.935 263.851 245.933 265.028V265.028Z" fill="white"/>
<path d="M243.303 268.357C240.331 266.588 239.588 264.805 239.603 263.349C240.711 264.043 241.687 264.929 242.485 265.964C243.003 266.656 243.289 267.493 243.303 268.357V268.357Z" fill="#DE5753"/>
<circle cx="414" cy="686" r="10" fill="#1D3F52"/>
<circle cx="209.5" cy="730.5" r="7.5" fill="#142E3D"/>
</svg>
