<svg width="1068" height="1081" viewBox="0 0 1068 1081" fill="none" xmlns="http://www.w3.org/2000/svg">
<g clip-path="url(#clip0_127_673)">
<rect x="0.89563" y="0.0966797" width="1066.75" height="1080.81" fill="#282763"/>
<path d="M58.772 65.7666V1001.61" stroke="#1E1D59" stroke-opacity="0.6"/>
<path d="M213.772 65.7666V1001.61" stroke="#1E1D59" stroke-opacity="0.6"/>
<path d="M368.772 65.7666V1001.61" stroke="#1E1D59" stroke-opacity="0.6"/>
<path d="M523.772 65.7666V1001.61" stroke="#1E1D59" stroke-opacity="0.6"/>
<path d="M678.772 65.7666V1001.61" stroke="#1E1D59" stroke-opacity="0.6"/>
<path d="M833.772 65.7666V1001.61" stroke="#1E1D59" stroke-opacity="0.6"/>
<path d="M988.772 65.7666V1001.61" stroke="#1E1D59" stroke-opacity="0.6"/>
<rect x="1205.24" y="938.696" width="195.472" height="95.1497" transform="rotate(-180 1205.24 938.696)" fill="#151443"/>
<rect x="1205.24" y="1010.61" width="270.667" height="95.1497" transform="rotate(-180 1205.24 1010.61)" fill="#151443"/>
<rect x="1205.24" y="1080.59" width="350.472" height="95.1497" transform="rotate(-180 1205.24 1080.59)" fill="#151443"/>
<circle cx="108.799" cy="325.919" r="1.38637" fill="#3E3D89"/>
<circle cx="108.799" cy="360.073" r="1.38637" fill="#3E3D89"/>
<circle cx="108.799" cy="394.227" r="1.38637" fill="#3E3D89"/>
<circle cx="108.799" cy="428.382" r="1.38637" fill="#3E3D89"/>
<circle cx="108.799" cy="462.536" r="1.38637" fill="#3E3D89"/>
<circle cx="108.799" cy="496.69" r="1.38637" fill="#3E3D89"/>
<circle cx="108.799" cy="530.844" r="1.38637" fill="#3E3D89"/>
<circle cx="129.497" cy="325.919" r="1.38637" fill="#3E3D89"/>
<circle cx="129.497" cy="360.073" r="1.38637" fill="#3E3D89"/>
<circle cx="129.497" cy="394.227" r="1.38637" fill="#3E3D89"/>
<circle cx="129.497" cy="428.382" r="1.38637" fill="#3E3D89"/>
<circle cx="129.497" cy="462.536" r="1.38637" fill="#3E3D89"/>
<circle cx="129.497" cy="496.69" r="1.38637" fill="#3E3D89"/>
<circle cx="129.497" cy="530.844" r="1.38637" fill="#3E3D89"/>
<circle cx="150.195" cy="325.919" r="1.38637" fill="#3E3D89"/>
<circle cx="150.195" cy="360.073" r="1.38637" fill="#3E3D89"/>
<circle cx="150.195" cy="394.227" r="1.38637" fill="#3E3D89"/>
<circle cx="150.195" cy="428.382" r="1.38637" fill="#3E3D89"/>
<circle cx="150.195" cy="462.536" r="1.38637" fill="#3E3D89"/>
<circle cx="150.195" cy="496.69" r="1.38637" fill="#3E3D89"/>
<circle cx="150.195" cy="530.844" r="1.38637" fill="#3E3D89"/>
<circle cx="170.893" cy="325.919" r="1.38637" fill="#3E3D89"/>
<circle cx="170.893" cy="360.073" r="1.38637" fill="#3E3D89"/>
<circle cx="170.893" cy="394.227" r="1.38637" fill="#3E3D89"/>
<circle cx="170.893" cy="428.382" r="1.38637" fill="#3E3D89"/>
<circle cx="170.893" cy="462.536" r="1.38637" fill="#3E3D89"/>
<circle cx="170.893" cy="496.69" r="1.38637" fill="#3E3D89"/>
<circle cx="170.893" cy="530.844" r="1.38637" fill="#3E3D89"/>
<circle cx="191.591" cy="325.919" r="1.38637" fill="#3E3D89"/>
<circle cx="191.591" cy="360.073" r="1.38637" fill="#3E3D89"/>
<circle cx="191.591" cy="394.227" r="1.38637" fill="#3E3D89"/>
<circle cx="191.591" cy="428.382" r="1.38637" fill="#3E3D89"/>
<circle cx="191.591" cy="462.536" r="1.38637" fill="#3E3D89"/>
<circle cx="191.591" cy="496.69" r="1.38637" fill="#3E3D89"/>
<circle cx="191.591" cy="530.844" r="1.38637" fill="#3E3D89"/>
<circle cx="212.289" cy="325.919" r="1.38637" fill="#3E3D89"/>
<circle cx="212.289" cy="360.073" r="1.38637" fill="#3E3D89"/>
<circle cx="212.289" cy="394.227" r="1.38637" fill="#3E3D89"/>
<circle cx="212.289" cy="428.382" r="1.38637" fill="#3E3D89"/>
<circle cx="212.289" cy="462.536" r="1.38637" fill="#3E3D89"/>
<circle cx="212.289" cy="496.69" r="1.38637" fill="#3E3D89"/>
<circle cx="212.289" cy="530.844" r="1.38637" fill="#3E3D89"/>
<circle cx="232.987" cy="325.919" r="1.38637" fill="#3E3D89"/>
<circle cx="232.987" cy="360.073" r="1.38637" fill="#3E3D89"/>
<circle cx="232.987" cy="394.227" r="1.38637" fill="#3E3D89"/>
<circle cx="232.987" cy="428.382" r="1.38637" fill="#3E3D89"/>
<circle cx="232.987" cy="462.536" r="1.38637" fill="#3E3D89"/>
<circle cx="232.987" cy="496.69" r="1.38637" fill="#3E3D89"/>
<circle cx="232.987" cy="530.844" r="1.38637" fill="#3E3D89"/>
<circle cx="253.685" cy="325.919" r="1.38637" fill="#3E3D89"/>
<circle cx="253.685" cy="360.073" r="1.38637" fill="#3E3D89"/>
<circle cx="253.685" cy="394.227" r="1.38637" fill="#3E3D89"/>
<circle cx="253.685" cy="428.382" r="1.38637" fill="#3E3D89"/>
<circle cx="253.685" cy="462.536" r="1.38637" fill="#3E3D89"/>
<circle cx="253.685" cy="496.69" r="1.38637" fill="#3E3D89"/>
<circle cx="253.685" cy="530.844" r="1.38637" fill="#3E3D89"/>
<circle cx="274.383" cy="325.919" r="1.38637" fill="#3E3D89"/>
<circle cx="274.383" cy="360.073" r="1.38637" fill="#3E3D89"/>
<circle cx="274.383" cy="394.227" r="1.38637" fill="#3E3D89"/>
<circle cx="274.383" cy="428.382" r="1.38637" fill="#3E3D89"/>
<circle cx="274.383" cy="462.536" r="1.38637" fill="#3E3D89"/>
<circle cx="274.383" cy="496.69" r="1.38637" fill="#3E3D89"/>
<circle cx="274.383" cy="530.844" r="1.38637" fill="#3E3D89"/>
<circle cx="295.081" cy="325.919" r="1.38637" fill="#3E3D89"/>
<circle cx="295.081" cy="360.073" r="1.38637" fill="#3E3D89"/>
<circle cx="295.081" cy="394.227" r="1.38637" fill="#3E3D89"/>
<circle cx="295.081" cy="428.382" r="1.38637" fill="#3E3D89"/>
<circle cx="295.081" cy="462.536" r="1.38637" fill="#3E3D89"/>
<circle cx="295.081" cy="496.69" r="1.38637" fill="#3E3D89"/>
<circle cx="295.081" cy="530.844" r="1.38637" fill="#3E3D89"/>
<circle cx="315.779" cy="325.919" r="1.38637" fill="#3E3D89"/>
<circle cx="315.779" cy="360.073" r="1.38637" fill="#3E3D89"/>
<circle cx="315.779" cy="394.227" r="1.38637" fill="#3E3D89"/>
<circle cx="315.779" cy="428.382" r="1.38637" fill="#3E3D89"/>
<circle cx="315.779" cy="462.536" r="1.38637" fill="#3E3D89"/>
<circle cx="315.779" cy="496.69" r="1.38637" fill="#3E3D89"/>
<circle cx="315.779" cy="530.844" r="1.38637" fill="#3E3D89"/>
<circle cx="336.477" cy="325.919" r="1.38637" fill="#3E3D89"/>
<circle cx="336.477" cy="360.073" r="1.38637" fill="#3E3D89"/>
<circle cx="336.477" cy="394.227" r="1.38637" fill="#3E3D89"/>
<circle cx="336.477" cy="428.382" r="1.38637" fill="#3E3D89"/>
<circle cx="336.477" cy="462.536" r="1.38637" fill="#3E3D89"/>
<circle cx="336.477" cy="496.69" r="1.38637" fill="#3E3D89"/>
<circle cx="336.477" cy="530.844" r="1.38637" fill="#3E3D89"/>
<circle cx="357.175" cy="325.919" r="1.38637" fill="#3E3D89"/>
<circle cx="357.175" cy="360.073" r="1.38637" fill="#3E3D89"/>
<circle cx="357.175" cy="394.227" r="1.38637" fill="#3E3D89"/>
<circle cx="357.175" cy="428.382" r="1.38637" fill="#3E3D89"/>
<circle cx="357.175" cy="462.536" r="1.38637" fill="#3E3D89"/>
<circle cx="357.175" cy="496.69" r="1.38637" fill="#3E3D89"/>
<circle cx="357.175" cy="530.844" r="1.38637" fill="#3E3D89"/>
<circle cx="377.873" cy="325.919" r="1.38637" fill="#3E3D89"/>
<circle cx="377.873" cy="360.073" r="1.38637" fill="#3E3D89"/>
<circle cx="377.873" cy="394.227" r="1.38637" fill="#3E3D89"/>
<circle cx="377.873" cy="428.382" r="1.38637" fill="#3E3D89"/>
<circle cx="377.873" cy="462.536" r="1.38637" fill="#3E3D89"/>
<circle cx="377.873" cy="496.69" r="1.38637" fill="#3E3D89"/>
<circle cx="377.873" cy="530.844" r="1.38637" fill="#3E3D89"/>
<rect x="0.895508" y="137.931" width="58" height="95.1497" fill="#151443"/>
<rect x="0.895508" y="65.4258" width="135" height="95.1497" fill="#151443"/>
<rect x="0.895508" y="0.0966797" width="213" height="95.1497" fill="#151443"/>
</g>
<defs>
<clipPath id="clip0_127_673">
<rect width="1067" height="1081" fill="white" transform="translate(0.771973)"/>
</clipPath>
</defs>
</svg>
