<svg width="27" height="36" viewBox="0 0 27 36" fill="none" xmlns="http://www.w3.org/2000/svg">
<circle cx="13.7801" cy="13.2619" r="10.2935" stroke="url(#paint0_linear_2_163)"/>
<circle cx="13.7801" cy="13.2619" r="12.37" stroke="url(#paint1_linear_2_163)"/>
<path d="M17.7315 7.82899L17.7132 7.81604L17.7087 7.82185L17.7315 7.82899Z" fill="#EA7268"/>
<path d="M17.7345 7.82898H17.7292L17.7382 7.8359L17.7345 7.82898Z" fill="#6CA87D"/>
<path d="M13.829 19.9809L13.7801 19.9649V20.0101H18.6249L17.7548 18.7855L13.829 19.9809Z" fill="#F3A06D"/>
<path d="M13.7806 13.1902L17.7565 18.7869L20.2426 15.174L13.7806 13.1902Z" fill="#F3A06D"/>
<path d="M17.756 18.7868L18.6265 20.0094H18.6722L20.2437 15.173L17.7576 18.7859L17.756 18.7868Z" fill="#F37123"/>
<path d="M13.829 19.9811L17.7548 18.7869L13.7789 13.1902V19.9647L13.829 19.9811Z" fill="#F37123"/>
<path d="M7.33209 15.2167L8.86077 19.9173L9.80618 18.6254L7.33209 15.2167Z" fill="#FBD871"/>
<path d="M9.81818 18.6415L13.7801 19.9635V13.1902L9.80457 18.6239L9.81818 18.6415Z" fill="#FBD871"/>
<path d="M9.81785 18.6418L9.80423 18.6226L8.85883 19.9145L8.88967 20.0098H13.7798V19.9646L9.81785 18.6418Z" fill="#F9BC15"/>
<path d="M13.7801 13.1902L7.33051 15.2168L9.80299 18.6219L13.7801 13.1902Z" fill="#F9BC15"/>
<path d="M20.2252 11.1643L21.6882 10.7048L17.7355 7.83337L20.2244 11.1607L20.2252 11.1643Z" fill="#EA4435"/>
<path d="M13.78 13.1901L20.2421 15.1735L20.2256 11.1647L13.78 13.1901Z" fill="#EA4435"/>
<path d="M21.6886 10.7047L20.2256 11.1642L20.2421 15.173L21.6926 10.7047H21.6886Z" fill="#EA7268"/>
<path d="M13.78 13.1889L20.2248 11.163V11.159L17.7359 7.83168L17.7291 7.82647L17.7095 7.82007L13.78 13.1889Z" fill="#EA7268"/>
<path d="M5.88678 10.7665L7.33213 15.2155L7.3802 11.2248L5.88678 10.7665Z" fill="#34A851"/>
<path d="M7.38137 11.224L13.7801 13.1869L9.92356 7.75806L7.35974 11.2156L7.38137 11.224Z" fill="#34A851"/>
<path d="M7.38089 11.2133L9.92307 7.76099L5.86743 10.709L5.88666 10.7671L7.38129 11.2253L7.38089 11.2133Z" fill="#6CA87D"/>
<path d="M7.35852 11.2188L7.33289 15.2167L13.7825 13.1901L7.35852 11.2188Z" fill="#6CA87D"/>
<path d="M13.7809 4.95935L9.92438 7.76353L13.7809 6.55734V4.95935Z" fill="#547DBF"/>
<path d="M13.7801 6.55493V13.19L17.7087 7.82202L13.7801 6.55493Z" fill="#547DBF"/>
<path d="M17.7087 7.82091L17.7127 7.81571L13.78 4.95825V6.55423L17.7087 7.82091Z" fill="#8DAFDC"/>
<path d="M13.7809 6.55469L9.92438 7.76128L13.7809 13.1898V6.55469Z" fill="#8DAFDC"/>
<path d="M8.49152 33.0646H7.56622V32.5787H8.49152C8.65265 32.5787 8.78286 32.5527 8.88214 32.5006C8.98142 32.4485 9.05385 32.3769 9.09943 32.2858C9.14663 32.193 9.17023 32.0872 9.17023 31.9684C9.17023 31.8561 9.14663 31.7511 9.09943 31.6534C9.05385 31.5542 8.98142 31.4744 8.88214 31.4142C8.78286 31.354 8.65265 31.3239 8.49152 31.3239H7.75421V34.3903H7.14142V30.8356H8.49152C8.76658 30.8356 9.00014 30.8844 9.1922 30.9821C9.38588 31.0781 9.53318 31.2115 9.63409 31.3824C9.73501 31.5517 9.78546 31.7454 9.78546 31.9635C9.78546 32.193 9.73501 32.3899 9.63409 32.5543C9.53318 32.7187 9.38588 32.8448 9.1922 32.9327C9.00014 33.0206 8.76658 33.0646 8.49152 33.0646ZM11.7391 30.8356V34.3903H11.1263V30.8356H11.7391ZM15.3504 33.233H15.9608C15.9412 33.4658 15.8761 33.6733 15.7654 33.8556C15.6548 34.0363 15.4993 34.1787 15.2991 34.2828C15.0989 34.387 14.8556 34.4391 14.5692 34.4391C14.3494 34.4391 14.1517 34.4 13.9759 34.3219C13.8001 34.2421 13.6496 34.1298 13.5242 33.985C13.3989 33.8385 13.3029 33.6619 13.2361 33.4552C13.171 33.2485 13.1385 33.0174 13.1385 32.7618V32.4664C13.1385 32.2109 13.1719 31.9798 13.2386 31.7731C13.3069 31.5664 13.4046 31.3898 13.5316 31.2433C13.6585 31.0952 13.8107 30.9821 13.9881 30.9039C14.1671 30.8258 14.3681 30.7867 14.5911 30.7867C14.8743 30.7867 15.1136 30.8388 15.3089 30.943C15.5042 31.0472 15.6556 31.1912 15.763 31.3751C15.872 31.559 15.9388 31.7698 15.9632 32.0074H15.3528C15.3366 31.8545 15.3008 31.7234 15.2454 31.6144C15.1917 31.5053 15.112 31.4223 15.0062 31.3654C14.9004 31.3068 14.762 31.2775 14.5911 31.2775C14.4512 31.2775 14.3291 31.3035 14.2249 31.3556C14.1207 31.4077 14.0337 31.4842 13.9637 31.5851C13.8937 31.686 13.8408 31.8105 13.805 31.9586C13.7708 32.1051 13.7537 32.2727 13.7537 32.4615V32.7618C13.7537 32.9409 13.7692 33.1036 13.8001 33.2501C13.8327 33.395 13.8815 33.5195 13.9466 33.6237C14.0133 33.7278 14.098 33.8084 14.2005 33.8654C14.303 33.9223 14.4259 33.9508 14.5692 33.9508C14.7433 33.9508 14.8841 33.9231 14.9915 33.8678C15.1006 33.8125 15.1828 33.7319 15.2381 33.6261C15.2951 33.5187 15.3325 33.3877 15.3504 33.233ZM19.1375 33.4747C19.1375 33.4015 19.1261 33.3364 19.1033 33.2794C19.0822 33.2225 19.0439 33.1704 18.9886 33.1232C18.9332 33.076 18.8551 33.0304 18.7542 32.9865C18.6549 32.9409 18.528 32.8945 18.3734 32.8473C18.2041 32.7952 18.0478 32.7374 17.9046 32.674C17.763 32.6088 17.6393 32.534 17.5335 32.4493C17.4277 32.3631 17.3455 32.2646 17.2869 32.1539C17.2283 32.0416 17.199 31.9122 17.199 31.7657C17.199 31.6209 17.2291 31.4891 17.2894 31.3702C17.3512 31.2514 17.4383 31.1489 17.5506 31.0626C17.6645 30.9747 17.7988 30.9072 17.9534 30.86C18.1081 30.8112 18.279 30.7867 18.4661 30.7867C18.7298 30.7867 18.9568 30.8356 19.1473 30.9332C19.3393 31.0309 19.4866 31.1619 19.5892 31.3263C19.6933 31.4907 19.7454 31.6722 19.7454 31.8707H19.1375C19.1375 31.7535 19.1123 31.6502 19.0618 31.5607C19.013 31.4695 18.9381 31.3979 18.8372 31.3458C18.7379 31.2937 18.6118 31.2677 18.4588 31.2677C18.3139 31.2677 18.1935 31.2897 18.0975 31.3336C18.0014 31.3776 17.9298 31.437 17.8826 31.5118C17.8354 31.5867 17.8118 31.6713 17.8118 31.7657C17.8118 31.8325 17.8273 31.8935 17.8582 31.9489C17.8891 32.0026 17.9363 32.053 17.9998 32.1002C18.0633 32.1458 18.143 32.1889 18.2391 32.2296C18.3351 32.2703 18.4482 32.3094 18.5784 32.3468C18.7754 32.4054 18.9471 32.4705 19.0936 32.5421C19.2401 32.6121 19.3621 32.6919 19.4598 32.7814C19.5574 32.8709 19.6307 32.9726 19.6795 33.0865C19.7283 33.1989 19.7527 33.3266 19.7527 33.4698C19.7527 33.6196 19.7226 33.7547 19.6624 33.8751C19.6022 33.9939 19.5159 34.0957 19.4036 34.1803C19.2929 34.2633 19.1595 34.3276 19.0032 34.3732C18.8486 34.4171 18.6761 34.4391 18.4857 34.4391C18.3148 34.4391 18.1463 34.4163 17.9803 34.3707C17.8159 34.3252 17.6662 34.256 17.5311 34.1632C17.396 34.0688 17.2886 33.9516 17.2088 33.8116C17.129 33.67 17.0892 33.5048 17.0892 33.316H17.702C17.702 33.4316 17.7215 33.5301 17.7606 33.6115C17.8012 33.6928 17.8574 33.7596 17.929 33.8116C18.0006 33.8621 18.0836 33.8995 18.178 33.924C18.2741 33.9484 18.3766 33.9606 18.4857 33.9606C18.6289 33.9606 18.7485 33.9402 18.8445 33.8995C18.9422 33.8588 19.0154 33.8019 19.0643 33.7286C19.1131 33.6554 19.1375 33.5708 19.1375 33.4747Z" fill="white"/>
<defs>
<linearGradient id="paint0_linear_2_163" x1="13.7801" y1="2.46838" x2="13.7801" y2="24.0553" gradientUnits="userSpaceOnUse">
<stop stop-color="#2C2863"/>
<stop offset="0.0001" stop-color="#302B71"/>
<stop offset="1" stop-color="#5548FC"/>
</linearGradient>
<linearGradient id="paint1_linear_2_163" x1="13.7801" y1="0.391846" x2="13.7801" y2="26.1319" gradientUnits="userSpaceOnUse">
<stop stop-color="#2C2863"/>
<stop offset="0.0001" stop-color="#302B71"/>
<stop offset="1" stop-color="#5548FC" stop-opacity="0.23"/>
</linearGradient>
</defs>
</svg>
