<svg width="27" height="27" viewBox="0 0 27 27" fill="none" xmlns="http://www.w3.org/2000/svg">
<circle cx="13.7801" cy="13.2619" r="10.2935" stroke="url(#paint0_linear_2_163)"/>
<circle cx="13.7801" cy="13.2619" r="12.37" stroke="url(#paint1_linear_2_163)"/>
<path d="M17.7315 7.82899L17.7132 7.81604L17.7087 7.82185L17.7315 7.82899Z" fill="#EA7268"/>
<path d="M17.7345 7.82898H17.7292L17.7382 7.8359L17.7345 7.82898Z" fill="#6CA87D"/>
<path d="M13.829 19.9809L13.7801 19.9649V20.0101H18.6249L17.7548 18.7855L13.829 19.9809Z" fill="#F3A06D"/>
<path d="M13.7806 13.1902L17.7565 18.7869L20.2426 15.174L13.7806 13.1902Z" fill="#F3A06D"/>
<path d="M17.756 18.7868L18.6265 20.0094H18.6722L20.2437 15.173L17.7576 18.7859L17.756 18.7868Z" fill="#F37123"/>
<path d="M13.829 19.9811L17.7548 18.7869L13.7789 13.1902V19.9647L13.829 19.9811Z" fill="#F37123"/>
<path d="M7.33209 15.2167L8.86077 19.9173L9.80618 18.6254L7.33209 15.2167Z" fill="#FBD871"/>
<path d="M9.81818 18.6415L13.7801 19.9635V13.1902L9.80457 18.6239L9.81818 18.6415Z" fill="#FBD871"/>
<path d="M9.81785 18.6418L9.80423 18.6226L8.85883 19.9145L8.88967 20.0098H13.7798V19.9646L9.81785 18.6418Z" fill="#F9BC15"/>
<path d="M13.7801 13.1902L7.33051 15.2168L9.80299 18.6219L13.7801 13.1902Z" fill="#F9BC15"/>
<path d="M20.2252 11.1643L21.6882 10.7048L17.7355 7.83337L20.2244 11.1607L20.2252 11.1643Z" fill="#EA4435"/>
<path d="M13.78 13.1901L20.2421 15.1735L20.2256 11.1647L13.78 13.1901Z" fill="#EA4435"/>
<path d="M21.6886 10.7047L20.2256 11.1642L20.2421 15.173L21.6926 10.7047H21.6886Z" fill="#EA7268"/>
<path d="M13.78 13.1889L20.2248 11.163V11.159L17.7359 7.83168L17.7291 7.82647L17.7095 7.82007L13.78 13.1889Z" fill="#EA7268"/>
<path d="M5.88678 10.7665L7.33213 15.2155L7.3802 11.2248L5.88678 10.7665Z" fill="#34A851"/>
<path d="M7.38137 11.224L13.7801 13.1869L9.92356 7.75806L7.35974 11.2156L7.38137 11.224Z" fill="#34A851"/>
<path d="M7.38089 11.2133L9.92307 7.76099L5.86743 10.709L5.88666 10.7671L7.38129 11.2253L7.38089 11.2133Z" fill="#6CA87D"/>
<path d="M7.35852 11.2188L7.33289 15.2167L13.7825 13.1901L7.35852 11.2188Z" fill="#6CA87D"/>
<path d="M13.7809 4.95935L9.92438 7.76353L13.7809 6.55734V4.95935Z" fill="#547DBF"/>
<path d="M13.7801 6.55493V13.19L17.7087 7.82202L13.7801 6.55493Z" fill="#547DBF"/>
<path d="M17.7087 7.82091L17.7127 7.81571L13.78 4.95825V6.55423L17.7087 7.82091Z" fill="#8DAFDC"/>
<path d="M13.7809 6.55469L9.92438 7.76128L13.7809 13.1898V6.55469Z" fill="#8DAFDC"/>
<defs>
<linearGradient id="paint0_linear_2_163" x1="13.7801" y1="2.46838" x2="13.7801" y2="24.0553" gradientUnits="userSpaceOnUse">
<stop stop-color="#2C2863"/>
<stop offset="0.0001" stop-color="#302B71"/>
<stop offset="1" stop-color="#5548FC"/>
</linearGradient>
<linearGradient id="paint1_linear_2_163" x1="13.7801" y1="0.391846" x2="13.7801" y2="26.1319" gradientUnits="userSpaceOnUse">
<stop stop-color="#2C2863"/>
<stop offset="0.0001" stop-color="#302B71"/>
<stop offset="1" stop-color="#5548FC" stop-opacity="0.23"/>
</linearGradient>
</defs>
</svg>
