<svg width="40" height="40" viewBox="0 0 40 40" fill="none" xmlns="http://www.w3.org/2000/svg">
<path d="M35.3995 9.91827C35.3275 10.0703 35.2411 10.2039 35.0483 10.214C34.9134 10.2212 34.8022 10.1764 34.7264 10.0649C34.7111 10.0386 34.6888 10.0172 34.6618 10.003C34.6349 9.98889 34.6045 9.98262 34.5742 9.98494C33.4857 9.98707 32.3973 9.98707 31.309 9.98494C31.2788 9.983 31.2486 9.98944 31.2218 10.0036C31.1951 10.0177 31.1727 10.0389 31.1572 10.0649C31.111 10.1313 31.0437 10.18 30.9662 10.2032C30.8887 10.2264 30.8057 10.2227 30.7306 10.1927C30.6548 10.1649 30.5904 10.1128 30.5474 10.0445C30.5044 9.97626 30.4853 9.89566 30.493 9.81534C30.5085 9.66068 30.6263 9.52415 30.7698 9.49322C30.9444 9.45562 31.1058 9.52389 31.1836 9.68335C31.2162 9.74975 31.2514 9.77161 31.3234 9.77135C32.3985 9.76921 33.4736 9.76868 34.5486 9.76975C34.6057 9.76975 34.6552 9.77535 34.6867 9.70095C34.752 9.54495 34.8798 9.47642 35.0491 9.48762C35.2184 9.49882 35.3158 9.59162 35.371 9.74308C35.3784 9.75772 35.3874 9.77156 35.3976 9.78441L35.3995 9.91827Z" fill="white"/>
<path d="M8.93565 19.8067C7.28584 19.7019 6.07815 20.4118 5.20458 21.7864C4.92753 21.4248 4.71153 21.0499 4.63074 20.6088C4.50754 19.9366 4.77367 19.395 5.21392 18.9171C5.41018 18.7038 5.60724 18.4942 5.67977 18.2014C5.70777 18.0889 5.7299 17.9748 5.7179 17.8596C5.69257 17.6159 5.75363 17.3924 5.86963 17.1831C6.43734 16.1599 7.27144 15.5031 8.45007 15.3346C9.08631 15.2431 9.71642 15.3053 10.3407 15.4426C11.7305 15.7485 13.1174 16.0703 14.5224 16.3018C15.0696 16.3919 15.617 16.4674 16.177 16.4247C17.3916 16.3322 18.3753 15.8069 19.1369 14.8664C19.5947 14.3002 19.9617 13.6683 20.3902 13.0798C20.6854 12.6744 20.9768 12.2656 21.2784 11.8662C21.5282 11.5417 21.8339 11.2644 22.181 11.0473C23.1645 10.419 24.1751 9.8364 25.1815 9.24682C26.0438 8.74018 26.8427 8.15353 27.4793 7.37169C27.8737 6.89108 28.1821 6.34592 28.391 5.76028C28.4059 5.71868 28.4235 5.67815 28.4443 5.62695C28.5453 5.70215 28.6171 5.79521 28.6901 5.88561C29.1048 6.40026 29.3669 6.97304 29.3781 7.64555C29.3917 8.49085 29.0389 9.16896 28.4083 9.70201C27.7664 10.2449 27.0174 10.6164 26.2537 10.9553C25.386 11.3409 24.489 11.6507 23.5823 11.9259C22.9581 12.1153 22.4746 12.471 22.089 12.9811C21.7691 13.4064 21.4491 13.8331 21.1024 14.237C20.2307 15.2503 19.2558 16.1407 18.0639 16.7703C17.1217 17.2728 16.0839 17.5707 15.0186 17.6444C14.868 17.6548 14.7173 17.6612 14.5666 17.6687C14.5602 17.6687 14.5536 17.6617 14.5336 17.6503C14.6978 17.5591 14.8554 17.4729 15.0112 17.3836C15.0432 17.3652 15.1013 17.3617 15.097 17.3148C15.0933 17.2743 15.0402 17.2633 15.0066 17.2441C14.7986 17.126 14.5664 17.0841 14.3365 17.0367C12.7659 16.7068 11.1996 16.3551 9.62309 16.0548C8.4578 15.833 7.47277 16.1818 6.75333 17.1596C6.5472 17.4396 6.42667 17.7481 6.43734 18.1113C6.45121 18.5838 6.23441 18.9553 5.85603 19.2342C5.74536 19.3155 5.62777 19.3889 5.52404 19.4782C5.36138 19.619 5.28538 19.7928 5.35124 20.0128C5.37924 20.1064 5.41044 20.1299 5.50777 20.0814C5.97656 19.8475 6.45814 19.6449 6.96879 19.5182C7.63543 19.3529 8.27114 19.4115 8.87005 19.763C8.89378 19.7784 8.91432 19.7928 8.93565 19.8067Z" fill="white"/>
<path d="M20.4296 25.0425C20.5464 25.2441 20.66 25.4375 20.7712 25.6324C21.4173 26.7659 22.009 27.9256 22.4002 29.1755C22.5964 29.8029 22.7527 30.441 22.8049 31.0954C22.866 31.8567 22.6508 32.5513 22.2183 33.1788C21.8779 33.6758 21.4132 34.0751 20.8706 34.3369C20.8381 34.3529 20.8002 34.3937 20.764 34.3603C20.7373 34.3355 20.7584 34.2921 20.7656 34.2587C21.057 32.9121 21.1655 31.5492 21.1274 30.1741C21.0943 28.9595 20.9466 27.7544 20.7205 26.5596C20.6314 26.0897 20.5338 25.6217 20.4229 25.1561C20.4154 25.1244 20.3981 25.0905 20.4296 25.0425Z" fill="white"/>
<path d="M14.6536 7.41357C14.4794 7.7037 14.3152 7.98129 14.1682 8.26874C13.6333 9.31724 13.2883 10.4209 13.1848 11.5974C13.0611 13.024 13.308 14.3939 13.8064 15.7269C13.8211 15.7666 13.8864 15.8165 13.8021 15.8578C13.736 15.8901 13.6928 15.8909 13.6352 15.8215C12.7934 14.8056 12.311 13.6299 12.0811 12.343C11.9744 11.7422 11.9632 11.135 12.0011 10.5271C12.0123 10.3449 11.9931 10.1639 11.9918 9.98228C11.9859 9.23991 12.2051 8.58473 12.763 8.07088C13.2117 7.6589 13.7563 7.4669 14.3557 7.41571C14.4477 7.40771 14.5408 7.41357 14.6536 7.41357Z" fill="white"/>
<path d="M14.2949 15.8874C14.2131 15.556 14.1592 15.2474 14.1083 14.9376C13.9968 14.2485 13.936 13.5563 13.9723 12.8576C14 12.2596 14.1026 11.6673 14.2776 11.0948C14.5128 10.3369 15.0293 9.96335 15.8261 9.98228C16.0833 9.98847 16.3395 10.0176 16.5917 10.0692C16.7058 10.0921 16.7098 10.1143 16.641 10.2025C16.0613 10.9446 15.6074 11.7598 15.2469 12.6291C14.8357 13.6184 14.5565 14.6474 14.3363 15.6935C14.3253 15.7482 14.3131 15.8037 14.2949 15.8874Z" fill="white"/>
<path d="M15.9336 18.4953C15.6848 18.4953 15.436 18.4972 15.1869 18.4937C15.1229 18.4937 15.0864 18.5078 15.0536 18.5686C15.0166 18.6407 14.9558 18.6978 14.8816 18.7302C14.8073 18.7626 14.7241 18.7683 14.6461 18.7465C14.5679 18.7276 14.4981 18.6834 14.4476 18.6207C14.397 18.5581 14.3685 18.4806 14.3665 18.4001C14.3644 18.3197 14.389 18.2408 14.4363 18.1757C14.4836 18.1106 14.5511 18.063 14.6283 18.0401C14.796 17.99 14.9549 18.0476 15.0501 18.207C15.0617 18.232 15.0808 18.2528 15.1046 18.2665C15.1285 18.2802 15.156 18.2861 15.1834 18.2836C15.6634 18.2807 16.1434 18.2807 16.6234 18.2836C16.6809 18.2841 16.7376 18.2704 16.7885 18.2436C17.6332 17.813 18.4785 17.3832 19.3244 16.954C19.3909 16.9188 19.4512 16.8729 19.503 16.8183C20.3634 15.9522 21.2241 15.0862 22.0851 14.2202C22.1469 14.1629 22.2049 14.1015 22.2587 14.0365C22.5659 13.6312 23.032 13.4725 23.4632 13.2632C24.3989 12.8067 25.338 12.3566 26.274 11.9014C26.396 11.8399 26.5309 11.8082 26.6676 11.8089C28.7379 11.8122 30.8081 11.8134 32.8783 11.8123C32.9639 11.8123 33.0172 11.8102 33.0447 11.7019C33.0857 11.5401 33.25 11.451 33.418 11.4657C33.4962 11.4726 33.5702 11.5044 33.629 11.5565C33.6878 11.6085 33.7283 11.6781 33.7446 11.7549C33.7609 11.8318 33.752 11.9118 33.7194 11.9833C33.6868 12.0547 33.6321 12.1138 33.5633 12.1518C33.4271 12.2281 33.2415 12.2102 33.1332 12.095C33.078 12.0363 33.0225 12.0227 32.9465 12.023C30.8451 12.0242 28.7438 12.0242 26.6425 12.023C26.5632 12.0221 26.4847 12.0398 26.4134 12.0747C25.2222 12.6516 24.0295 13.2275 22.8354 13.8024C22.7769 13.8338 22.7243 13.8751 22.68 13.9245C21.6596 14.9512 20.6394 15.978 19.6196 17.0049C19.4676 17.1583 19.2657 17.2215 19.083 17.3164C18.3396 17.7025 17.5898 18.078 16.8445 18.4585C16.7932 18.4845 16.7363 18.4974 16.6789 18.4961C16.4301 18.494 16.1813 18.4953 15.9336 18.4953Z" fill="white"/>
<path d="M20.5165 27.8502C20.5864 28.6979 20.6627 29.5453 20.7229 30.3938C20.7517 30.7994 20.8051 31.209 20.7405 31.6143C20.6213 32.3631 19.9656 32.9636 19.2099 33.0468C19.1105 33.0577 19.1094 33.0337 19.1315 32.9516C19.3038 32.3148 19.4718 31.6767 19.6416 31.0391C19.9129 30.0214 20.1844 29.0037 20.456 27.9859C20.4683 27.9398 20.4827 27.8947 20.4979 27.8491L20.5165 27.8502Z" fill="white"/>
<path d="M16.8269 12.5318C17.1293 12.5416 17.4274 12.6355 17.7175 12.7632C17.8122 12.8048 17.754 12.8376 17.7175 12.8736C17.0327 13.5568 16.3476 14.24 15.6621 14.9231C15.4363 15.1487 15.2102 15.3743 14.9837 15.5999C14.9448 15.6386 14.9139 15.6951 14.84 15.6533C14.7621 15.609 14.8205 15.5583 14.8333 15.5178C15.0371 14.8728 15.2035 14.2149 15.484 13.5963C15.6296 13.2747 15.8074 12.9752 16.1 12.76C16.3114 12.6038 16.5496 12.5358 16.8269 12.5318Z" fill="white"/>
<path d="M21.9316 20.9525C22.7049 21.9288 23.4782 22.9053 24.2624 23.897C23.8168 24.0212 23.3942 24.026 22.9825 23.8354C22.5854 23.6516 22.3401 23.3274 22.1764 22.9354C21.9745 22.4536 21.9137 21.9445 21.9046 21.4269C21.902 21.2725 21.9046 21.1179 21.9046 20.9632L21.9316 20.9525Z" fill="white"/>
<path d="M22.2143 15.881C22.2277 15.881 22.2434 15.8765 22.2541 15.881C22.4319 15.9719 22.5207 15.8418 22.6252 15.7381C22.909 15.4567 23.1975 15.1805 23.4817 14.9C23.5304 14.855 23.5865 14.8189 23.6476 14.7933C24.6438 14.3301 25.6411 13.8691 26.6342 13.4011C26.7619 13.3405 26.9018 13.3099 27.0432 13.3117C28.3449 13.3135 29.6464 13.3143 30.9479 13.3141C31.0457 13.3141 31.118 13.3072 31.1767 13.2054C31.2537 13.072 31.4292 13.0304 31.5767 13.0803C31.6513 13.1036 31.7163 13.1509 31.7616 13.2147C31.8069 13.2785 31.8299 13.3554 31.8273 13.4336C31.8267 13.5095 31.8025 13.5834 31.7582 13.645C31.7138 13.7066 31.6514 13.7529 31.5796 13.7776C31.4249 13.8256 31.2457 13.7776 31.1676 13.6405C31.1108 13.5403 31.042 13.5277 30.9423 13.528C29.6268 13.5307 28.3119 13.5307 26.9976 13.528C26.9137 13.5273 26.8306 13.5455 26.7547 13.5813C25.7554 14.0485 24.7553 14.514 23.7543 14.9778C23.6401 15.0312 23.5644 15.1223 23.4788 15.2039C23.2031 15.4677 22.9338 15.7373 22.6594 16.0039C22.5986 16.0628 22.5671 16.1146 22.582 16.2098C22.6138 16.4162 22.4527 16.5935 22.2447 16.606C22.196 16.6099 22.1471 16.6039 22.1007 16.5884C22.0544 16.5729 22.0117 16.5483 21.9751 16.5159C21.9385 16.4836 21.9087 16.4442 21.8877 16.4001C21.8666 16.356 21.8546 16.3082 21.8525 16.2594C21.8498 16.2104 21.8572 16.1613 21.8742 16.1153C21.8912 16.0693 21.9175 16.0272 21.9514 15.9917C21.9853 15.9563 22.0261 15.9281 22.0714 15.9091C22.1166 15.89 22.1653 15.8805 22.2143 15.881Z" fill="white"/>
<path d="M22.774 19.3475C22.0678 19.3475 21.3616 19.3475 20.6554 19.3475C20.5754 19.3475 20.522 19.351 20.4866 19.4459C20.4276 19.603 20.2642 19.6747 20.093 19.6475C20.0203 19.6357 19.953 19.6016 19.9005 19.5499C19.8479 19.4982 19.8127 19.4315 19.7997 19.359C19.7746 19.1833 19.8503 19.0281 19.9951 18.959C20.1455 18.8865 20.3284 18.915 20.4298 19.0476C20.4866 19.1214 20.5447 19.1377 20.63 19.1374C21.9713 19.1353 23.3126 19.1358 24.6539 19.139C24.7808 19.139 24.8077 19.1012 24.8037 18.9838C24.7955 18.7313 24.8059 18.4772 24.7989 18.2255C24.7963 18.1249 24.8256 18.0983 24.9264 18.0991C25.6104 18.1033 26.2944 18.0991 26.9797 18.1044C27.1005 18.1044 27.1269 18.0711 27.1247 17.9564C27.1178 17.5436 27.1207 17.1311 27.1247 16.7183C27.1247 16.642 27.1122 16.5919 27.0365 16.5471C26.8855 16.4583 26.8349 16.2903 26.8893 16.1314C26.9463 15.9634 27.0735 15.8767 27.2538 15.8823C27.3293 15.8835 27.4024 15.9089 27.4623 15.9549C27.5222 16.0008 27.5657 16.0649 27.5863 16.1375C27.6324 16.3109 27.5727 16.4751 27.4151 16.558C27.3415 16.597 27.3303 16.6442 27.3306 16.7156C27.3325 17.1994 27.3263 17.6831 27.3351 18.1668C27.3373 18.2964 27.2917 18.3161 27.1773 18.3153C26.5021 18.3105 25.8272 18.3153 25.152 18.3105C25.044 18.3105 25.0056 18.3348 25.0093 18.4486C25.0179 18.7057 25.0061 18.9636 25.0147 19.2206C25.0184 19.3305 24.9797 19.3502 24.8797 19.3497C24.1774 19.3457 23.4758 19.3475 22.774 19.3475Z" fill="white"/>
<path d="M31.7996 8.91031C32.4436 8.91031 33.0873 8.91031 33.7313 8.91031C33.8163 8.91031 33.8718 8.90605 33.9062 8.80365C33.9595 8.64366 34.1273 8.56366 34.2926 8.58846C34.3675 8.60048 34.4369 8.63521 34.4915 8.68795C34.546 8.74069 34.5831 8.80891 34.5976 8.88338C34.6128 8.9625 34.6015 9.04443 34.5653 9.11643C34.5291 9.18842 34.4702 9.24645 34.3976 9.2815C34.3276 9.31681 34.2479 9.3281 34.1708 9.31365C34.0937 9.29919 34.0235 9.25979 33.971 9.2015C33.9494 9.17442 33.9216 9.15298 33.8899 9.13904C33.8583 9.1251 33.8237 9.11909 33.7891 9.12151C32.546 9.12328 31.3026 9.12328 30.0591 9.12151C29.949 9.12151 29.9162 9.14817 29.9178 9.26097C29.9239 9.72655 29.921 10.1924 29.9199 10.6583C29.9199 10.8641 29.9423 10.8385 29.7333 10.8393C29.409 10.8407 29.0849 10.8407 28.7608 10.8393C28.6898 10.8393 28.6408 10.8524 28.5955 10.9193C28.5497 10.9856 28.4827 11.0344 28.4055 11.0575C28.3284 11.0806 28.2456 11.0768 28.1709 11.0465C28.095 11.0184 28.0305 10.9659 27.9877 10.8971C27.9449 10.8284 27.9261 10.7473 27.9344 10.6668C27.9501 10.5127 28.0677 10.3759 28.2115 10.3452C28.3864 10.3079 28.5496 10.3751 28.6243 10.5361C28.6602 10.6137 28.7066 10.6239 28.7784 10.6231C29.0402 10.6204 29.3024 10.6169 29.5642 10.6231C29.673 10.6263 29.7082 10.5977 29.7066 10.4844C29.7005 10.0044 29.7066 9.52602 29.7015 9.04711C29.7002 8.93698 29.7301 8.90525 29.8413 8.90605C30.493 8.91298 31.1468 8.91031 31.7996 8.91031Z" fill="white"/>
<path d="M16.931 19.6532C16.8644 19.6531 16.7995 19.6323 16.7453 19.5936C16.6911 19.5548 16.6503 19.5002 16.6287 19.4372C16.5977 19.3572 16.554 19.3473 16.4823 19.3476C16.0912 19.3499 15.7001 19.3499 15.309 19.3476C15.2428 19.3476 15.1994 19.3572 15.1615 19.4244C15.1237 19.4957 15.0623 19.5516 14.9877 19.5825C14.9131 19.6133 14.8301 19.6172 14.753 19.5934C14.5834 19.5446 14.4837 19.4142 14.4839 19.2417C14.4814 19.1611 14.5065 19.0821 14.555 19.0178C14.6035 18.9534 14.6725 18.9075 14.7506 18.8876C14.8275 18.863 14.9106 18.8661 14.9855 18.8965C15.0603 18.9268 15.1221 18.9825 15.1602 19.0537C15.2004 19.1284 15.2476 19.1358 15.318 19.1356C15.718 19.1334 16.118 19.1334 16.518 19.1356C16.5479 19.1386 16.5781 19.1335 16.6053 19.1208C16.6325 19.1081 16.6558 19.0882 16.6727 19.0633C16.806 18.8865 17.0609 18.8639 17.2086 19.0244C17.2801 19.1022 17.3294 19.0812 17.3988 19.047C18.0032 18.7487 18.6076 18.4505 19.212 18.1524C19.283 18.1166 19.3616 18.0983 19.4411 18.0991C20.5429 18.1012 21.6447 18.0991 22.7476 18.1015C22.8327 18.1015 22.8876 18.1015 22.9138 17.9908C22.9524 17.8287 23.117 17.7375 23.2847 17.7508C23.363 17.7569 23.4373 17.7879 23.4966 17.8394C23.5559 17.8908 23.5972 17.96 23.6142 18.0366C23.6313 18.1133 23.6233 18.1934 23.5915 18.2652C23.5596 18.337 23.5055 18.3966 23.4372 18.4353C23.3692 18.4743 23.2905 18.4901 23.2127 18.4805C23.135 18.4709 23.0625 18.4363 23.006 18.382C22.9498 18.3249 22.893 18.3113 22.8194 18.3116C21.7085 18.3132 20.5974 18.3132 19.4862 18.3116C19.4153 18.3107 19.3452 18.3269 19.2819 18.3588C18.6622 18.6649 18.0416 18.9697 17.4201 19.2732C17.3926 19.2852 17.3681 19.3032 17.3485 19.3259C17.3289 19.3486 17.3146 19.3754 17.3068 19.4044C17.254 19.5636 17.1268 19.6494 16.931 19.6532Z" fill="white"/>
<path d="M27.7251 19.2032C27.3121 19.2032 26.8985 19.2032 26.4863 19.2032C26.456 19.2009 26.4256 19.2056 26.3975 19.2169C26.3693 19.2281 26.3441 19.2457 26.3239 19.2683C26.2682 19.3266 26.1949 19.3648 26.1153 19.3772C26.0357 19.3895 25.9543 19.3752 25.8836 19.3366C25.8157 19.298 25.7615 19.2392 25.7286 19.1684C25.6957 19.0975 25.6858 19.0182 25.7002 18.9414C25.7367 18.7782 25.8663 18.6619 26.0228 18.6523C26.2095 18.6409 26.35 18.7217 26.4057 18.8937C26.4303 18.9689 26.4636 18.9886 26.5367 18.9883C27.278 18.9862 28.0194 18.9862 28.7611 18.9883C28.8563 18.9883 28.8798 18.9577 28.8792 18.8667C28.8758 18.1971 28.8768 17.5273 28.8792 16.8575C28.882 16.8295 28.8769 16.8013 28.8645 16.7761C28.8521 16.7509 28.8329 16.7297 28.8091 16.7148C28.6563 16.6081 28.6075 16.4436 28.6675 16.2823C28.6948 16.209 28.7448 16.1464 28.8104 16.1037C28.8759 16.061 28.9534 16.0405 29.0315 16.0452C29.1094 16.0498 29.1839 16.0788 29.2444 16.1281C29.3049 16.1774 29.3483 16.2445 29.3686 16.3199C29.4104 16.4895 29.3392 16.6513 29.1678 16.7396C29.096 16.7764 29.0942 16.8257 29.0942 16.8895C29.0942 17.6124 29.092 18.3355 29.0976 19.0584C29.0976 19.175 29.071 19.2091 28.9504 19.207C28.5422 19.1998 28.1337 19.2032 27.7251 19.2032Z" fill="white"/>
<path d="M25.6825 23.6247C25.7313 23.6247 25.7801 23.6247 25.8289 23.6247C25.9817 23.6285 26.1206 23.657 26.1656 23.4255C26.2035 23.2311 26.468 23.1613 26.6523 23.2533C26.696 23.2753 26.7348 23.3058 26.7666 23.343C26.7984 23.3802 26.8224 23.4234 26.8373 23.47C26.8522 23.5166 26.8576 23.5657 26.8533 23.6144C26.8491 23.6631 26.8351 23.7105 26.8123 23.7538C26.7901 23.7974 26.7591 23.836 26.7214 23.8671C26.6837 23.8983 26.64 23.9214 26.593 23.935C26.546 23.9486 26.4967 23.9525 26.4481 23.9463C26.3996 23.9401 26.3528 23.9241 26.3107 23.8991C26.2316 23.8513 26.1401 23.8282 26.0478 23.8327C25.7902 23.8354 25.5326 23.8301 25.2745 23.8357C25.2333 23.8389 25.1919 23.8319 25.154 23.8153C25.1162 23.7987 25.083 23.773 25.0574 23.7405C24.3664 22.9433 23.6739 22.1475 22.9799 21.3531C22.9324 21.2998 22.8959 21.2731 22.8156 21.2878C22.7367 21.3042 22.6544 21.2932 22.5826 21.2565C22.5107 21.2198 22.4535 21.1598 22.4204 21.0862C22.3886 21.015 22.3797 20.9357 22.3949 20.8593C22.4102 20.7828 22.4488 20.713 22.5055 20.6595C22.5648 20.6086 22.6382 20.5769 22.7159 20.5686C22.7936 20.5604 22.872 20.5759 22.9407 20.6131C23.0113 20.6524 23.0662 20.7148 23.0962 20.7899C23.1261 20.8649 23.1292 20.948 23.105 21.0251C23.0767 21.1176 23.105 21.1688 23.1607 21.2334C23.8209 21.9868 24.4787 22.7423 25.134 23.4999C25.214 23.5925 25.2918 23.6423 25.4158 23.6274C25.5038 23.6162 25.5937 23.6247 25.6825 23.6247Z" fill="white"/>
<path d="M28.0492 15.0632C27.4959 14.9946 26.9983 15.1432 26.5132 15.4074C26.0354 15.6682 25.5341 15.8855 25.0418 16.1199C24.9733 16.1525 24.9298 16.1839 24.928 16.2741C24.9258 16.3526 24.8968 16.4279 24.8457 16.4876C24.7947 16.5473 24.7247 16.5876 24.6474 16.6018C24.5697 16.6188 24.4886 16.6101 24.4162 16.5772C24.3438 16.5442 24.2841 16.4887 24.2458 16.4189C24.2076 16.3492 24.193 16.2689 24.2042 16.1902C24.2154 16.1114 24.2518 16.0384 24.308 15.9821C24.4146 15.8754 24.6082 15.8351 24.7373 15.9213C24.8253 15.9802 24.885 15.9589 24.965 15.9213C25.6794 15.5765 26.3956 15.2357 27.1105 14.8922C27.1703 14.8636 27.236 14.8492 27.3023 14.8504C27.7599 14.8522 28.2177 14.8504 28.6753 14.8528C28.7459 14.8528 28.7819 14.8402 28.8041 14.7632C28.8587 14.5765 28.9827 14.4923 29.1681 14.4965C29.244 14.497 29.3177 14.5219 29.3784 14.5675C29.439 14.6131 29.4834 14.677 29.5049 14.7498C29.5272 14.8248 29.5254 14.905 29.4998 14.9789C29.4741 15.0528 29.4259 15.1168 29.3619 15.1618C29.2169 15.2586 29.0403 15.2464 28.8977 15.1186C28.8769 15.0993 28.8524 15.0845 28.8256 15.075C28.7989 15.0654 28.7705 15.0614 28.7422 15.0632C28.5113 15.0645 28.2798 15.0632 28.0492 15.0632Z" fill="white"/>
<path d="M25.6001 21.7141C25.3292 21.7141 25.058 21.7157 24.7871 21.7141C24.7592 21.7119 24.7312 21.7172 24.7059 21.7293C24.6806 21.7413 24.659 21.7598 24.6431 21.7829C24.594 21.8498 24.523 21.8973 24.4425 21.9173C24.362 21.9374 24.277 21.9286 24.2023 21.8925C24.1315 21.8595 24.0728 21.8051 24.0345 21.737C23.9963 21.6688 23.9803 21.5904 23.989 21.5128C24.0002 21.433 24.0366 21.3589 24.0929 21.3013C24.1493 21.2438 24.2225 21.2057 24.302 21.1928C24.3818 21.1806 24.4634 21.1957 24.5335 21.2357C24.6035 21.2757 24.6581 21.3382 24.6882 21.413C24.7204 21.4917 24.7644 21.504 24.838 21.5037C25.3399 21.5012 25.8418 21.5012 26.3438 21.5037C26.3745 21.505 26.4051 21.5001 26.4338 21.4892C26.4625 21.4783 26.4887 21.4616 26.5108 21.4402C26.8553 21.1202 27.1995 20.8003 27.547 20.4832C27.5945 20.44 27.5891 20.4136 27.5617 20.3627C27.4699 20.1923 27.4929 20.0336 27.6171 19.9118C27.6739 19.8546 27.7483 19.818 27.8282 19.808C27.9082 19.7979 27.9893 19.8149 28.0584 19.8563C28.2016 19.9384 28.2672 20.0979 28.228 20.2683C28.192 20.4237 28.0603 20.5312 27.8771 20.5408C27.8201 20.5428 27.7662 20.5668 27.7265 20.6077C27.3561 20.952 26.9825 21.293 26.6132 21.6386C26.5872 21.665 26.5559 21.6857 26.5214 21.6992C26.4869 21.7127 26.4499 21.7188 26.4129 21.717C26.142 21.7112 25.8711 21.7141 25.6001 21.7141Z" fill="white"/>
<path d="M18.0025 15.0253C17.1409 15.3124 16.3024 15.6644 15.4941 16.0783C15.4802 16.0106 15.5146 15.9717 15.5335 15.9311C15.722 15.5205 15.9492 15.1376 16.3132 14.8533C16.8615 14.4251 17.5201 14.548 18.0025 15.0253Z" fill="white"/>
<path d="M21.0459 19.6099C21.1942 19.6046 21.3064 19.6705 21.3702 19.7993C21.4032 19.8657 21.4376 19.8862 21.5096 19.8862C22.7523 19.8839 23.9951 19.8839 25.238 19.8862C25.3028 19.8862 25.3362 19.8747 25.3615 19.8043C25.3868 19.725 25.4393 19.6571 25.5097 19.6128C25.5802 19.5684 25.6641 19.5504 25.7465 19.5619C25.8254 19.5706 25.8994 19.6045 25.9573 19.6588C26.0152 19.713 26.054 19.7845 26.0678 19.8627C26.0816 19.9408 26.0697 20.0213 26.0338 20.0921C25.998 20.1629 25.9401 20.2201 25.8689 20.2552C25.7952 20.2926 25.7107 20.3034 25.6299 20.2857C25.5491 20.268 25.4769 20.223 25.4255 20.1582C25.3775 20.1011 25.3266 20.0971 25.2636 20.0971C24.0207 20.0971 22.7778 20.0971 21.535 20.0971C21.4491 20.0971 21.392 20.1128 21.3395 20.1931C21.2438 20.3392 21.0443 20.3798 20.8881 20.3032C20.816 20.2671 20.7575 20.2087 20.7214 20.1366C20.6853 20.0645 20.6735 19.9826 20.6878 19.9033C20.7027 19.8197 20.7469 19.7442 20.8126 19.6904C20.8783 19.6366 20.961 19.608 21.0459 19.6099V19.6099Z" fill="white"/>
<path d="M31.2065 8.05355C31.0068 8.05355 30.8066 8.05728 30.6071 8.05168C30.5159 8.04902 30.4556 8.06635 30.4023 8.15328C30.3223 8.28314 30.1452 8.32847 29.9999 8.28127C29.9287 8.25832 29.8661 8.21409 29.8208 8.15454C29.7754 8.09498 29.7494 8.02296 29.7462 7.94817C29.743 7.87337 29.7628 7.79939 29.8029 7.73618C29.843 7.67298 29.9015 7.62358 29.9706 7.59463C30.1407 7.52237 30.3452 7.5845 30.43 7.75036C30.4695 7.82796 30.5143 7.84289 30.5927 7.84209C30.9749 7.83836 31.3571 7.83836 31.7393 7.84209C31.7717 7.84449 31.8041 7.83908 31.834 7.82632C31.8638 7.81356 31.8902 7.79382 31.9108 7.76876C32.1508 7.49624 32.3972 7.22771 32.643 6.95999C32.6862 6.91306 32.7001 6.87999 32.6665 6.81439C32.6288 6.74067 32.6176 6.65628 32.6346 6.57526C32.6515 6.49424 32.6957 6.42148 32.7598 6.36908C32.8217 6.32159 32.8965 6.29399 32.9744 6.28995C33.0523 6.2859 33.1296 6.30559 33.1961 6.34641C33.2625 6.39183 33.3126 6.45731 33.3391 6.53325C33.3657 6.6092 33.3672 6.69164 33.3435 6.76853C33.2974 6.92186 33.1553 7.02372 32.9753 7.01545C32.9449 7.01264 32.9143 7.01758 32.8863 7.02979C32.8583 7.04201 32.8339 7.06111 32.8153 7.08532C32.555 7.37624 32.2913 7.66396 32.0329 7.95649C31.9729 8.02448 31.9137 8.05968 31.8196 8.05622C31.6156 8.04822 31.4111 8.05355 31.2065 8.05355Z" fill="white"/>
<path d="M33.2675 14.0533C33.2547 13.8728 33.3456 13.7248 33.4997 13.6645C33.5749 13.636 33.6572 13.6325 33.7346 13.6546C33.8119 13.6766 33.88 13.723 33.9288 13.7869C33.9733 13.8509 33.9972 13.927 33.9972 14.0049C33.9972 14.0829 33.9733 14.1589 33.9288 14.2229C33.8816 14.2881 33.814 14.3357 33.7367 14.358C33.6594 14.3803 33.5768 14.3761 33.5021 14.3461C33.4397 14.3218 33.3931 14.317 33.3307 14.3536C32.7607 14.6864 32.189 15.0159 31.6155 15.3421C31.5411 15.3842 31.5409 15.4338 31.5411 15.5021C31.5437 15.5894 31.5134 15.6745 31.4563 15.7406C31.3992 15.8067 31.3194 15.849 31.2326 15.8591C31.1442 15.8726 31.054 15.8532 30.979 15.8046C30.904 15.756 30.8494 15.6816 30.8255 15.5955C30.8017 15.5093 30.8102 15.4174 30.8496 15.3372C30.8889 15.2569 30.9563 15.1938 31.039 15.1599C31.0858 15.1391 31.1367 15.129 31.1879 15.1305C31.2392 15.1319 31.2894 15.1448 31.335 15.1682C31.3604 15.1844 31.39 15.1926 31.4201 15.1919C31.4501 15.1911 31.4793 15.1814 31.5038 15.1639C32.0661 14.836 32.6298 14.5101 33.1949 14.1864C33.2563 14.1509 33.3037 14.121 33.2675 14.0533Z" fill="white"/>
<path d="M31.2236 20.495C31.2217 20.7704 30.9442 20.9483 30.6988 20.815C30.6116 20.7678 30.5578 20.7843 30.4855 20.8243C29.9522 21.1217 29.4174 21.4172 28.881 21.7109C28.8061 21.752 28.7602 21.7874 28.7664 21.8893C28.7765 22.0578 28.6688 22.1826 28.5053 22.2293C28.4301 22.2506 28.35 22.2472 28.2768 22.2198C28.2036 22.1923 28.1411 22.1421 28.0984 22.0765C28.0558 22.011 28.0353 21.9335 28.0398 21.8554C28.0444 21.7774 28.0738 21.7028 28.1237 21.6427C28.2267 21.5187 28.4008 21.464 28.5429 21.5392C28.6386 21.5899 28.7029 21.5659 28.7829 21.5211C29.3125 21.2252 29.8435 20.9319 30.3759 20.6411C30.4498 20.6008 30.4954 20.5638 30.4964 20.463C30.4986 20.2622 30.6831 20.1115 30.8812 20.1238C30.9756 20.1283 31.0644 20.1698 31.1284 20.2393C31.1925 20.3087 31.2267 20.4005 31.2236 20.495Z" fill="white"/>
<path d="M19.6593 27.9955C19.7548 28.2088 19.7393 28.4149 19.7127 28.6144C19.6679 28.9744 19.5527 29.3125 19.3393 29.6114C19.0599 30.005 18.6727 30.1269 18.1815 30.0493L19.6593 27.9955Z" fill="white"/>
<path d="M18.6063 21.292C18.4863 21.292 18.3663 21.2944 18.2466 21.292C18.0946 21.2885 17.9634 21.2802 17.8607 21.4506C17.7581 21.621 17.4874 21.6106 17.3434 21.4685C17.3082 21.4331 17.2804 21.391 17.2618 21.3447C17.2431 21.2984 17.2339 21.2488 17.2348 21.1989C17.2356 21.1489 17.2465 21.0997 17.2667 21.054C17.2869 21.0084 17.3161 20.9672 17.3525 20.9331C17.5077 20.7923 17.7623 20.8048 17.8818 20.9784C17.9423 21.0666 18.0061 21.0818 18.0989 21.0808C18.4674 21.0776 18.8362 21.0808 19.2047 21.0781C19.2752 21.0757 19.3442 21.0988 19.3991 21.1432C19.6591 21.3437 19.9233 21.5384 20.1833 21.7392C20.2825 21.816 20.3727 21.8712 20.515 21.8544C20.7198 21.8301 20.8705 21.9877 20.879 22.1911C20.8876 22.3946 20.7505 22.5554 20.5521 22.5725C20.5047 22.5777 20.4567 22.5736 20.4109 22.5603C20.3651 22.547 20.3224 22.5247 20.2852 22.4948C20.2481 22.465 20.2172 22.428 20.1943 22.3861C20.1715 22.3443 20.1571 22.2983 20.1521 22.2509C20.1481 22.2159 20.1412 22.1735 20.1564 22.1461C20.2159 22.0375 20.1596 21.9837 20.0764 21.9234C19.822 21.7368 19.5697 21.5477 19.3212 21.3552C19.2664 21.3106 19.1971 21.2878 19.1266 21.2912C18.9527 21.2949 18.7794 21.292 18.6063 21.292Z" fill="white"/>
<path d="M30.5685 10.7593C30.5657 10.6856 30.5869 10.6129 30.6287 10.5522C30.6706 10.4914 30.7309 10.4457 30.8007 10.422C30.9495 10.3662 31.1175 10.4004 31.2079 10.5286C31.2647 10.6086 31.3255 10.6244 31.4148 10.6236C31.8815 10.6197 32.3481 10.6197 32.8145 10.6236C32.9015 10.6236 32.9572 10.611 33.0012 10.5198C33.071 10.3697 33.2393 10.3081 33.4094 10.3468C33.5521 10.3793 33.6673 10.518 33.6809 10.6729C33.6874 10.7486 33.67 10.8245 33.6311 10.8898C33.5922 10.9551 33.5338 11.0065 33.4641 11.0369C33.3156 11.1009 33.1324 11.0716 33.042 10.9422C32.9777 10.8502 32.9063 10.8356 32.8076 10.8372C32.3412 10.8409 31.8743 10.8401 31.4082 10.8372C31.334 10.8372 31.2922 10.8529 31.2572 10.9289C31.182 11.0921 31.0053 11.1614 30.8306 11.1156C30.6725 11.0758 30.5677 10.9334 30.5685 10.7593Z" fill="white"/>
<path d="M21.6976 23.0415C21.7901 24.2148 21.7901 24.2148 22.1976 25.1948C21.6056 25.2343 21.2046 24.8961 21.2166 24.3834C21.2283 23.885 21.4419 23.4549 21.6976 23.0415Z" fill="white"/>
<path d="M19.4926 19.9731C19.4953 20.0491 19.473 20.1238 19.429 20.1858C19.3851 20.2478 19.322 20.2937 19.2494 20.3163C19.0948 20.3696 18.9294 20.3262 18.8377 20.187C18.7889 20.1126 18.7366 20.0939 18.6545 20.0952C18.3839 20.0995 18.1132 20.0984 17.8425 20.0952C17.7817 20.0952 17.7505 20.1115 17.7236 20.1702C17.642 20.3491 17.4994 20.4219 17.3159 20.391C17.2434 20.3779 17.1767 20.3427 17.1251 20.2901C17.0734 20.2376 17.0393 20.1704 17.0274 20.0976C17.0036 19.9155 17.0852 19.7601 17.2388 19.6942C17.4015 19.6249 17.5671 19.6675 17.686 19.8225C17.701 19.8433 17.7212 19.8599 17.7446 19.8705C17.768 19.8811 17.7938 19.8853 17.8193 19.8827C18.0988 19.8814 18.3793 19.8803 18.658 19.8827C18.7313 19.8827 18.7745 19.8686 18.8105 19.7939C18.887 19.6366 19.0548 19.5718 19.2276 19.6142C19.3833 19.655 19.4929 19.803 19.4926 19.9731Z" fill="white"/>
<path d="M14.729 18.1273C14.8623 18.1233 14.9956 18.2531 14.9972 18.3883C14.9991 18.5177 14.8791 18.643 14.7458 18.6507C14.6767 18.6524 14.6097 18.6271 14.5588 18.5803C14.508 18.5335 14.4773 18.4688 14.4733 18.3998C14.4738 18.3305 14.5004 18.264 14.5478 18.2135C14.5952 18.163 14.6599 18.1322 14.729 18.1273V18.1273Z" fill="#FEFDFD"/>
<path d="M33.1279 11.8305C33.1271 11.7963 33.1333 11.7623 33.146 11.7306C33.1586 11.6988 33.1776 11.6699 33.2016 11.6456C33.2257 11.6213 33.2544 11.6021 33.286 11.5891C33.3176 11.5761 33.3515 11.5696 33.3857 11.57C33.4523 11.5718 33.5158 11.5987 33.5633 11.6454C33.6109 11.6921 33.639 11.7551 33.642 11.8217C33.6425 11.8906 33.6164 11.957 33.5691 12.007C33.5218 12.0571 33.4569 12.0869 33.3881 12.0902C33.3539 12.0905 33.32 12.084 33.2883 12.0711C33.2566 12.0582 33.2278 12.0391 33.2036 12.0149C33.1793 11.9907 33.1602 11.962 33.1472 11.9303C33.1342 11.8986 33.1276 11.8647 33.1279 11.8305Z" fill="#FEFDFD"/>
<path d="M31.4659 13.168C31.5005 13.1672 31.535 13.1734 31.5672 13.1861C31.5994 13.1989 31.6287 13.218 31.6534 13.2423C31.6781 13.2666 31.6976 13.2956 31.7109 13.3276C31.7242 13.3596 31.7308 13.394 31.7306 13.4286C31.7303 13.4632 31.7231 13.4975 31.7093 13.5293C31.6956 13.5611 31.6756 13.5898 31.6505 13.6137C31.6255 13.6376 31.5958 13.6563 31.5634 13.6685C31.531 13.6808 31.4965 13.6864 31.4619 13.6851C31.4274 13.6853 31.3932 13.6784 31.3615 13.6649C31.3298 13.6514 31.3012 13.6315 31.2774 13.6066C31.2537 13.5816 31.2353 13.552 31.2234 13.5196C31.2115 13.4873 31.2064 13.4528 31.2083 13.4184C31.2095 13.3511 31.2373 13.2871 31.2856 13.2402C31.3338 13.1933 31.3986 13.1674 31.4659 13.168V13.168Z" fill="#FEFDFD"/>
<path d="M20.4181 19.2886C20.4172 19.3557 20.3904 19.4199 20.3432 19.4677C20.296 19.5155 20.2322 19.5433 20.1651 19.5451C20.1306 19.5462 20.0963 19.5403 20.0642 19.5277C20.0322 19.515 20.003 19.496 19.9785 19.4717C19.9541 19.4474 19.9348 19.4184 19.922 19.3864C19.9091 19.3544 19.9029 19.3201 19.9038 19.2857C19.9033 19.2184 19.9294 19.1537 19.9763 19.1055C20.0232 19.0573 20.0872 19.0295 20.1544 19.0281C20.2239 19.0279 20.2905 19.0552 20.3399 19.104C20.3893 19.1528 20.4174 19.2192 20.4181 19.2886V19.2886Z" fill="#FEFDFD"/>
<path d="M33.9861 8.95538C33.9861 8.80818 34.0864 8.69832 34.2285 8.69325C34.2976 8.69252 34.3643 8.71892 34.4141 8.76679C34.464 8.81465 34.4931 8.88016 34.4952 8.94924C34.4953 9.01628 34.4696 9.08079 34.4233 9.12933C34.3771 9.17786 34.3139 9.20668 34.2469 9.20977C34.2127 9.21187 34.1784 9.20679 34.1462 9.19484C34.114 9.18288 34.0847 9.16433 34.0601 9.14037C34.0356 9.1164 34.0163 9.08757 34.0036 9.05571C33.9908 9.02385 33.9849 8.98967 33.9861 8.95538Z" fill="#FEFDFD"/>
<path d="M15.1085 19.2382C15.1063 19.3072 15.0781 19.3728 15.0295 19.4219C14.9809 19.4709 14.9156 19.4997 14.8466 19.5025C14.7101 19.5025 14.5896 19.3756 14.5917 19.2342C14.5928 19.1674 14.6197 19.1037 14.6667 19.0562C14.7137 19.0087 14.7772 18.9812 14.844 18.9793C14.9129 18.9802 14.9788 19.0076 15.028 19.0558C15.0773 19.104 15.1061 19.1694 15.1085 19.2382V19.2382Z" fill="#FEFDFD"/>
<path d="M16.7068 19.2841C16.7063 19.2507 16.7125 19.2177 16.7248 19.1867C16.7372 19.1558 16.7556 19.1276 16.7789 19.1038C16.8023 19.08 16.8301 19.0611 16.8607 19.0481C16.8914 19.0351 16.9244 19.0283 16.9577 19.0281C17.0271 19.0286 17.0935 19.0564 17.1426 19.1055C17.1917 19.1546 17.2194 19.2211 17.2198 19.2905C17.2183 19.3575 17.1909 19.4214 17.1435 19.4688C17.0961 19.5162 17.0322 19.5436 16.9652 19.5451C16.9307 19.5463 16.8964 19.5403 16.8643 19.5275C16.8323 19.5148 16.8032 19.4955 16.779 19.471C16.7547 19.4465 16.7358 19.4172 16.7234 19.3851C16.7109 19.3529 16.7053 19.3185 16.7068 19.2841Z" fill="#FEFDFD"/>
<path d="M22.9965 18.1105C22.9968 18.0432 23.0237 17.9788 23.0712 17.9312C23.1187 17.8836 23.1831 17.8566 23.2503 17.8561C23.3175 17.8576 23.3815 17.8853 23.4287 17.9331C23.4758 17.981 23.5025 18.0454 23.5031 18.1126C23.5037 18.1798 23.478 18.2446 23.4316 18.2932C23.3853 18.3418 23.3218 18.3705 23.2546 18.3732C23.2202 18.3737 23.186 18.3673 23.1541 18.3542C23.1222 18.3412 23.0934 18.3218 23.0692 18.2972C23.0451 18.2726 23.0262 18.2434 23.0137 18.2113C23.0012 18.1792 22.9953 18.1449 22.9965 18.1105V18.1105Z" fill="#FEFDFD"/>
<path d="M29.013 16.6641C28.9787 16.6658 28.9444 16.6602 28.9123 16.6477C28.8802 16.6352 28.8511 16.6162 28.8268 16.5918C28.8026 16.5674 28.7837 16.5382 28.7714 16.5061C28.7591 16.4739 28.7537 16.4396 28.7555 16.4052C28.7559 16.338 28.7828 16.2736 28.8304 16.2261C28.8779 16.1786 28.9423 16.1517 29.0096 16.1514C29.0789 16.1523 29.1452 16.1805 29.1938 16.2299C29.2425 16.2794 29.2697 16.346 29.2696 16.4154C29.2682 16.4823 29.2405 16.5459 29.1925 16.5925C29.1445 16.6391 29.08 16.6649 29.013 16.6641Z" fill="#FEFDFD"/>
<path d="M25.7086 19.6675C25.778 19.6698 25.8436 19.6994 25.8913 19.7497C25.9391 19.8001 25.965 19.8672 25.9636 19.9366C25.9603 20.0036 25.9312 20.0668 25.8825 20.113C25.8338 20.1591 25.7691 20.1847 25.702 20.1843C25.668 20.1839 25.6345 20.1768 25.6033 20.1634C25.5722 20.15 25.5439 20.1306 25.5202 20.1063C25.4966 20.082 25.4779 20.0532 25.4653 20.0217C25.4527 19.9902 25.4465 19.9565 25.4469 19.9226C25.4474 19.8887 25.4545 19.8551 25.4679 19.824C25.4813 19.7928 25.5007 19.7645 25.525 19.7409C25.5493 19.7172 25.578 19.6985 25.6095 19.6859C25.641 19.6733 25.6747 19.6671 25.7086 19.6675V19.6675Z" fill="#FEFDFD"/>
<path d="M17.5935 20.9459C17.6629 20.9454 17.7298 20.9723 17.7795 21.0209C17.8292 21.0694 17.8577 21.1356 17.8588 21.2051C17.8581 21.2722 17.8316 21.3365 17.7847 21.3845C17.7378 21.4326 17.6742 21.4607 17.6071 21.4629C17.5726 21.4642 17.5383 21.4585 17.5061 21.4461C17.474 21.4336 17.4447 21.4148 17.4201 21.3906C17.3955 21.3665 17.3761 21.3376 17.3631 21.3057C17.3501 21.2737 17.3437 21.2395 17.3444 21.2051C17.3435 21.1378 17.3691 21.0728 17.4157 21.0243C17.4623 20.9758 17.5262 20.9476 17.5935 20.9459V20.9459Z" fill="#FEFDFD"/>
<path d="M30.6752 10.7591C30.6754 10.6918 30.7021 10.6272 30.7496 10.5795C30.7971 10.5318 30.8615 10.5048 30.9288 10.5044C30.9983 10.5052 31.0646 10.5334 31.1134 10.5828C31.1622 10.6322 31.1895 10.699 31.1893 10.7684C31.1874 10.8355 31.1596 10.8992 31.1119 10.9463C31.0642 10.9934 31.0001 11.0203 30.9331 11.0215C30.8986 11.0222 30.8644 11.0158 30.8325 11.0028C30.8007 10.9898 30.7718 10.9704 30.7476 10.9458C30.7235 10.9213 30.7046 10.892 30.6922 10.8599C30.6797 10.8278 30.6739 10.7935 30.6752 10.7591V10.7591Z" fill="#FEFDFD"/>
<path d="M17.6454 20.0329C17.6448 20.1 17.6183 20.1643 17.5715 20.2123C17.5246 20.2604 17.461 20.2884 17.3939 20.2907C17.3595 20.2921 17.3252 20.2864 17.293 20.2741C17.2609 20.2617 17.2316 20.2429 17.207 20.2188C17.1823 20.1947 17.1629 20.1658 17.1498 20.1339C17.1368 20.1021 17.1304 20.0678 17.131 20.0334C17.1301 19.9661 17.1557 19.9012 17.2022 19.8526C17.2488 19.8041 17.3126 19.7758 17.3798 19.7739C17.4493 19.7734 17.5162 19.8002 17.5659 19.8487C17.6156 19.8972 17.6442 19.9634 17.6454 20.0329Z" fill="#FEFDFD"/>
</svg>
