<svg width="154" height="100" viewBox="0 0 154 100" fill="none" xmlns="http://www.w3.org/2000/svg">
<rect width="154" height="100" rx="5" fill="#F3F5F7"/>
<rect x="7.7002" y="7.69231" width="138.6" height="84.6154" fill="#191F33"/>
<rect x="7.7002" y="7.69231" width="12.32" height="84.6154" fill="#272E46"/>
<ellipse cx="13.8598" cy="13.8462" rx="3.08" ry="3.07692" fill="#E8E8E8"/>
<rect x="9.24023" y="25.3846" width="9.24" height="1.53846" rx="0.769231" fill="#30374F"/>
<rect x="9.24023" y="31.5385" width="9.24" height="1.53846" rx="0.769231" fill="#30374F"/>
<rect x="9.24023" y="37.6923" width="9.24" height="1.53846" rx="0.769231" fill="#30374F"/>
<rect x="9.24023" y="43.8462" width="9.24" height="1.53846" rx="0.769231" fill="#30374F"/>
<rect x="9.24023" y="50" width="9.24" height="1.53846" rx="0.769231" fill="#30374F"/>
<rect x="9.24023" y="56.1538" width="9.24" height="1.53846" rx="0.769231" fill="#30374F"/>
<rect x="20.02" y="7.69231" width="126.28" height="10" fill="#272E46"/>
<rect x="23.1001" y="20.7692" width="123.2" height="71.5385" fill="#272E46"/>
<ellipse cx="129.36" cy="13.0769" rx="3.08" ry="3.07692" fill="#30374F"/>
<ellipse cx="27.7201" cy="13.0769" rx="3.08" ry="3.07692" fill="#30374F"/>
<ellipse cx="111.65" cy="13.0769" rx="3.08" ry="3.07692" fill="#30374F"/>
<ellipse cx="120.89" cy="13.0769" rx="3.08" ry="3.07692" fill="#30374F"/>
<rect x="133.98" y="12.3077" width="6.93" height="2.30769" rx="1.15385" fill="#30374F"/>
<rect x="27.7202" y="26.1538" width="115.5" height="5.38462" rx="2.69231" fill="#30374F"/>
<rect x="27.7202" y="34.6154" width="115.5" height="4.61538" rx="2.30769" fill="#30374F"/>
<rect x="27.7202" y="42.3077" width="115.5" height="3.07692" rx="1.53846" fill="#30374F"/>
<rect x="27.7202" y="50" width="34.65" height="36.9231" rx="3" fill="#30374F"/>
<rect x="68.5298" y="50" width="34.65" height="36.9231" rx="3" fill="#30374F"/>
<rect x="108.57" y="50" width="34.65" height="36.9231" rx="3" fill="#30374F"/>
</svg>
