<svg width="183" height="24" viewBox="0 0 183 24" fill="none" xmlns="http://www.w3.org/2000/svg">
<path d="M35.3506 3.38574C35.0479 3.41504 34.7451 3.4834 34.4424 3.59082C34.1396 3.68848 33.8418 3.81543 33.5488 3.97168C33.0996 4.22559 32.7773 4.50391 32.582 4.80664C32.3965 5.10938 32.2256 5.47559 32.0693 5.90527C31.5322 7.38965 30.7021 9.76758 29.5791 13.0391C28.4658 16.3105 27.3037 19.709 26.0928 23.2344H23.1484L17.6553 7.78027L12.7041 23.2344H9.75977C8.12891 18.4883 6.87891 14.8359 6.00977 12.2773C5.14062 9.70898 4.4082 7.55566 3.8125 5.81738C3.62695 5.29004 3.41699 4.90918 3.18262 4.6748C2.94824 4.43066 2.64551 4.18652 2.27441 3.94238C2.01074 3.7666 1.72754 3.63965 1.4248 3.56152C1.13184 3.47363 0.790039 3.40527 0.399414 3.35645V2.21387H11.4883V3.32715C10.834 3.40527 10.3457 3.4834 10.0234 3.56152C9.70117 3.62988 9.44727 3.70313 9.26172 3.78125C9.08594 3.85937 8.97852 3.94238 8.93945 4.03027C8.90039 4.11816 8.88086 4.19629 8.88086 4.26465C8.88086 4.40137 8.89551 4.5332 8.9248 4.66016C8.96387 4.78711 9.00293 4.93359 9.04199 5.09961C9.27637 5.86133 9.75 7.30664 10.4629 9.43555C11.1758 11.5645 12.0547 14.2061 13.0996 17.3604L17.8311 2.21387H20.9365L26.4297 17.8291C27.2402 15.3193 27.8848 13.2686 28.3633 11.6768C28.8516 10.085 29.2617 8.72266 29.5938 7.58984C29.7891 6.89648 29.9453 6.31543 30.0625 5.84668C30.1797 5.37793 30.2383 4.97266 30.2383 4.63086C30.2383 4.42578 30.1406 4.25 29.9453 4.10352C29.7598 3.95703 29.5059 3.83008 29.1836 3.72266C28.9102 3.63477 28.5537 3.56641 28.1143 3.51758C27.6846 3.45898 27.3086 3.41504 26.9863 3.38574V2.21387H35.3506V3.38574ZM51.4053 19.499C51.0635 20.0557 50.6484 20.583 50.1602 21.0811C49.6816 21.5693 49.1348 21.9893 48.5195 22.3408C47.8652 22.7119 47.2012 22.9902 46.5273 23.1758C45.8633 23.3711 45.0967 23.4688 44.2275 23.4688C42.7822 23.4688 41.5322 23.2637 40.4775 22.8535C39.4326 22.4434 38.5684 21.8916 37.8848 21.1982C37.2012 20.5049 36.6885 19.6895 36.3467 18.752C36.0146 17.8047 35.8486 16.7793 35.8486 15.6758C35.8486 14.6797 36.0293 13.7275 36.3906 12.8193C36.7617 11.9014 37.2842 11.0859 37.958 10.373C38.6221 9.67969 39.457 9.11816 40.4629 8.68848C41.4785 8.25879 42.6113 8.04395 43.8613 8.04395C45.2285 8.04395 46.3516 8.20996 47.2305 8.54199C48.1094 8.87402 48.8369 9.33301 49.4131 9.91895C49.9697 10.4756 50.375 11.1348 50.6289 11.8965C50.8828 12.6484 51.0098 13.4395 51.0098 14.2695V15.2217H41.1074C41.1074 17.2236 41.4932 18.7471 42.2646 19.792C43.0361 20.8369 44.2617 21.3594 45.9414 21.3594C46.8594 21.3594 47.6846 21.1104 48.417 20.6123C49.1494 20.1045 49.7744 19.4648 50.292 18.6934L51.4053 19.499ZM45.8096 13.9326C45.8096 13.3467 45.7803 12.7461 45.7217 12.1309C45.6631 11.5156 45.5605 11.0127 45.4141 10.6221C45.248 10.1631 45.0186 9.81641 44.7256 9.58203C44.4424 9.34766 44.0811 9.23047 43.6416 9.23047C42.8896 9.23047 42.2891 9.61133 41.8398 10.373C41.3906 11.1348 41.1465 12.3408 41.1074 13.9912L45.8096 13.9326ZM61.7471 23H52.5625V21.9307C52.8164 21.9111 53.0605 21.8867 53.2949 21.8574C53.5391 21.8281 53.7539 21.7793 53.9395 21.7109C54.252 21.5938 54.4619 21.4277 54.5693 21.2129C54.6865 20.9883 54.7451 20.6953 54.7451 20.334V4.10352C54.7451 3.73242 54.667 3.39062 54.5107 3.07812C54.3643 2.75586 54.1641 2.51172 53.9102 2.3457C53.7148 2.21875 53.417 2.09668 53.0166 1.97949C52.626 1.8623 52.2793 1.79395 51.9766 1.77441V0.705078L59.3447 0.324219L59.5645 0.558594V20.1436C59.5645 20.5049 59.6279 20.7979 59.7549 21.0225C59.8818 21.2471 60.0869 21.4229 60.3701 21.5498C60.5654 21.6377 60.7705 21.7158 60.9854 21.7842C61.2002 21.8525 61.4541 21.9014 61.7471 21.9307V23ZM71.5322 23.4688C70.1748 23.4688 68.9736 23.2734 67.9287 22.8828C66.8936 22.4824 66.0391 21.9404 65.3652 21.2568C64.6914 20.5635 64.1885 19.7432 63.8564 18.7959C63.5244 17.8486 63.3584 16.8184 63.3584 15.7051C63.3584 14.6895 63.5586 13.7227 63.959 12.8047C64.3691 11.8867 64.9209 11.0811 65.6143 10.3877C66.3271 9.6748 67.2109 9.1084 68.2656 8.68848C69.3301 8.25879 70.502 8.04395 71.7812 8.04395C73.5781 8.04395 74.999 8.38574 76.0439 9.06934C77.0889 9.74316 77.6113 10.6562 77.6113 11.8086C77.6113 12.5117 77.4258 13.0781 77.0547 13.5078C76.6836 13.9375 76.0439 14.1523 75.1357 14.1523C74.4033 14.1523 73.7881 13.9766 73.29 13.625C72.8018 13.2734 72.5576 12.8145 72.5576 12.248C72.5576 11.7695 72.6357 11.2959 72.792 10.8271C72.9482 10.3584 73.041 10.002 73.0703 9.75781C72.9629 9.58203 72.8262 9.4502 72.6602 9.3623C72.4941 9.26465 72.2354 9.21582 71.8838 9.21582C71.4443 9.21582 71.0439 9.31836 70.6826 9.52344C70.3213 9.72852 69.9844 10.0898 69.6719 10.6074C69.3691 11.0957 69.125 11.75 68.9395 12.5703C68.7637 13.3906 68.6758 14.377 68.6758 15.5293C68.6758 17.2676 69.0811 18.6689 69.8916 19.7334C70.7119 20.7979 71.6885 21.3301 72.8213 21.3301C73.9053 21.3301 74.7646 21.0908 75.3994 20.6123C76.0439 20.124 76.6152 19.4355 77.1133 18.5469L78.2119 19.3086C77.9092 19.9043 77.5479 20.4512 77.1279 20.9492C76.708 21.4375 76.2051 21.8721 75.6191 22.2529C75.0039 22.6533 74.3789 22.9561 73.7441 23.1611C73.1094 23.3662 72.3721 23.4688 71.5322 23.4688ZM94.0615 10.1973C94.7842 10.8711 95.3359 11.6768 95.7168 12.6143C96.0977 13.5518 96.2881 14.5674 96.2881 15.6611C96.2881 16.7451 96.0977 17.7705 95.7168 18.7373C95.3457 19.6943 94.7988 20.5146 94.0762 21.1982C93.3047 21.9307 92.3818 22.4922 91.3076 22.8828C90.2432 23.2734 89.0225 23.4688 87.6455 23.4688C86.4541 23.4688 85.3555 23.2979 84.3496 22.9561C83.3535 22.6143 82.4697 22.1016 81.6982 21.418C80.9561 20.7637 80.3701 19.958 79.9404 19.001C79.5107 18.0342 79.2959 16.9551 79.2959 15.7637C79.2959 14.5918 79.4814 13.5518 79.8525 12.6436C80.2334 11.7256 80.7998 10.9102 81.5518 10.1973C82.2744 9.51367 83.1631 8.98633 84.2178 8.61523C85.2822 8.23438 86.4688 8.04395 87.7773 8.04395C89.1445 8.04395 90.3457 8.23438 91.3809 8.61523C92.4258 8.98633 93.3193 9.51367 94.0615 10.1973ZM90.3115 20.3486C90.5264 19.8018 90.6826 19.1377 90.7803 18.3564C90.8877 17.5752 90.9414 16.667 90.9414 15.6318C90.9414 14.9482 90.8926 14.167 90.7949 13.2881C90.6973 12.4092 90.5508 11.7158 90.3555 11.208C90.1211 10.5928 89.7939 10.1094 89.374 9.75781C88.9639 9.40625 88.4414 9.23047 87.8066 9.23047C87.1133 9.23047 86.5566 9.4209 86.1367 9.80176C85.7266 10.1826 85.4092 10.6758 85.1846 11.2812C84.9795 11.8379 84.8379 12.4922 84.7598 13.2441C84.6816 13.9863 84.6426 14.7627 84.6426 15.5732C84.6426 16.6377 84.6768 17.5215 84.7451 18.2246C84.8135 18.918 84.9795 19.6162 85.2432 20.3193C85.4678 20.9248 85.79 21.4033 86.21 21.7549C86.6299 22.1064 87.1621 22.2822 87.8066 22.2822C88.3926 22.2822 88.8955 22.1211 89.3154 21.7988C89.7354 21.4668 90.0674 20.9834 90.3115 20.3486ZM127.284 23H118.554V21.9307C118.769 21.9014 118.993 21.877 119.228 21.8574C119.462 21.8379 119.657 21.7891 119.813 21.7109C120.028 21.6133 120.165 21.4521 120.224 21.2275C120.282 20.9932 120.312 20.6953 120.312 20.334V13.4932C120.312 12.4873 120.131 11.7354 119.77 11.2373C119.418 10.7295 118.91 10.4756 118.246 10.4756C117.826 10.4756 117.45 10.5439 117.118 10.6807C116.796 10.8076 116.498 10.9688 116.225 11.1641C115.941 11.3691 115.722 11.5742 115.565 11.7793C115.409 11.9844 115.277 12.1602 115.17 12.3066V20.1729C115.17 20.5244 115.209 20.8125 115.287 21.0371C115.375 21.252 115.531 21.4229 115.756 21.5498C115.912 21.6377 116.088 21.7158 116.283 21.7842C116.488 21.8525 116.703 21.9014 116.928 21.9307V23H108.563V21.9307C108.749 21.9111 108.974 21.8867 109.237 21.8574C109.501 21.8281 109.696 21.7793 109.823 21.7109C110.028 21.6035 110.16 21.4473 110.219 21.2422C110.287 21.0371 110.321 20.7344 110.321 20.334V13.4932C110.321 12.4873 110.141 11.7354 109.779 11.2373C109.428 10.7295 108.92 10.4756 108.256 10.4756C107.836 10.4756 107.46 10.5439 107.128 10.6807C106.806 10.8076 106.508 10.9688 106.234 11.1641C105.951 11.3691 105.731 11.5742 105.575 11.7793C105.419 11.9844 105.287 12.1602 105.18 12.3066V20.1729C105.18 20.5146 105.224 20.7979 105.312 21.0225C105.399 21.2471 105.556 21.4229 105.78 21.5498C105.937 21.6377 106.112 21.7158 106.308 21.7842C106.513 21.8525 106.728 21.9014 106.952 21.9307V23H98.1777V21.9307C98.4316 21.9111 98.6807 21.8867 98.9248 21.8574C99.1689 21.8281 99.3789 21.7793 99.5547 21.7109C99.8672 21.5938 100.082 21.4277 100.199 21.2129C100.316 20.9883 100.375 20.6953 100.375 20.334V11.8086C100.375 11.4961 100.292 11.1934 100.126 10.9004C99.96 10.5977 99.7598 10.3633 99.5254 10.1973C99.3496 10.0801 99.125 9.98242 98.8516 9.9043C98.5879 9.82617 98.2949 9.77246 97.9727 9.74316V8.67383L104.96 8.29297L105.18 8.5127V10.5781H105.238C105.512 10.334 105.834 10.0459 106.205 9.71387C106.586 9.37207 106.942 9.09863 107.274 8.89355C107.636 8.65918 108.1 8.46387 108.666 8.30762C109.232 8.15137 109.853 8.07324 110.526 8.07324C111.64 8.07324 112.567 8.31738 113.31 8.80566C114.062 9.28418 114.594 9.92383 114.906 10.7246H115.038C115.321 10.4609 115.668 10.1533 116.078 9.80176C116.488 9.44043 116.864 9.15234 117.206 8.9375C117.587 8.69336 118.07 8.48828 118.656 8.32227C119.252 8.15625 119.887 8.07324 120.561 8.07324C122.035 8.07324 123.168 8.50781 123.959 9.37695C124.76 10.2461 125.16 11.4814 125.16 13.083V20.2021C125.16 20.5635 125.214 20.8564 125.321 21.0811C125.429 21.2959 125.624 21.4619 125.907 21.5791C126.063 21.6475 126.254 21.7158 126.479 21.7842C126.713 21.8525 126.981 21.9014 127.284 21.9307V23ZM144.394 19.499C144.052 20.0557 143.637 20.583 143.148 21.0811C142.67 21.5693 142.123 21.9893 141.508 22.3408C140.854 22.7119 140.189 22.9902 139.516 23.1758C138.852 23.3711 138.085 23.4688 137.216 23.4688C135.771 23.4688 134.521 23.2637 133.466 22.8535C132.421 22.4434 131.557 21.8916 130.873 21.1982C130.189 20.5049 129.677 19.6895 129.335 18.752C129.003 17.8047 128.837 16.7793 128.837 15.6758C128.837 14.6797 129.018 13.7275 129.379 12.8193C129.75 11.9014 130.272 11.0859 130.946 10.373C131.61 9.67969 132.445 9.11816 133.451 8.68848C134.467 8.25879 135.6 8.04395 136.85 8.04395C138.217 8.04395 139.34 8.20996 140.219 8.54199C141.098 8.87402 141.825 9.33301 142.401 9.91895C142.958 10.4756 143.363 11.1348 143.617 11.8965C143.871 12.6484 143.998 13.4395 143.998 14.2695V15.2217H134.096C134.096 17.2236 134.481 18.7471 135.253 19.792C136.024 20.8369 137.25 21.3594 138.93 21.3594C139.848 21.3594 140.673 21.1104 141.405 20.6123C142.138 20.1045 142.763 19.4648 143.28 18.6934L144.394 19.499ZM138.798 13.9326C138.798 13.3467 138.769 12.7461 138.71 12.1309C138.651 11.5156 138.549 11.0127 138.402 10.6221C138.236 10.1631 138.007 9.81641 137.714 9.58203C137.431 9.34766 137.069 9.23047 136.63 9.23047C135.878 9.23047 135.277 9.61133 134.828 10.373C134.379 11.1348 134.135 12.3408 134.096 13.9912L138.798 13.9326ZM164.33 22.3262C163.705 22.5996 163.036 22.8438 162.323 23.0586C161.61 23.2832 160.741 23.3955 159.716 23.3955C158.192 23.3955 157.06 23.0244 156.317 22.2822C155.585 21.54 155.219 20.4805 155.219 19.1035V10.1094H152.582V8.52734H155.277V4.08887H160.038V8.52734H164.14V10.1094H160.067V18.1367C160.067 19.2793 160.224 20.0898 160.536 20.5684C160.858 21.0469 161.43 21.2861 162.25 21.2861C162.514 21.2861 162.88 21.2666 163.349 21.2275C163.817 21.1885 164.145 21.1445 164.33 21.0957V22.3262ZM180.312 10.1973C181.034 10.8711 181.586 11.6768 181.967 12.6143C182.348 13.5518 182.538 14.5674 182.538 15.6611C182.538 16.7451 182.348 17.7705 181.967 18.7373C181.596 19.6943 181.049 20.5146 180.326 21.1982C179.555 21.9307 178.632 22.4922 177.558 22.8828C176.493 23.2734 175.272 23.4688 173.896 23.4688C172.704 23.4688 171.605 23.2979 170.6 22.9561C169.604 22.6143 168.72 22.1016 167.948 21.418C167.206 20.7637 166.62 19.958 166.19 19.001C165.761 18.0342 165.546 16.9551 165.546 15.7637C165.546 14.5918 165.731 13.5518 166.103 12.6436C166.483 11.7256 167.05 10.9102 167.802 10.1973C168.524 9.51367 169.413 8.98633 170.468 8.61523C171.532 8.23438 172.719 8.04395 174.027 8.04395C175.395 8.04395 176.596 8.23438 177.631 8.61523C178.676 8.98633 179.569 9.51367 180.312 10.1973ZM176.562 20.3486C176.776 19.8018 176.933 19.1377 177.03 18.3564C177.138 17.5752 177.191 16.667 177.191 15.6318C177.191 14.9482 177.143 14.167 177.045 13.2881C176.947 12.4092 176.801 11.7158 176.605 11.208C176.371 10.5928 176.044 10.1094 175.624 9.75781C175.214 9.40625 174.691 9.23047 174.057 9.23047C173.363 9.23047 172.807 9.4209 172.387 9.80176C171.977 10.1826 171.659 10.6758 171.435 11.2812C171.229 11.8379 171.088 12.4922 171.01 13.2441C170.932 13.9863 170.893 14.7627 170.893 15.5732C170.893 16.6377 170.927 17.5215 170.995 18.2246C171.063 18.918 171.229 19.6162 171.493 20.3193C171.718 20.9248 172.04 21.4033 172.46 21.7549C172.88 22.1064 173.412 22.2822 174.057 22.2822C174.643 22.2822 175.146 22.1211 175.565 21.7988C175.985 21.4668 176.317 20.9834 176.562 20.3486Z" fill="#92AAB8"/>
</svg>
